{"glyphs":{"0":{"ha":856,"x_min":0,"x_max":0,"o":"m 164 700 b 554 1006 197 890 339 1006 b 840 693 767 1006 874 883 l 768 285 b 376 -19 735 94 592 -19 b 92 292 161 -19 58 99 m 821 697 b 553 986 853 876 754 986 b 183 697 349 986 215 876 l 111 289 b 379 0 79 107 175 0 b 749 289 581 0 717 107 "},"1":{"ha":568,"x_min":0,"x_max":0,"o":"m 531 986 b 536 981 535 986 536 985 l 364 6 b 357 0 363 1 361 0 l 349 0 b 343 6 344 0 342 1 l 513 961 l 119 764 b 113 765 115 763 114 763 l 108 774 b 111 781 106 776 107 779 l 514 983 b 522 986 518 985 521 986 "},"2":{"ha":800,"x_min":0,"x_max":0,"o":"m 149 782 b 533 1006 243 936 357 1006 b 785 719 721 1006 814 897 b 651 504 768 615 714 551 b 501 428 611 474 546 444 b 417 396 478 418 450 408 b 389 386 404 392 396 388 b 293 351 349 372 317 361 b 210 311 269 342 242 328 b 133 260 178 294 151 278 b 49 106 96 225 60 171 l 35 19 l 657 19 b 661 14 660 19 661 18 l 660 6 b 653 0 658 1 657 0 l 17 0 b 11 7 11 0 10 3 l 28 106 b 118 272 40 176 79 235 b 199 328 138 290 164 310 b 286 369 233 346 263 360 b 388 406 310 379 344 390 b 611 501 497 446 572 478 b 765 722 697 554 749 628 b 532 986 794 888 704 986 b 167 774 365 986 257 919 b 160 771 165 769 163 769 l 150 775 b 149 782 149 776 147 779 "},"3":{"ha":811,"x_min":0,"x_max":0,"o":"m 764 732 b 582 507 746 626 683 536 b 710 263 686 474 732 386 b 347 -19 676 75 556 -19 b 44 233 140 -19 61 63 b 50 242 43 238 46 240 l 56 243 b 64 239 60 244 63 243 b 139 57 74 156 99 94 b 347 0 179 19 249 0 b 690 263 546 0 661 88 b 501 497 717 406 647 497 l 236 497 b 232 503 232 497 231 499 l 233 511 b 240 517 233 515 236 517 l 506 517 b 746 735 643 517 724 613 b 522 986 774 894 690 986 b 301 935 428 986 354 969 b 165 760 249 900 203 842 b 156 757 164 756 160 756 l 150 758 b 147 767 146 760 146 763 b 526 1006 221 933 325 1006 b 764 732 706 1006 796 903 "},"4":{"ha":817,"x_min":0,"x_max":0,"o":"m 756 331 b 760 325 760 331 761 329 l 758 317 b 753 311 758 313 757 311 l 588 311 l 533 6 b 526 0 532 1 531 0 l 517 0 b 513 6 513 0 511 1 l 567 311 l 31 311 b 25 317 26 311 25 313 l 26 322 b 29 331 26 324 28 326 l 683 1001 b 693 1006 688 1004 690 1006 l 703 1006 b 708 999 707 1006 710 1003 l 590 331 m 683 972 l 54 331 l 569 331 "},"5":{"ha":804,"x_min":0,"x_max":0,"o":"m 792 986 b 797 981 796 986 797 985 l 794 972 b 789 967 794 968 793 967 l 267 967 l 157 569 l 440 569 b 708 272 640 569 742 461 b 589 61 693 186 654 115 b 336 -21 524 7 439 -21 b 25 192 154 -21 51 50 b 28 199 25 196 26 197 l 40 203 b 46 199 44 204 46 203 b 338 -1 69 65 167 -1 b 574 78 433 -1 513 25 b 688 276 635 129 672 196 b 440 550 717 453 628 550 l 142 550 b 133 561 133 550 131 554 l 247 971 b 267 986 251 981 257 986 "},"6":{"ha":844,"x_min":0,"x_max":0,"o":"m 150 488 b 494 550 246 529 361 550 b 772 260 718 550 806 454 b 385 -19 740 81 600 -19 b 100 319 163 -19 61 107 l 161 667 b 561 1006 200 893 333 1006 b 854 800 728 1006 825 938 b 849 793 854 796 853 794 l 840 790 b 835 794 836 789 835 790 b 558 986 808 922 717 986 b 182 667 347 986 217 878 m 121 319 b 385 0 83 118 175 0 b 753 265 589 0 724 97 b 490 531 785 444 701 531 b 146 465 364 531 250 508 "},"7":{"ha":688,"x_min":0,"x_max":0,"o":"m 758 986 b 764 981 763 986 764 985 l 763 975 l 760 967 l 169 6 b 158 0 167 1 163 0 l 149 0 b 147 6 144 0 143 1 l 738 967 l 131 967 b 125 972 126 967 125 968 l 128 981 b 133 986 128 985 129 986 "},"8":{"ha":835,"x_min":0,"x_max":0,"o":"m 186 771 b 542 1006 213 925 342 1006 b 817 764 749 1006 843 921 b 685 564 800 674 750 603 b 517 497 618 525 572 508 b 694 413 599 474 644 453 b 747 226 744 372 763 310 b 361 -19 718 63 590 -19 b 60 221 121 -19 32 67 b 251 460 83 343 164 418 b 399 511 314 492 354 501 b 235 596 326 533 279 556 b 186 771 189 635 171 694 m 797 768 b 538 986 824 911 732 986 b 206 768 350 986 229 908 b 304 571 190 679 222 614 b 469 511 336 554 390 535 l 476 508 b 594 540 506 513 529 515 b 681 585 626 553 656 567 b 797 768 729 618 782 686 m 728 229 b 464 492 757 401 628 443 b 436 500 451 496 443 499 b 338 476 414 496 393 492 b 260 443 310 468 283 457 b 81 221 185 406 96 333 b 364 0 57 78 136 0 b 728 229 581 0 701 76 "},"9":{"ha":844,"x_min":0,"x_max":0,"o":"m 750 499 b 406 436 654 457 539 436 b 128 726 182 436 94 532 b 515 1006 160 906 300 1006 b 800 667 738 1006 839 879 l 739 319 b 339 -19 700 93 567 -19 b 46 186 172 -19 75 49 b 51 193 46 190 47 192 l 60 196 b 65 192 64 197 65 196 b 342 0 92 64 183 0 b 718 319 553 0 683 108 m 779 667 b 515 986 817 868 725 986 b 147 721 311 986 176 889 b 410 456 115 542 199 456 b 754 521 536 456 650 478 "}," ":{"ha":356,"x_min":0,"x_max":0,"o":""},"!":{"ha":233,"x_min":0,"x_max":0,"o":"m 233 1028 b 238 1022 236 1028 238 1026 l 86 186 b 79 181 85 182 83 181 l 75 181 b 71 186 71 181 69 182 l 214 1022 b 221 1028 214 1026 217 1028 m 56 36 b 69 18 68 36 72 31 l 69 13 b 47 -6 67 0 60 -6 l 42 -6 b 28 13 26 -6 26 -3 l 28 18 b 50 36 31 31 38 36 "},"\"":{"ha":326,"x_min":0,"x_max":0,"o":"m 160 694 b 153 689 160 690 157 689 l 149 689 b 144 694 146 689 144 690 l 196 981 b 201 986 196 985 197 986 l 214 986 b 219 981 218 986 219 985 m 271 694 b 264 689 271 690 268 689 l 260 689 b 256 694 257 689 256 690 l 307 981 b 313 986 307 985 308 986 l 325 986 b 331 981 329 986 331 985 "},"#":{"ha":904,"x_min":0,"x_max":0,"o":"m 883 633 b 888 626 888 633 889 631 l 883 618 b 875 614 882 615 879 614 l 692 614 l 551 318 l 733 318 b 738 311 738 318 739 315 l 732 303 b 725 299 731 300 729 299 l 543 299 l 404 6 b 394 0 400 1 397 0 l 383 0 b 381 6 379 0 378 1 l 519 299 l 246 299 l 107 6 b 99 0 106 1 103 0 l 88 0 b 85 6 83 0 82 1 l 224 299 l 44 299 b 42 304 40 299 39 300 l 46 313 b 54 318 47 317 50 318 l 233 318 l 374 614 l 194 614 b 192 619 190 614 189 615 l 196 628 b 204 633 197 632 200 633 l 383 633 l 501 882 b 510 888 503 886 506 888 l 521 888 b 524 882 525 888 526 886 l 406 633 l 679 633 l 797 882 b 804 888 800 886 803 888 l 815 888 b 819 882 821 888 822 886 l 701 633 m 396 614 l 256 318 l 529 318 l 669 614 "},"$":{"ha":821,"x_min":0,"x_max":0,"o":"m 531 1101 b 535 1096 535 1101 536 1100 l 515 986 b 700 929 597 983 660 964 b 800 769 740 894 774 840 b 796 761 801 765 800 763 l 789 760 b 782 761 785 758 783 760 b 681 918 756 832 721 885 b 489 967 640 950 576 967 b 167 718 303 967 196 883 b 232 549 151 631 172 575 b 429 504 292 521 339 514 l 435 504 b 613 469 513 497 551 492 b 682 429 643 458 667 444 b 718 258 713 396 733 336 b 342 0 688 86 563 0 l 322 -110 b 315 -115 322 -114 319 -115 l 307 -115 b 303 -110 304 -115 303 -114 l 322 0 b 40 251 150 7 78 90 b 44 261 39 256 40 260 l 53 264 b 60 261 57 265 58 264 b 153 78 81 178 113 117 b 346 19 193 39 258 19 b 697 261 551 19 668 100 b 608 450 715 357 685 421 b 429 483 578 463 518 474 b 207 540 321 494 247 514 b 147 721 153 576 132 636 b 496 986 179 897 294 986 l 515 1096 b 522 1101 517 1100 518 1101 "},"%":{"ha":1113,"x_min":0,"x_max":0,"o":"m 140 808 b 381 1007 163 935 246 1007 b 554 800 514 1007 576 928 l 536 696 b 296 499 514 569 431 499 b 122 704 163 499 100 576 m 536 804 b 379 988 557 919 500 988 b 158 804 258 988 179 919 l 140 700 b 297 518 119 585 175 518 b 518 700 418 518 497 585 m 1040 986 b 1042 979 1046 986 1046 983 l 154 6 b 140 0 150 1 146 0 l 132 0 b 129 7 125 0 125 3 l 1018 981 b 1029 986 1021 985 1025 986 m 635 292 b 875 488 657 418 740 488 b 1050 281 1008 488 1072 408 l 1032 176 b 789 -21 1010 50 924 -21 b 617 188 656 -21 594 60 m 1031 285 b 874 468 1051 400 994 468 b 653 285 753 468 674 400 l 635 181 b 792 -1 614 65 671 -1 b 1013 181 914 -1 992 65 "},"&":{"ha":888,"x_min":0,"x_max":0,"o":"m 236 788 b 328 942 247 847 278 899 b 507 1006 376 985 436 1006 b 663 938 574 1006 625 983 b 700 781 699 892 711 840 b 615 628 688 715 660 664 b 393 513 569 592 496 553 l 379 507 l 654 193 l 781 296 b 789 296 785 297 788 297 l 796 289 b 794 281 797 288 797 285 l 667 178 l 822 7 b 818 0 825 3 824 0 l 806 0 b 794 6 801 0 797 1 l 653 167 b 424 17 556 90 479 40 b 254 -19 368 -7 311 -19 b 94 54 188 -19 135 6 b 51 229 54 103 39 161 b 161 417 67 311 100 372 b 344 515 221 461 263 482 b 236 788 265 606 219 683 m 679 783 b 644 925 689 838 678 885 b 503 986 611 965 564 986 b 340 926 440 986 386 967 b 256 783 294 886 265 838 b 303 600 244 713 275 636 b 364 524 315 582 336 556 l 385 532 b 579 624 483 569 547 600 b 679 783 633 664 667 717 m 360 499 b 161 393 274 467 207 431 b 72 226 115 356 85 300 b 110 65 61 163 74 108 b 257 0 144 22 194 0 b 417 36 311 0 364 13 b 639 181 469 60 543 107 "},"'":{"ha":215,"x_min":0,"x_max":0,"o":"m 160 694 b 153 689 160 690 157 689 l 149 689 b 144 694 146 689 144 690 l 196 981 b 201 986 196 985 197 986 l 214 986 b 219 981 218 986 219 985 "},"(":{"ha":306,"x_min":0,"x_max":0,"o":"m 186 849 b 431 1147 214 1006 288 1088 b 438 1146 433 1149 436 1149 l 439 1138 b 436 1131 440 1135 439 1132 b 206 849 303 1074 232 997 l 79 138 b 211 -144 53 -11 99 -87 b 213 -151 213 -146 214 -149 l 207 -160 b 200 -161 204 -162 201 -162 b 60 138 79 -101 33 -19 "},")":{"ha":306,"x_min":0,"x_max":0,"o":"m 147 1146 b 154 1147 149 1149 151 1149 b 293 849 272 1086 321 1006 l 167 138 b -75 -162 140 -19 65 -103 b -82 -161 -79 -164 -81 -164 l -86 -151 b -82 -144 -87 -149 -86 -146 b 147 138 51 -87 121 -11 l 274 849 b 143 1131 300 999 260 1075 b 140 1138 140 1132 139 1135 "},"*":{"ha":550,"x_min":0,"x_max":0,"o":"m 371 935 b 375 929 375 935 376 933 l 340 756 l 514 813 b 524 810 519 814 522 813 l 524 799 b 518 790 525 794 524 792 l 342 743 l 425 603 b 422 594 426 599 426 596 l 411 588 b 403 589 407 586 404 586 l 329 735 l 204 590 b 196 588 200 586 197 586 l 188 596 b 188 604 183 599 183 601 l 319 743 l 164 792 b 160 800 158 793 157 796 l 165 811 b 174 814 167 815 169 815 l 326 756 l 353 929 b 360 935 354 933 356 935 "},"+":{"ha":819,"x_min":0,"x_max":0,"o":"m 740 464 b 744 458 744 464 746 463 l 743 450 b 736 444 743 446 740 444 l 424 444 l 369 132 b 363 126 368 128 367 126 l 354 126 b 350 132 350 126 349 128 l 404 444 l 92 444 b 88 450 89 444 88 446 l 89 458 b 96 464 90 463 92 464 l 408 464 l 464 776 b 469 782 464 781 465 782 l 478 782 b 483 776 482 782 483 781 l 428 464 "},",":{"ha":188,"x_min":0,"x_max":0,"o":"m -51 -162 b -58 -168 -53 -167 -54 -168 l -64 -168 b -68 -162 -68 -168 -69 -167 l 28 39 b 42 49 31 46 35 49 l 50 49 b 56 39 57 49 60 46 "},"-":{"ha":600,"x_min":0,"x_max":0,"o":"m 494 379 b 499 374 499 379 500 378 l 497 365 b 492 360 497 361 496 360 l 89 360 b 83 365 85 360 83 361 l 85 374 b 92 379 86 378 88 379 "},".":{"ha":190,"x_min":0,"x_max":0,"o":"m 46 36 b 60 18 58 36 63 31 l 58 13 b 36 -6 56 0 49 -6 l 31 -6 b 17 13 15 -6 13 -3 l 18 18 b 40 36 21 31 28 36 "},"/":{"ha":526,"x_min":0,"x_max":0,"o":"m -7 -78 b -17 -83 -8 -82 -11 -83 l -26 -83 b -29 -78 -31 -83 -31 -82 l 550 981 b 558 986 551 985 554 986 l 568 986 b 572 981 572 986 574 985 "},":":{"ha":243,"x_min":0,"x_max":0,"o":"m 165 661 b 179 643 178 661 182 656 l 178 638 b 156 619 175 625 168 619 l 150 619 b 136 638 135 619 132 622 l 138 643 b 160 661 140 656 147 661 m 68 36 b 82 18 81 36 85 31 l 81 13 b 58 -6 78 0 71 -6 l 53 -6 b 39 13 38 -6 35 -3 l 40 18 b 63 36 43 31 50 36 "},";":{"ha":249,"x_min":0,"x_max":0,"o":"m 151 661 b 165 643 164 661 168 656 l 164 638 b 142 619 161 625 154 619 l 136 619 b 122 638 121 619 118 622 l 124 643 b 146 661 126 656 133 661 m -22 -162 b -29 -168 -24 -167 -25 -168 l -33 -168 b -37 -162 -37 -168 -39 -167 l 58 39 b 72 49 61 46 65 49 l 81 49 b 86 39 88 49 90 46 "},"<":{"ha":708,"x_min":0,"x_max":0,"o":"m 665 757 b 674 753 671 761 675 758 l 669 740 b 660 729 668 736 664 732 l 94 451 l 94 450 l 561 171 b 568 160 567 167 569 164 l 567 153 b 558 149 565 149 563 147 l 69 440 b 64 450 65 443 63 446 l 65 456 b 74 465 67 460 69 464 "},"=":{"ha":850,"x_min":0,"x_max":0,"o":"m 778 601 b 783 596 782 601 783 600 l 782 588 b 775 582 781 583 779 582 l 131 582 b 126 588 126 582 125 583 l 128 596 b 133 601 128 600 129 601 m 729 326 b 735 321 733 326 735 325 l 733 313 b 726 307 732 308 731 307 l 82 307 b 78 313 78 307 76 308 l 79 321 b 85 326 79 325 81 326 "},">":{"ha":707,"x_min":0,"x_max":0,"o":"m 156 753 b 164 757 157 757 160 758 l 653 465 b 658 456 657 463 660 460 l 657 450 b 649 440 656 446 653 442 l 57 149 b 49 153 51 144 47 147 l 53 164 b 63 175 54 168 58 172 l 628 453 l 629 454 l 161 733 b 154 744 156 738 153 740 "},"?":{"ha":763,"x_min":0,"x_max":0,"o":"m 115 799 b 494 1028 200 951 326 1028 b 715 947 593 1028 667 1001 b 767 743 764 893 782 825 b 669 540 751 658 719 590 b 522 428 618 489 588 467 b 453 383 490 408 468 393 b 397 336 438 374 419 357 b 314 176 351 293 326 243 b 308 171 313 172 311 171 l 300 171 b 294 176 296 171 294 172 b 381 346 307 249 333 301 b 440 397 404 368 424 385 b 514 444 457 408 482 424 b 656 550 582 485 603 499 b 746 743 704 599 733 661 b 701 933 760 819 744 882 b 496 1008 657 983 589 1008 b 135 793 333 1008 214 936 b 126 789 132 789 129 788 l 118 792 b 115 799 115 793 114 794 m 283 36 b 297 18 296 36 300 31 l 297 13 b 275 -6 294 0 288 -6 l 269 -6 b 256 13 254 -6 254 -3 l 256 18 b 278 36 258 31 265 36 "},"@":{"ha":1249,"x_min":0,"x_max":0,"o":"m 125 451 b 343 857 156 622 228 758 b 771 1006 458 956 600 1006 b 1150 856 946 1006 1072 956 b 1222 451 1228 754 1251 619 l 1207 358 b 1097 143 1190 264 1154 192 b 910 68 1040 93 978 68 b 847 131 864 68 843 89 b 571 68 768 89 675 68 b 376 290 414 68 350 147 l 417 517 b 689 742 440 660 533 742 b 919 700 781 742 857 728 b 956 633 954 683 963 671 l 869 142 b 913 88 863 106 878 88 b 1085 157 975 88 1032 111 b 1186 358 1136 203 1171 269 l 1201 451 b 1133 843 1231 617 1208 747 b 767 986 1058 939 936 986 b 356 843 604 986 467 939 b 146 451 244 747 175 617 l 131 358 b 564 -164 71 24 235 -164 b 714 -154 613 -164 663 -161 b 828 -133 764 -147 801 -140 l 867 -124 b 872 -125 871 -124 872 -124 l 871 -137 b 864 -144 869 -142 868 -143 b 561 -183 775 -171 674 -183 b 110 358 217 -183 49 10 m 908 683 b 686 722 854 710 781 722 b 438 517 544 722 461 654 l 397 290 b 574 88 374 156 433 88 b 808 131 672 88 771 114 b 851 154 826 139 842 147 l 935 633 b 908 683 940 663 935 671 "},"A":{"ha":861,"x_min":0,"x_max":0,"o":"m 778 6 b 771 0 778 1 775 0 l 765 0 b 757 6 760 0 757 1 l 674 363 l 182 363 l -26 6 b -37 0 -29 1 -33 0 l -46 0 b -50 6 -53 0 -54 1 l 522 988 b 533 994 525 992 529 994 l 542 994 b 550 988 547 994 550 992 m 538 953 b 535 969 538 954 535 964 l 533 969 b 526 953 531 961 528 956 l 193 382 l 671 382 "},"B":{"ha":883,"x_min":0,"x_max":0,"o":"m 624 986 b 835 742 785 986 863 899 b 635 507 813 614 746 536 l 635 506 b 783 254 753 482 810 386 b 475 0 751 89 642 0 l 54 0 b 50 6 50 0 49 1 l 222 981 b 228 986 222 985 224 986 m 725 572 b 814 742 771 611 801 668 b 785 910 826 815 817 872 b 622 967 751 947 697 967 l 240 967 l 160 514 l 542 514 b 725 572 617 514 678 533 m 763 258 b 561 494 789 408 715 494 l 157 494 l 74 19 l 478 19 b 763 258 633 19 735 103 "},"C":{"ha":876,"x_min":0,"x_max":0,"o":"m 163 671 b 583 1006 200 882 346 1006 b 901 760 796 1006 885 926 b 896 751 903 756 900 753 l 890 750 b 883 753 886 749 883 749 b 583 986 865 915 783 986 b 183 672 357 986 217 868 l 122 319 b 410 3 88 119 188 3 b 797 242 615 3 721 76 b 806 246 799 246 801 247 l 813 243 b 815 235 817 242 817 239 b 667 43 775 147 726 83 b 411 -19 607 1 521 -19 b 100 317 176 -19 63 107 "},"D":{"ha":886,"x_min":0,"x_max":0,"o":"m 501 986 b 839 617 757 986 879 846 l 794 364 b 328 0 754 136 583 0 l 54 0 b 50 6 50 0 49 1 l 222 981 b 228 986 222 985 224 986 m 819 619 b 499 967 857 838 743 967 l 240 967 l 74 19 l 332 19 b 775 367 576 19 736 149 "},"E":{"ha":785,"x_min":0,"x_max":0,"o":"m 801 986 b 807 981 806 986 807 985 l 804 972 b 799 967 804 968 803 967 l 240 967 l 160 510 l 660 510 b 664 504 664 510 665 508 l 663 496 b 656 490 661 492 660 490 l 156 490 l 74 19 l 653 19 b 657 14 656 19 657 18 l 656 6 b 649 0 654 1 653 0 l 54 0 b 50 6 50 0 49 1 l 222 981 b 228 986 222 985 224 986 "},"F":{"ha":769,"x_min":0,"x_max":0,"o":"m 801 986 b 807 981 806 986 807 985 l 804 972 b 799 967 804 968 803 967 l 240 967 l 157 494 l 647 494 b 651 489 651 494 653 493 l 650 481 b 643 475 650 476 647 475 l 153 475 l 71 6 b 64 0 69 1 68 0 l 54 0 b 50 6 50 0 49 1 l 222 981 b 228 986 222 985 224 986 "},"G":{"ha":899,"x_min":0,"x_max":0,"o":"m 853 479 b 858 472 857 479 860 476 l 831 318 b 411 -19 793 107 644 -19 b 100 318 174 -19 63 107 l 163 671 b 583 1006 200 882 346 1006 b 903 760 796 1006 886 925 b 897 751 903 756 901 753 l 890 750 b 883 753 886 749 883 749 b 583 986 865 915 783 986 b 183 672 356 986 218 871 l 122 319 b 411 0 88 118 183 0 b 811 319 632 0 776 119 l 835 460 l 503 460 b 499 465 500 460 499 461 l 500 474 b 507 479 501 478 503 479 "},"H":{"ha":942,"x_min":0,"x_max":0,"o":"m 914 986 b 919 981 918 986 919 985 l 747 6 b 740 0 746 1 744 0 l 731 0 b 726 6 726 0 725 1 l 811 490 l 156 490 l 71 6 b 64 0 69 1 68 0 l 54 0 b 50 6 50 0 49 1 l 222 981 b 228 986 222 985 224 986 l 238 986 b 243 981 242 986 243 985 l 160 510 l 815 510 l 899 981 b 904 986 899 985 900 986 "},"I":{"ha":265,"x_min":0,"x_max":0,"o":"m 222 981 b 228 986 222 985 224 986 l 238 986 b 243 981 242 986 243 985 l 71 6 b 64 0 69 1 68 0 l 54 0 b 50 6 50 0 49 1 "},"J":{"ha":781,"x_min":0,"x_max":0,"o":"m 767 986 b 772 981 771 986 774 985 l 650 288 b 281 -21 617 94 482 -21 b 13 269 97 -21 8 76 b 17 278 13 274 14 276 l 26 281 b 33 276 31 282 35 281 b 282 0 29 94 103 0 b 629 292 471 0 596 110 l 751 981 b 757 986 751 985 753 986 "},"K":{"ha":817,"x_min":0,"x_max":0,"o":"m 715 7 b 710 0 717 3 715 0 l 704 0 b 694 6 699 0 696 1 l 583 344 b 381 490 549 449 501 490 l 156 490 l 71 6 b 64 0 69 1 68 0 l 54 0 b 50 6 50 0 49 1 l 222 981 b 228 986 222 985 224 986 l 238 986 b 243 981 242 986 243 985 l 160 510 l 378 510 b 419 508 396 510 410 510 l 849 981 b 861 986 851 985 856 986 l 871 986 b 874 979 878 986 878 983 l 442 504 b 601 356 529 489 574 440 "},"L":{"ha":699,"x_min":0,"x_max":0,"o":"m 238 986 b 243 981 242 986 243 985 l 74 19 l 621 19 b 625 14 624 19 625 18 l 624 6 b 617 0 622 1 621 0 l 54 0 b 50 6 50 0 49 1 l 222 981 b 228 986 222 985 224 986 "},"M":{"ha":1099,"x_min":0,"x_max":0,"o":"m 1071 986 b 1076 981 1075 986 1076 985 l 904 6 b 897 0 903 1 901 0 l 888 0 b 883 6 883 0 882 1 l 1011 728 l 1050 942 l 1049 942 l 918 767 l 536 249 b 525 242 532 244 529 242 l 517 242 b 507 249 511 242 508 244 l 303 774 l 238 943 l 236 943 l 197 728 l 71 6 b 64 0 69 1 68 0 l 54 0 b 50 6 50 0 49 1 l 222 981 b 228 986 222 985 224 986 l 235 986 b 243 979 239 986 242 983 l 524 267 l 1049 978 b 1061 986 1053 983 1057 986 "},"N":{"ha":951,"x_min":0,"x_max":0,"o":"m 924 986 b 929 981 928 986 929 985 l 757 6 b 750 0 756 1 754 0 l 742 0 b 733 6 738 0 735 1 l 321 788 b 285 860 317 797 304 821 b 238 947 264 897 249 926 l 236 947 b 200 738 221 863 208 792 l 71 6 b 64 0 69 1 68 0 l 54 0 b 50 6 50 0 49 1 l 222 981 b 228 986 222 985 224 986 l 233 986 l 242 982 l 643 224 l 742 40 l 743 40 l 783 278 l 908 982 b 914 986 908 985 910 986 "},"O":{"ha":917,"x_min":0,"x_max":0,"o":"m 167 674 b 590 1006 204 885 353 1006 b 897 665 825 1006 936 876 l 835 313 b 415 -19 797 101 650 -19 b 104 321 178 -19 65 110 m 876 668 b 589 986 911 868 810 986 b 188 668 365 986 222 872 l 125 318 b 415 0 90 118 192 0 b 814 318 636 0 779 118 "},"P":{"ha":850,"x_min":0,"x_max":0,"o":"m 604 986 b 850 685 788 986 885 868 b 501 400 815 503 686 400 l 140 400 l 71 6 b 64 0 69 1 68 0 l 54 0 b 50 6 50 0 49 1 l 222 981 b 228 986 222 985 224 986 m 503 419 b 831 692 676 419 801 521 b 600 967 860 864 774 967 l 240 967 l 143 419 "},"Q":{"ha":931,"x_min":0,"x_max":0,"o":"m 167 674 b 590 1006 204 885 353 1006 b 897 665 825 1006 936 876 l 835 313 b 700 68 817 207 771 125 l 785 -60 b 783 -68 788 -62 788 -65 l 776 -74 b 768 -74 772 -76 769 -76 l 682 54 b 415 -19 611 6 522 -19 b 104 321 178 -19 65 110 m 589 986 b 188 668 365 986 222 872 l 125 318 b 415 0 90 118 192 0 b 814 318 636 0 779 118 l 876 668 b 589 986 911 868 810 986 "},"R":{"ha":879,"x_min":0,"x_max":0,"o":"m 632 986 b 854 715 803 986 883 886 b 540 456 826 550 707 460 b 658 321 596 435 635 389 l 761 7 b 756 0 763 3 761 0 l 749 0 b 739 6 743 0 740 1 l 638 310 b 429 456 604 411 550 456 l 150 456 l 71 6 b 64 0 69 1 68 0 l 54 0 b 50 6 50 0 49 1 l 222 981 b 228 986 222 985 224 986 m 835 719 b 628 967 863 876 788 967 l 240 967 l 153 475 l 540 475 b 835 719 697 475 807 564 "},"S":{"ha":846,"x_min":0,"x_max":0,"o":"m 143 757 b 521 1006 172 919 310 1006 b 832 793 694 1006 788 932 b 828 785 833 789 832 786 l 824 782 b 815 783 819 781 817 782 b 518 985 772 917 685 985 b 163 753 319 985 189 903 b 238 564 146 663 172 599 b 457 504 303 529 361 515 b 643 464 536 494 582 489 b 714 419 674 451 697 436 b 753 243 747 385 768 322 b 356 -19 721 65 593 -19 b 25 229 171 -19 65 58 b 29 239 24 233 25 238 l 38 242 b 44 239 42 243 43 242 b 356 1 88 72 182 1 b 733 247 579 1 704 83 b 628 447 746 363 713 417 b 450 483 567 469 529 474 b 221 550 351 496 288 511 b 143 757 154 589 126 658 "},"T":{"ha":717,"x_min":0,"x_max":0,"o":"m 793 986 b 799 981 797 986 799 985 l 796 972 b 790 967 796 968 794 967 l 464 967 l 294 6 b 288 0 293 1 292 0 l 278 0 b 274 6 274 0 272 1 l 443 967 l 117 967 b 111 972 113 967 111 968 l 114 981 b 119 986 114 985 115 986 "},"U":{"ha":942,"x_min":0,"x_max":0,"o":"m 149 332 b 426 -1 114 125 204 -1 b 821 332 649 -1 786 125 l 936 981 b 942 986 936 985 938 986 l 951 986 b 957 981 956 986 958 985 l 842 328 b 425 -21 803 107 660 -21 b 128 335 190 -21 89 114 l 243 981 b 249 986 244 985 246 986 l 258 986 b 264 981 263 986 264 985 "},"V":{"ha":835,"x_min":0,"x_max":0,"o":"m 917 986 b 919 981 921 986 921 985 l 361 7 b 350 0 358 3 354 0 l 342 0 b 333 7 336 0 333 3 l 119 981 b 124 986 118 985 119 986 l 133 986 b 142 981 138 986 140 985 l 333 101 l 350 29 l 351 29 b 392 101 361 44 382 85 l 896 981 b 904 986 899 985 901 986 "},"W":{"ha":1190,"x_min":0,"x_max":0,"o":"m 1253 986 b 1257 981 1257 986 1258 985 l 815 7 b 804 0 814 3 810 0 l 796 0 b 788 7 790 0 788 3 l 700 810 b 696 857 700 811 699 828 b 688 924 692 886 689 908 l 686 924 l 633 810 l 260 7 b 249 0 258 3 254 0 l 240 0 b 232 7 235 0 232 3 l 135 981 b 139 986 133 985 135 986 l 149 986 b 157 981 153 986 156 985 l 239 143 b 249 33 242 121 244 85 l 250 33 l 300 142 l 678 953 b 688 958 681 957 683 958 l 697 958 b 704 953 701 958 704 957 l 793 139 b 804 33 794 117 803 57 l 806 33 b 850 138 826 79 840 114 l 1235 981 b 1243 986 1236 985 1239 986 "},"X":{"ha":825,"x_min":0,"x_max":0,"o":"m 897 986 b 901 981 901 986 903 985 l 449 499 l 738 10 b 735 0 742 3 742 0 l 724 0 b 715 6 719 0 717 1 l 433 482 l -14 6 b -25 0 -18 1 -21 0 l -40 0 b -40 10 -44 0 -44 3 l 422 501 l 140 981 b 144 986 139 985 140 986 l 156 986 b 165 981 160 986 163 985 l 438 518 l 872 981 b 882 986 875 985 878 986 "},"Y":{"ha":842,"x_min":0,"x_max":0,"o":"m 919 986 b 924 981 924 986 925 985 l 432 411 l 361 6 b 354 0 360 1 358 0 l 344 0 b 340 6 340 0 339 1 l 411 413 l 124 981 b 128 986 122 985 124 986 l 139 986 b 149 981 143 986 146 985 l 425 433 l 896 981 b 906 986 899 985 901 986 "},"Z":{"ha":740,"x_min":0,"x_max":0,"o":"m 786 986 b 792 981 790 986 792 985 l 790 975 b 785 964 789 971 788 967 l -7 21 l 636 21 b 640 15 640 21 642 19 l 639 6 b 632 0 638 1 636 0 l -31 0 b -35 6 -35 0 -36 1 l -33 13 b -28 26 -33 17 -32 22 l 763 967 l 146 967 b 140 972 142 967 140 968 l 143 981 b 149 986 143 985 144 986 "},"[":{"ha":328,"x_min":0,"x_max":0,"o":"m 450 1189 b 454 1183 454 1189 456 1188 l 453 1175 b 447 1169 453 1171 451 1169 l 257 1169 l 18 -183 l 208 -183 b 213 -189 213 -183 214 -185 l 211 -197 b 204 -203 210 -201 208 -203 l -1 -203 b -6 -197 -6 -203 -7 -201 l 238 1183 b 244 1189 239 1188 240 1189 "},"\\":{"ha":517,"x_min":0,"x_max":0,"o":"m 153 981 b 157 986 151 985 153 986 l 168 986 b 176 981 172 986 175 985 l 381 -78 b 375 -83 382 -82 381 -83 l 364 -83 b 357 -78 360 -83 358 -82 "},"]":{"ha":326,"x_min":0,"x_max":0,"o":"m 358 1189 b 363 1183 363 1189 364 1188 l 119 -197 b 113 -203 118 -201 117 -203 l -93 -203 b -97 -197 -97 -203 -99 -201 l -96 -189 b -89 -183 -94 -185 -93 -183 l 101 -183 l 340 1169 l 150 1169 b 144 1175 146 1169 144 1171 l 146 1183 b 153 1189 147 1188 149 1189 "},"^":{"ha":825,"x_min":0,"x_max":0,"o":"m 550 1125 b 557 1121 554 1125 556 1124 l 811 731 b 807 722 814 725 813 722 l 797 722 b 785 728 793 722 789 724 l 546 1100 l 543 1100 l 176 728 b 164 722 174 724 169 722 l 151 722 b 150 731 144 722 144 725 l 535 1121 b 544 1125 538 1124 540 1125 "},"_":{"ha":717,"x_min":0,"x_max":0,"o":"m 593 0 b 597 -6 597 0 599 -1 l 596 -14 b 590 -19 596 -18 594 -19 l -26 -19 b -32 -14 -31 -19 -32 -18 l -31 -6 b -24 0 -29 -1 -28 0 "},"`":{"ha":357,"x_min":0,"x_max":0,"o":"m 164 999 b 176 1000 168 1003 172 1003 l 393 840 b 393 832 396 838 396 835 l 392 831 b 382 829 388 826 385 826 l 163 988 b 163 997 158 990 158 993 "},"a":{"ha":731,"x_min":0,"x_max":0,"o":"m 114 472 b 440 728 143 650 244 728 b 650 689 522 728 593 715 b 693 613 693 671 700 657 l 593 43 b 579 31 592 39 588 35 b 285 -19 492 -3 393 -19 b 76 264 111 -19 44 92 m 640 671 b 438 710 583 697 515 710 b 133 472 256 710 163 640 l 96 264 b 288 -1 67 101 126 -1 b 574 49 397 -1 493 15 l 674 613 b 640 671 679 650 675 654 "},"b":{"ha":738,"x_min":0,"x_max":0,"o":"m 228 1028 b 232 1022 231 1028 232 1026 l 168 664 b 457 728 264 707 360 728 b 669 461 631 728 701 639 l 632 253 b 301 -19 601 71 492 -19 b 92 19 219 -19 149 -7 b 49 96 49 38 42 51 l 213 1022 b 219 1028 213 1026 215 1028 m 650 464 b 454 710 679 628 614 710 b 165 643 358 710 261 688 l 68 96 b 101 38 63 58 67 54 b 304 -1 158 11 226 -1 b 613 256 481 -1 583 85 "},"c":{"ha":708,"x_min":0,"x_max":0,"o":"m 110 468 b 442 728 139 633 254 728 b 690 533 607 728 674 660 b 686 525 692 528 690 525 l 679 524 b 672 526 675 522 672 524 b 439 708 656 650 593 708 b 129 465 265 708 157 617 l 90 244 b 314 0 64 93 143 0 b 618 193 465 0 557 60 b 625 197 619 197 621 199 l 635 194 b 636 188 636 193 638 192 b 313 -19 574 47 472 -19 b 71 247 129 -19 42 81 "},"d":{"ha":736,"x_min":0,"x_max":0,"o":"m 135 464 b 439 728 167 640 268 728 b 706 665 540 728 629 707 l 769 1022 b 776 1028 769 1026 772 1028 l 785 1028 b 789 1022 788 1028 789 1026 l 625 96 b 557 19 618 51 606 38 b 333 -19 489 -7 415 -19 b 97 256 144 -19 65 72 m 703 644 b 436 710 629 688 540 710 b 154 464 278 710 183 628 l 117 256 b 336 -1 88 85 160 -1 b 553 38 415 -1 488 11 b 606 96 593 54 599 58 "},"e":{"ha":714,"x_min":0,"x_max":0,"o":"m 104 444 b 444 728 136 624 261 728 b 688 494 633 728 726 643 b 376 310 658 372 544 310 b 104 339 278 310 186 319 l 88 246 b 306 -1 60 90 133 -1 b 603 149 446 -1 532 50 b 611 151 604 153 607 153 l 618 147 b 618 140 619 146 619 144 b 303 -19 543 33 438 -19 b 68 246 118 -19 39 79 m 668 499 b 442 710 706 636 618 710 b 122 442 271 710 151 610 l 107 358 b 381 328 186 338 276 328 b 668 499 543 328 639 385 "},"f":{"ha":458,"x_min":0,"x_max":0,"o":"m 547 1028 b 551 1022 551 1028 553 1026 l 550 1015 b 543 1010 549 1011 547 1010 b 342 961 447 1010 381 993 b 257 767 301 929 274 864 l 247 708 l 494 708 b 499 703 499 708 500 707 l 497 696 b 492 690 497 692 496 690 l 244 690 l 124 6 b 117 0 122 1 121 0 l 108 0 b 104 6 104 0 103 1 l 225 690 l 57 690 b 51 696 53 690 51 692 l 53 703 b 60 708 54 707 56 708 l 228 708 l 238 767 b 329 972 256 868 286 936 b 539 1028 372 1008 442 1026 "},"g":{"ha":738,"x_min":0,"x_max":0,"o":"m 90 457 b 421 728 121 638 231 728 b 631 689 503 728 574 715 b 674 613 674 671 681 657 l 554 -62 b 221 -361 519 -261 408 -361 b -11 -194 99 -361 21 -306 b -7 -186 -12 -190 -11 -187 l 0 -183 b 7 -186 3 -182 6 -182 b 225 -342 36 -287 96 -342 b 535 -62 399 -342 501 -249 l 553 42 b 265 -19 465 1 369 -19 b 53 247 89 -19 24 79 m 621 671 b 418 710 564 697 496 710 b 110 457 239 710 142 628 l 72 247 b 268 -1 43 82 108 -1 b 557 64 374 -1 469 21 l 654 613 b 621 671 660 650 656 654 "},"h":{"ha":757,"x_min":0,"x_max":0,"o":"m 228 1028 b 232 1022 231 1028 232 1026 l 169 668 b 454 728 263 708 357 728 b 669 464 628 728 700 640 l 589 6 b 582 0 588 1 586 0 l 574 0 b 569 6 569 0 568 1 l 650 463 b 451 710 679 628 613 710 b 165 647 353 710 258 689 l 53 6 b 46 0 51 1 50 0 l 38 0 b 33 6 33 0 32 1 l 213 1022 b 219 1028 213 1026 215 1028 "},"i":{"ha":228,"x_min":0,"x_max":0,"o":"m 211 949 b 225 932 224 949 228 943 l 225 926 b 206 910 222 915 215 910 l 200 910 b 186 926 188 910 185 914 l 186 932 b 206 949 189 943 196 949 m 171 708 b 175 703 175 708 176 707 l 53 6 b 46 0 51 1 50 0 l 38 0 b 33 6 33 0 32 1 l 156 703 b 163 708 157 707 158 708 "},"j":{"ha":228,"x_min":0,"x_max":0,"o":"m 210 949 b 224 932 222 949 226 943 l 224 926 b 204 910 221 915 214 910 l 199 910 b 185 926 186 910 183 914 l 185 932 b 204 949 188 943 194 949 m 169 708 b 174 703 174 708 175 707 l 47 -14 b -264 -319 10 -221 -71 -319 b -268 -314 -267 -319 -268 -318 l -267 -306 b -260 -300 -265 -301 -264 -300 b 28 -15 -81 -300 -6 -210 l 154 703 b 161 708 156 707 157 708 "},"k":{"ha":678,"x_min":0,"x_max":0,"o":"m 574 6 b 569 0 574 1 572 0 l 560 0 b 553 4 556 0 553 1 l 471 256 b 329 357 447 329 413 357 l 114 357 l 53 6 b 46 0 51 1 50 0 l 38 0 b 33 6 33 0 32 1 l 213 1022 b 219 1028 213 1026 215 1028 l 228 1028 b 232 1022 231 1028 232 1026 l 118 375 l 329 375 l 344 375 l 663 703 b 676 708 667 707 671 708 l 683 708 b 686 701 690 708 690 706 l 368 372 b 490 264 435 365 468 331 "},"l":{"ha":239,"x_min":0,"x_max":0,"o":"m 58 6 b 51 0 57 1 56 0 l 43 0 b 39 6 39 0 38 1 l 218 1022 b 225 1028 218 1026 221 1028 l 233 1028 b 238 1022 236 1028 238 1026 "},"m":{"ha":1118,"x_min":0,"x_max":0,"o":"m 571 654 b 842 728 650 703 740 728 b 1032 478 999 728 1061 644 l 949 6 b 942 0 947 1 946 0 l 933 0 b 929 6 929 0 928 1 l 1013 476 b 839 710 1040 638 988 710 b 579 639 743 710 656 686 b 592 478 599 601 603 547 l 508 6 b 501 0 507 1 506 0 l 493 0 b 489 6 489 0 488 1 l 572 476 b 392 710 600 636 542 710 b 201 669 321 710 258 696 b 154 608 175 657 158 638 l 49 6 b 42 0 47 1 46 0 l 33 0 b 29 6 29 0 28 1 l 135 608 b 200 688 142 649 157 667 b 394 728 261 714 326 728 b 571 654 482 728 540 703 "},"n":{"ha":753,"x_min":0,"x_max":0,"o":"m 200 683 b 450 728 276 713 360 728 b 665 464 625 728 697 640 l 585 6 b 578 0 583 1 582 0 l 569 0 b 565 6 565 0 564 1 l 646 463 b 447 710 675 628 608 710 b 200 665 357 710 275 694 b 154 608 174 654 158 635 l 49 6 b 42 0 47 1 46 0 l 33 0 b 29 6 29 0 28 1 l 135 608 b 200 683 144 651 156 665 "},"o":{"ha":743,"x_min":0,"x_max":0,"o":"m 114 497 b 222 665 126 568 163 624 b 442 728 282 707 356 728 b 693 497 618 728 717 640 l 643 211 b 315 -19 619 68 489 -19 b 64 211 142 -19 40 71 m 674 499 b 440 710 697 626 603 710 b 133 499 281 710 157 626 l 83 210 b 315 -1 60 82 156 -1 b 624 210 478 -1 600 82 "},"p":{"ha":736,"x_min":0,"x_max":0,"o":"m 204 689 b 428 728 272 715 346 728 b 664 453 617 728 696 636 l 626 243 b 322 -19 594 68 493 -19 b 57 54 222 -19 133 6 l -6 -300 b -12 -306 -7 -304 -8 -306 l -21 -306 b -25 -300 -25 -306 -26 -304 l 136 613 b 204 689 143 657 156 671 m 644 453 b 425 710 674 624 601 710 b 208 671 346 710 274 697 b 156 613 165 654 161 647 l 61 76 b 325 -1 138 25 225 -1 b 607 243 485 -1 578 81 "},"q":{"ha":739,"x_min":0,"x_max":0,"o":"m 467 728 b 676 689 549 728 619 715 b 719 613 719 671 726 657 l 558 -300 b 551 -306 557 -304 556 -306 l 543 -306 b 539 -300 539 -306 538 -304 l 601 54 b 311 -19 507 6 410 -19 b 99 243 138 -19 67 68 l 136 453 b 467 728 168 636 278 728 m 118 243 b 314 -1 89 81 154 -1 b 606 76 415 -1 513 25 l 700 613 b 667 671 706 650 701 654 b 464 710 610 697 542 710 b 156 453 288 710 185 624 "},"r":{"ha":458,"x_min":0,"x_max":0,"o":"m 450 728 l 492 728 b 497 722 496 728 497 726 l 496 715 b 489 710 494 711 493 710 l 447 710 b 200 665 357 710 275 694 b 154 608 174 654 158 635 l 49 6 b 42 0 47 1 46 0 l 33 0 b 29 6 29 0 28 1 l 135 608 b 200 683 144 651 156 665 b 450 728 276 713 360 728 "},"s":{"ha":674,"x_min":0,"x_max":0,"o":"m 97 538 b 388 728 121 664 217 728 b 631 575 531 728 611 676 b 628 567 632 571 631 568 l 622 564 b 614 567 618 563 615 563 b 386 710 593 661 532 710 b 117 535 231 710 138 647 b 165 396 101 458 126 418 b 221 375 175 388 208 379 b 257 369 228 374 239 371 b 332 361 290 364 293 365 b 347 360 339 360 343 360 b 518 317 425 353 471 343 b 569 169 565 290 582 242 b 269 -19 547 43 447 -19 b 10 158 121 -19 36 31 b 14 167 10 163 11 165 l 22 169 b 28 167 26 171 28 169 b 271 -1 50 46 131 -1 b 550 172 436 -1 529 57 b 501 304 561 238 546 281 b 342 342 457 326 418 335 b 160 378 250 351 189 363 b 97 538 104 404 83 458 "},"t":{"ha":442,"x_min":0,"x_max":0,"o":"m 268 875 b 272 869 272 875 274 874 l 244 708 l 490 708 b 494 703 494 708 496 707 l 493 696 b 488 690 493 692 492 690 l 242 690 l 163 240 b 179 47 146 143 151 79 b 363 0 206 15 267 0 b 367 -6 367 0 368 -1 l 365 -14 b 360 -19 365 -18 364 -19 b 163 35 260 -19 194 -1 b 143 240 131 69 125 139 l 222 690 l 51 690 b 46 696 47 690 46 692 l 47 703 b 54 708 49 707 50 708 l 225 708 l 253 869 b 260 875 254 874 256 875 "},"u":{"ha":754,"x_min":0,"x_max":0,"o":"m 747 708 b 751 703 751 708 753 707 l 646 100 b 581 25 636 57 625 43 b 331 -19 504 -4 421 -19 b 115 244 156 -19 83 68 l 196 703 b 203 708 197 707 199 708 l 211 708 b 215 703 215 708 217 707 l 135 246 b 332 -1 106 81 172 -1 b 581 43 422 -1 506 14 b 626 100 607 54 622 74 l 732 703 b 739 708 733 707 735 708 "},"v":{"ha":676,"x_min":0,"x_max":0,"o":"m 703 708 b 706 703 707 708 708 707 l 279 0 b 268 -7 275 -4 272 -7 l 263 -7 b 254 0 258 -7 256 -4 l 75 701 b 81 708 74 706 76 708 l 89 708 b 94 701 92 708 93 706 l 246 108 b 268 18 251 88 264 39 l 269 18 l 324 107 l 683 703 b 694 708 686 707 690 708 "},"w":{"ha":1006,"x_min":0,"x_max":0,"o":"m 1019 708 b 1022 701 1024 708 1025 706 l 672 -1 b 664 -8 669 -6 667 -8 l 654 -8 b 647 -1 650 -8 647 -6 l 560 558 b 546 650 554 599 550 629 l 544 650 b 497 558 536 631 503 568 l 210 -1 b 201 -8 207 -6 204 -8 l 192 -8 b 186 -1 189 -8 188 -6 l 85 701 b 90 708 85 706 86 708 l 99 708 b 104 701 103 708 104 706 l 185 140 l 201 25 l 203 25 l 263 143 l 538 675 b 546 681 539 679 542 681 l 553 681 b 560 675 557 681 558 679 l 643 150 b 663 25 653 94 658 53 l 664 25 l 725 147 l 1001 703 b 1011 708 1003 707 1007 708 "},"x":{"ha":639,"x_min":0,"x_max":0,"o":"m 656 708 b 657 704 660 708 661 707 l 325 363 l 549 4 b 544 0 549 1 547 0 l 532 0 b 526 4 531 0 528 1 l 313 350 l -21 4 b -31 0 -25 1 -28 0 l -44 0 b -46 4 -49 0 -49 1 l 303 365 l 90 704 b 96 708 90 707 92 708 l 106 708 b 113 704 110 708 111 707 l 317 378 l 632 704 b 642 708 636 707 639 708 "},"y":{"ha":758,"x_min":0,"x_max":0,"o":"m 701 708 b 706 703 706 708 707 707 l 571 -62 b 235 -361 536 -261 424 -361 b 0 -194 111 -361 32 -306 b 4 -186 -1 -190 0 -187 l 11 -183 b 18 -186 15 -182 18 -182 b 239 -342 50 -286 110 -342 b 551 -62 414 -342 518 -249 l 569 38 b 285 -19 465 0 371 -19 b 69 244 110 -19 38 68 l 150 703 b 157 708 151 707 153 708 l 165 708 b 169 703 169 708 171 707 l 89 246 b 288 -1 61 81 117 -1 b 572 57 376 -1 471 18 l 686 703 b 693 708 688 707 689 708 "},"z":{"ha":596,"x_min":0,"x_max":0,"o":"m 486 18 b 490 13 489 18 490 17 l 489 6 b 483 0 488 1 486 0 l -29 0 b -33 6 -33 0 -35 1 l -32 13 b -26 22 -32 15 -31 18 l 581 690 l 97 690 b 93 696 94 690 93 692 l 94 703 b 100 708 96 707 97 708 l 601 708 b 606 703 606 708 607 707 l 604 696 b 599 685 604 694 603 690 l -7 18 "},"{":{"ha":396,"x_min":0,"x_max":0,"o":"m 518 1189 b 522 1183 522 1189 524 1188 l 521 1175 b 515 1169 521 1171 519 1169 l 457 1169 b 289 1018 356 1169 307 1122 l 225 654 b 108 492 210 565 171 511 b 168 332 163 472 183 419 l 104 -33 b 218 -185 86 -137 117 -185 l 276 -185 b 281 -190 279 -185 281 -186 l 279 -199 b 272 -204 278 -203 276 -204 l 214 -204 b 83 -33 97 -204 63 -151 l 147 332 b 33 483 168 442 138 483 l 17 483 b 13 489 14 483 13 485 l 14 497 b 21 503 15 501 17 503 l 38 503 b 204 654 139 503 186 550 l 268 1018 b 460 1189 290 1136 344 1189 "},"|":{"ha":219,"x_min":0,"x_max":0,"o":"m 251 1189 b 256 1183 256 1189 257 1188 l 13 -199 b 6 -204 11 -203 10 -204 l -1 -204 b -6 -199 -6 -204 -7 -203 l 238 1183 b 244 1189 239 1188 240 1189 "},"}":{"ha":396,"x_min":0,"x_max":0,"o":"m 210 1189 b 340 1018 326 1189 361 1136 l 276 654 b 390 503 258 550 289 503 l 407 503 b 411 497 411 503 413 501 l 410 489 b 403 483 410 485 407 483 l 386 483 b 219 332 285 483 238 436 l 156 -33 b -36 -204 133 -151 79 -204 l -94 -204 b -99 -199 -99 -204 -100 -203 l -97 -190 b -90 -185 -97 -186 -94 -185 l -32 -185 b 135 -33 69 -185 117 -137 l 199 332 b 315 494 214 421 253 475 b 256 654 261 514 240 567 l 319 1018 b 207 1169 338 1122 308 1169 l 149 1169 b 143 1175 144 1169 143 1171 l 144 1183 b 151 1189 146 1188 147 1189 "},"~":{"ha":782,"x_min":0,"x_max":0,"o":"m 99 418 b 268 488 158 464 215 488 b 401 454 306 488 350 476 b 528 421 451 432 493 421 b 686 485 579 421 632 442 b 694 485 689 488 692 488 l 699 479 b 697 471 701 476 701 474 b 526 401 638 425 581 401 b 393 435 489 401 444 413 b 265 468 342 457 300 468 b 110 404 217 468 164 447 b 101 404 107 401 104 401 l 97 410 b 99 418 96 413 96 415 "},"¡":{"ha":217,"x_min":0,"x_max":0,"o":"m 147 667 b 133 685 135 667 131 672 l 133 690 b 156 708 136 703 143 708 l 161 708 b 175 690 176 708 176 706 l 175 685 b 153 667 172 672 165 667 m -31 -325 b -35 -319 -33 -325 -35 -324 l 117 517 b 124 522 118 521 119 522 l 128 522 b 132 517 132 522 133 521 l -11 -319 b -18 -325 -11 -324 -14 -325 "},"¢":{"ha":735,"x_min":0,"x_max":0,"o":"m 638 194 b 639 188 639 193 640 192 b 324 -19 578 53 472 -17 l 307 -111 b 300 -117 306 -115 304 -117 l 290 -117 b 286 -111 286 -117 285 -115 l 303 -19 b 75 250 129 -15 47 88 l 114 471 b 433 728 142 631 254 724 l 454 842 b 461 847 454 846 457 847 l 471 847 b 475 842 474 847 475 846 l 454 728 b 694 535 615 726 682 661 b 690 526 694 531 693 528 l 682 524 b 675 526 678 522 676 524 b 442 708 660 656 599 708 b 132 465 268 708 160 617 l 93 244 b 317 0 67 93 146 0 b 621 193 468 0 560 60 b 628 197 622 197 624 199 "},"£":{"ha":865,"x_min":0,"x_max":0,"o":"m 288 768 b 603 1006 311 911 414 1006 b 854 788 749 1006 828 947 b 849 781 854 783 853 782 l 843 778 b 835 782 839 776 836 778 b 599 986 808 936 739 986 b 308 768 425 986 331 900 l 257 481 l 674 481 b 678 475 678 481 679 479 l 676 467 b 671 461 676 463 675 461 l 254 461 l 203 172 b 107 21 190 104 158 53 l 107 19 l 247 19 l 718 19 b 722 14 721 19 722 18 l 721 6 b 714 0 719 1 718 0 l -7 0 b -11 6 -11 0 -12 1 l -10 14 b -3 19 -10 18 -7 19 l 35 19 b 135 68 75 19 108 36 b 182 172 160 100 175 135 l 233 461 l 94 461 b 89 467 90 461 89 463 l 90 475 b 97 481 92 479 93 481 l 236 481 "},"¤":{"ha":814,"x_min":0,"x_max":0,"o":"m 243 697 b 472 782 314 754 390 782 b 674 699 553 782 619 754 l 771 781 b 779 781 774 783 776 783 l 783 775 b 782 767 786 772 786 769 l 685 685 b 735 467 733 622 750 550 b 615 251 721 386 681 314 l 682 171 b 681 163 683 168 683 165 l 674 157 b 665 157 671 154 668 154 l 599 238 b 367 151 526 181 449 151 b 165 236 285 151 217 179 l 68 153 b 60 153 65 150 63 150 l 56 158 b 57 167 53 160 53 163 l 156 250 b 104 467 107 311 90 383 b 226 683 119 549 160 621 l 160 764 b 161 772 158 765 158 768 l 168 778 b 176 778 171 781 174 781 m 713 468 b 665 675 728 550 711 618 b 471 760 618 732 553 760 b 249 675 389 760 314 732 b 126 468 182 618 142 550 b 176 260 113 386 129 317 b 368 172 222 201 286 172 b 592 260 450 172 524 201 b 713 468 658 317 699 386 "},"¥":{"ha":867,"x_min":0,"x_max":0,"o":"m 910 986 b 914 981 914 986 915 985 l 454 453 l 696 453 b 700 447 699 453 700 451 l 699 440 b 692 435 697 436 696 435 l 440 435 l 410 257 l 661 257 b 665 251 664 257 665 256 l 664 244 b 657 239 664 240 661 239 l 406 239 l 365 6 b 358 0 364 1 363 0 l 349 0 b 344 6 344 0 343 1 l 385 239 l 131 239 b 126 244 128 239 126 240 l 128 251 b 135 257 128 256 131 257 l 389 257 l 419 435 l 165 435 b 161 440 161 435 160 436 l 163 447 b 169 453 163 451 165 453 l 413 453 l 142 981 b 146 986 140 985 142 986 l 157 986 b 167 981 161 986 164 985 l 433 460 l 886 981 b 896 986 889 985 892 986 "},"¦":{"ha":236,"x_min":0,"x_max":0,"o":"m 260 1189 b 264 1183 264 1189 265 1188 l 163 604 b 156 599 161 600 160 599 l 149 599 b 144 604 144 599 143 600 l 246 1183 b 253 1189 247 1188 249 1189 m 118 388 b 124 382 122 388 124 386 l 21 -197 b 14 -203 19 -201 18 -203 l 7 -203 b 3 -197 3 -203 1 -201 l 106 382 b 111 388 106 386 107 388 "},"§":{"ha":810,"x_min":0,"x_max":0,"o":"m 154 793 b 500 1017 181 942 296 1017 b 790 782 667 1017 764 939 b 785 775 792 779 789 776 l 778 772 b 769 776 774 771 771 772 b 497 997 743 924 653 997 b 175 788 303 997 199 917 b 278 604 164 678 194 631 b 354 586 307 594 333 589 b 444 575 375 582 404 579 b 646 521 532 565 589 553 b 713 349 701 488 728 431 b 514 124 694 247 628 172 b 647 -89 624 94 668 24 b 289 -314 624 -228 504 -314 b -8 -67 117 -314 18 -232 b -4 -60 -10 -62 -8 -61 l 6 -57 b 11 -61 10 -56 11 -57 b 290 -293 38 -218 125 -293 b 626 -83 490 -293 604 -211 b 524 100 646 25 599 75 b 353 129 468 117 424 122 l 349 129 b 176 165 276 136 232 143 b 113 204 149 175 128 189 b 75 357 82 235 63 286 b 289 581 93 465 165 540 b 154 793 179 610 135 681 m 439 556 b 322 571 388 561 349 567 b 208 521 293 564 263 553 b 94 353 153 489 107 429 b 193 179 78 256 119 204 b 356 149 247 161 283 156 b 482 132 415 143 457 138 b 588 190 510 142 536 156 b 692 351 638 224 679 283 b 626 510 704 428 682 481 b 439 556 571 538 521 549 "},"¨":{"ha":610,"x_min":0,"x_max":0,"o":"m 276 921 b 289 906 289 921 290 918 l 288 897 b 269 882 286 888 279 882 l 261 882 b 249 897 251 882 247 888 l 250 906 b 268 921 251 915 257 921 m 536 921 b 550 906 546 921 551 915 l 549 897 b 529 882 547 888 540 882 l 522 882 b 508 897 507 882 507 885 l 510 906 b 529 921 511 915 517 921 "},"©":{"ha":1133,"x_min":0,"x_max":0,"o":"m 119 488 b 326 843 144 629 214 747 b 706 986 439 939 565 986 b 1033 843 846 986 954 939 b 1114 488 1113 747 1139 629 b 908 133 1089 347 1021 229 b 531 -11 796 38 671 -11 b 201 133 390 -11 281 38 b 119 488 122 229 94 347 m 1094 488 b 1017 829 1118 624 1092 738 b 703 967 942 921 838 967 b 336 829 567 967 444 921 b 139 488 228 738 163 624 b 217 147 115 353 140 239 b 533 8 293 54 399 8 b 897 147 668 8 789 54 b 1094 488 1006 240 1071 353 m 406 571 b 661 769 428 697 517 769 b 851 621 788 769 840 717 b 849 614 851 617 850 615 l 839 611 b 832 613 835 610 832 611 b 656 750 821 713 776 750 b 425 567 524 750 447 689 l 394 394 b 561 211 374 278 429 211 b 789 357 678 211 743 256 b 799 360 790 360 794 361 l 806 358 b 808 351 808 357 810 354 b 558 192 763 244 679 192 b 375 399 418 192 353 271 "},"ª":{"ha":519,"x_min":0,"x_max":0,"o":"m 179 846 b 361 931 228 903 288 931 b 497 754 483 931 518 869 l 469 589 b 408 514 463 546 449 531 b 275 493 376 500 332 493 b 122 608 153 493 110 532 b 319 733 138 692 203 733 b 474 724 376 733 428 731 l 479 758 b 358 911 497 860 468 911 b 194 835 292 911 238 886 b 186 832 190 831 188 831 l 179 836 b 179 846 176 838 176 842 m 469 706 b 317 715 426 713 376 715 b 142 606 200 715 154 676 b 278 513 132 544 171 513 b 404 532 326 513 369 519 b 450 589 433 543 444 554 "},"«":{"ha":747,"x_min":0,"x_max":0,"o":"m 313 78 b 311 69 317 74 315 71 l 307 68 b 297 68 301 67 299 67 l 56 361 b 57 368 53 364 53 367 l 403 664 b 411 664 407 667 410 667 l 415 654 b 413 644 417 650 417 647 l 79 361 m 618 78 b 617 69 622 74 621 71 l 613 68 b 603 68 607 67 604 67 l 361 361 b 363 368 358 364 358 367 l 708 664 b 717 664 713 667 715 667 l 721 654 b 718 644 722 650 722 647 l 385 361 "},"¬":{"ha":793,"x_min":0,"x_max":0,"o":"m 708 507 b 714 501 713 507 714 506 l 660 200 b 654 194 660 196 658 194 l 644 194 b 639 200 640 194 639 196 l 690 488 l 124 488 b 119 493 119 488 118 489 l 121 501 b 126 507 121 506 122 507 "},"®":{"ha":688,"x_min":0,"x_max":0,"o":"m 143 717 b 251 908 156 793 192 857 b 460 986 310 960 379 986 b 636 907 533 986 592 960 b 682 717 679 854 694 790 b 576 525 669 640 633 576 b 369 447 519 474 450 447 b 192 526 296 447 236 474 b 143 717 147 579 131 643 m 163 717 b 204 539 150 647 164 588 b 371 464 244 489 300 464 b 565 538 447 464 511 489 b 665 717 619 586 653 646 b 624 894 678 786 664 846 b 460 968 583 943 528 968 b 264 896 383 968 318 944 b 163 717 210 847 175 788 m 461 863 b 542 771 521 863 551 828 b 456 685 533 721 504 692 l 497 578 b 493 571 500 574 499 571 l 488 571 b 478 575 483 571 479 572 l 438 682 l 318 682 l 299 575 b 293 571 299 572 297 571 l 283 571 b 279 575 281 571 279 572 l 328 851 b 342 863 329 858 333 863 m 321 700 l 432 700 b 524 772 485 700 515 724 b 457 844 531 818 507 844 l 346 844 "},"¯":{"ha":489,"x_min":0,"x_max":0,"o":"m 506 908 b 511 903 510 908 511 907 l 510 896 b 503 890 508 892 507 890 l 169 890 b 165 896 165 890 164 892 l 167 903 b 172 908 167 907 168 908 "},"°":{"ha":519,"x_min":0,"x_max":0,"o":"m 526 767 b 447 633 517 715 490 671 b 303 578 403 596 354 578 b 175 638 249 578 207 597 b 143 776 143 676 133 722 b 222 910 153 831 179 875 b 367 963 265 944 313 963 b 493 906 419 963 461 943 b 526 767 525 867 536 821 m 235 893 b 163 771 194 860 171 819 b 192 649 154 722 164 682 b 304 599 218 615 256 599 b 433 650 350 599 393 615 b 506 771 474 685 497 725 b 365 942 522 867 460 942 b 235 893 317 942 274 925 "},"±":{"ha":946,"x_min":0,"x_max":0,"o":"m 824 560 b 828 554 828 560 829 558 l 826 546 b 821 540 826 542 825 540 l 510 540 l 472 331 b 465 325 471 326 469 325 l 457 325 b 453 331 453 325 451 326 l 490 540 l 176 540 b 171 546 172 540 171 542 l 172 554 b 179 560 174 558 175 560 l 493 560 l 531 774 b 538 779 532 778 533 779 l 546 779 b 550 774 550 779 551 778 l 513 560 m 764 221 b 768 215 768 221 769 219 l 767 207 b 761 201 767 203 765 201 l 117 201 b 111 207 113 201 111 203 l 113 215 b 119 221 114 219 115 221 "},"²":{"ha":472,"x_min":0,"x_max":0,"o":"m 156 974 b 183 1031 157 983 160 993 b 224 1081 194 1049 208 1065 b 374 1136 254 1108 311 1136 b 525 976 489 1136 542 1071 b 485 894 519 942 497 911 b 447 868 478 886 465 878 b 411 851 429 858 417 853 b 365 836 406 849 390 843 b 325 822 340 828 326 824 l 231 789 b 115 650 165 765 128 719 l 104 592 l 447 592 b 454 586 451 592 454 590 l 453 579 b 444 574 451 575 449 574 l 93 574 b 85 583 86 574 83 576 l 97 650 b 228 806 111 728 154 779 l 322 839 b 363 853 326 840 339 844 b 404 868 385 860 399 865 b 438 885 410 869 421 875 b 507 979 482 907 492 929 b 372 1118 522 1063 476 1118 b 179 986 251 1118 193 1024 l 174 971 b 167 965 172 967 171 965 l 158 967 b 156 974 154 967 153 969 "},"³":{"ha":492,"x_min":0,"x_max":0,"o":"m 153 976 b 388 1136 203 1089 272 1136 b 525 979 492 1136 540 1072 b 429 854 515 917 483 875 b 494 717 483 829 506 783 b 288 563 478 622 406 563 b 106 719 169 563 117 614 b 110 728 104 724 106 726 l 119 731 b 125 725 124 732 125 731 b 289 581 136 621 179 581 b 475 717 394 581 460 635 b 383 846 488 789 451 846 l 267 846 b 261 851 263 846 261 847 l 263 858 b 269 864 264 863 265 864 l 385 864 b 507 982 453 864 494 915 b 385 1118 522 1064 475 1118 b 171 971 283 1118 217 1072 b 163 965 169 965 167 964 l 154 968 b 153 976 151 969 151 972 "},"´":{"ha":357,"x_min":0,"x_max":0,"o":"m 415 1000 b 428 999 419 1003 424 1003 l 431 994 b 428 985 435 990 433 988 l 151 826 b 142 828 147 825 144 825 l 138 833 b 140 842 135 836 136 839 "},"µ":{"ha":743,"x_min":0,"x_max":0,"o":"m 697 708 b 701 703 701 708 703 707 l 596 99 b 531 24 589 58 574 42 b 283 -21 451 -6 369 -21 b 64 129 156 -21 82 29 l -11 -300 b -18 -306 -12 -304 -14 -306 l -28 -306 b -31 -300 -31 -306 -32 -304 l 146 703 b 153 708 147 707 149 708 l 161 708 b 165 703 165 708 167 707 l 85 244 b 283 -3 56 79 122 -3 b 529 42 374 -3 456 13 b 576 99 565 57 572 74 l 682 703 b 689 708 683 707 685 708 "},"¶":{"ha":388,"x_min":0,"x_max":0,"o":"m 367 986 b 372 981 371 986 372 985 l 178 -118 b 171 -124 178 -122 175 -124 l 161 -124 b 157 -118 158 -124 157 -122 l 347 964 l 278 964 l 88 -118 b 81 -124 88 -122 85 -124 l 72 -124 b 68 -118 69 -124 68 -122 l 235 825 b 168 904 186 825 161 858 b 265 986 175 954 215 986 "},"·":{"ha":235,"x_min":0,"x_max":0,"o":"m 118 382 b 132 364 131 382 135 376 l 131 358 b 108 340 128 346 121 340 l 103 340 b 89 358 88 340 85 343 l 90 364 b 113 382 93 376 100 382 "},"¸":{"ha":349,"x_min":0,"x_max":0,"o":"m 64 -126 b 119 -119 81 -122 99 -119 b 224 -215 196 -119 233 -154 b 58 -342 211 -294 147 -342 b -58 -307 10 -342 -29 -331 b -64 -292 -62 -303 -65 -299 l -62 -283 b -57 -281 -61 -278 -58 -276 b 61 -324 -28 -310 11 -324 b 206 -215 139 -324 193 -283 b 111 -136 213 -164 179 -136 b 50 -146 86 -136 65 -139 b 42 -133 39 -150 36 -144 l 113 0 l 131 0 "},"¹":{"ha":356,"x_min":0,"x_max":0,"o":"m 390 1125 b 394 1119 394 1125 396 1124 l 300 579 b 293 574 299 575 297 574 l 286 574 b 282 579 282 574 281 575 l 374 1100 l 138 982 b 131 983 133 981 132 981 l 129 990 b 132 997 128 993 129 996 l 376 1122 b 386 1125 381 1124 383 1125 "},"º":{"ha":526,"x_min":0,"x_max":0,"o":"m 158 774 b 365 931 175 874 249 931 b 518 764 483 931 536 865 l 497 653 b 289 494 479 547 410 494 b 138 663 172 494 117 558 m 500 768 b 363 911 515 858 468 911 b 176 768 258 911 192 857 l 156 657 b 292 514 140 567 188 514 b 479 657 397 514 464 567 "},"»":{"ha":750,"x_min":0,"x_max":0,"o":"m 118 651 b 121 661 115 656 117 658 l 126 664 b 135 664 131 667 133 667 l 378 368 b 376 361 379 365 378 363 l 32 68 b 22 68 28 64 24 64 l 17 76 b 18 85 15 79 15 82 l 351 368 m 424 651 b 426 661 421 656 422 658 l 432 664 b 440 664 436 667 439 667 l 683 368 b 682 361 685 365 683 363 l 338 68 b 328 68 333 64 329 64 l 322 76 b 324 85 321 79 321 82 l 657 368 "},"¼":{"ha":1121,"x_min":0,"x_max":0,"o":"m 386 999 b 390 993 390 999 392 997 l 296 453 b 289 447 294 449 293 447 l 282 447 b 278 453 278 447 276 449 l 369 974 l 133 856 b 126 857 129 854 128 854 l 125 864 b 128 871 124 867 125 869 l 372 996 b 382 999 376 997 379 999 m 958 986 b 963 979 965 986 967 983 l 247 7 b 233 0 243 3 239 0 l 225 0 b 222 7 219 0 218 3 l 938 979 b 949 986 942 983 944 986 m 1029 189 b 1033 183 1033 189 1035 188 l 1033 178 b 1026 171 1032 174 1031 171 l 939 171 l 910 6 b 903 0 908 1 907 0 l 894 0 b 890 6 890 0 889 1 l 919 171 l 624 171 b 618 176 619 171 618 172 l 619 181 b 624 192 621 188 622 190 l 976 546 b 990 551 981 550 985 551 l 999 551 b 1004 544 1003 551 1006 549 l 942 189 m 982 526 l 646 189 l 922 189 "},"½":{"ha":1229,"x_min":0,"x_max":0,"o":"m 386 999 b 390 993 390 999 392 997 l 296 453 b 289 447 294 449 293 447 l 282 447 b 278 453 278 447 276 449 l 369 974 l 133 856 b 126 857 129 854 128 854 l 125 864 b 128 871 124 867 125 869 l 372 996 b 382 999 376 997 379 999 m 964 986 b 968 979 971 986 972 983 l 253 7 b 239 0 249 3 244 0 l 231 0 b 228 7 225 0 224 3 l 943 979 b 954 986 947 983 950 986 m 797 400 b 825 457 799 410 801 419 b 865 507 836 475 850 492 b 1015 563 896 535 953 563 b 1167 403 1131 563 1183 497 b 1126 321 1161 368 1139 338 b 1089 294 1119 313 1107 304 b 1053 278 1071 285 1058 279 b 1007 263 1047 275 1032 269 b 967 249 982 254 968 250 l 872 215 b 757 76 807 192 769 146 l 746 18 l 1089 18 b 1096 13 1093 18 1096 17 l 1094 6 b 1086 0 1093 1 1090 0 l 735 0 b 726 10 728 0 725 3 l 739 76 b 869 232 753 154 796 206 l 964 265 b 1004 279 968 267 981 271 b 1046 294 1026 286 1040 292 b 1079 311 1051 296 1063 301 b 1149 406 1124 333 1133 356 b 1014 544 1164 489 1118 544 b 821 413 893 544 835 450 l 815 397 b 808 392 814 393 813 392 l 800 393 b 797 400 796 393 794 396 "},"¾":{"ha":1203,"x_min":0,"x_max":0,"o":"m 143 850 b 378 1010 193 963 263 1010 b 515 853 482 1010 531 946 b 419 728 506 790 474 749 b 485 590 474 703 496 657 b 278 436 468 496 396 436 b 96 593 160 436 107 488 b 100 601 94 597 96 600 l 110 604 b 115 599 114 606 115 604 b 279 454 126 494 169 454 b 465 590 385 454 450 508 b 374 719 478 663 442 719 l 257 719 b 251 725 253 719 251 721 l 253 732 b 260 738 254 736 256 738 l 375 738 b 497 856 443 738 485 789 b 375 992 513 938 465 992 b 161 844 274 992 207 946 b 153 839 160 839 157 838 l 144 842 b 143 850 142 843 142 846 m 1046 986 b 1050 979 1053 986 1054 983 l 335 7 b 321 0 331 3 326 0 l 313 0 b 310 7 307 0 306 3 l 1025 979 b 1036 986 1029 983 1032 986 m 1113 189 b 1117 183 1117 189 1118 188 l 1117 178 b 1110 171 1115 174 1114 171 l 1022 171 l 993 6 b 986 0 992 1 990 0 l 978 0 b 974 6 974 0 972 1 l 1003 171 l 707 171 b 701 176 703 171 701 172 l 703 181 b 707 192 704 188 706 190 l 1060 546 b 1074 551 1064 550 1068 551 l 1082 551 b 1088 544 1086 551 1089 549 l 1025 189 m 1065 526 l 729 189 l 1006 189 "},"¿":{"ha":754,"x_min":0,"x_max":0,"o":"m 475 668 b 461 686 463 668 458 674 l 461 692 b 483 710 464 704 471 710 l 489 710 b 503 692 504 710 504 707 l 503 686 b 481 668 500 674 493 668 m 643 -94 b 264 -324 558 -247 432 -324 b 43 -243 165 -324 92 -297 b -8 -39 -6 -189 -24 -121 b 90 165 7 46 39 114 b 236 276 140 215 171 238 b 306 321 268 296 290 311 b 363 368 321 331 339 347 b 444 528 407 411 432 461 b 450 533 446 532 447 533 l 458 533 b 464 528 463 533 464 532 b 379 358 451 456 426 403 b 318 308 356 336 335 319 b 244 260 301 296 276 281 b 104 154 176 219 156 206 b 13 -39 54 106 25 43 b 58 -229 -1 -115 14 -178 b 263 -304 101 -279 169 -304 b 624 -89 425 -304 544 -232 b 632 -85 626 -85 629 -83 l 640 -87 b 643 -94 643 -89 644 -90 "},"À":{"ha":861,"x_min":0,"x_max":0,"o":"m 443 1222 b 457 1224 447 1226 453 1228 l 681 1072 b 681 1064 683 1069 683 1067 l 678 1061 b 668 1060 675 1058 672 1058 l 440 1210 b 440 1219 436 1211 436 1215 m 778 6 b 771 0 778 1 775 0 l 765 0 b 757 6 760 0 757 1 l 674 363 l 182 363 l -26 6 b -37 0 -29 1 -33 0 l -46 0 b -50 6 -53 0 -54 1 l 522 988 b 533 994 525 992 529 994 l 542 994 b 550 988 547 994 550 992 m 538 953 b 535 969 538 954 535 964 l 533 969 b 526 953 531 961 528 956 l 193 382 l 671 382 "},"Á":{"ha":861,"x_min":0,"x_max":0,"o":"m 697 1238 b 710 1236 701 1240 706 1240 l 713 1232 b 710 1222 717 1228 715 1225 l 433 1064 b 424 1065 429 1063 426 1063 l 419 1071 b 422 1079 418 1074 418 1076 m 778 6 b 771 0 778 1 775 0 l 765 0 b 757 6 760 0 757 1 l 674 363 l 182 363 l -26 6 b -37 0 -29 1 -33 0 l -46 0 b -50 6 -53 0 -54 1 l 522 988 b 533 994 525 992 529 994 l 542 994 b 550 988 547 994 550 992 m 538 953 b 535 969 538 954 535 964 l 533 969 b 526 953 531 961 528 956 l 193 382 l 671 382 "},"Â":{"ha":861,"x_min":0,"x_max":0,"o":"m 582 1240 b 597 1233 586 1240 592 1238 l 769 1069 b 764 1064 771 1065 769 1064 l 756 1064 b 744 1068 751 1064 747 1065 l 581 1221 l 363 1068 b 350 1064 358 1065 354 1064 l 335 1064 b 332 1069 328 1064 326 1065 l 564 1233 b 578 1240 569 1238 574 1240 m 778 6 b 771 0 778 1 775 0 l 765 0 b 757 6 760 0 757 1 l 674 363 l 182 363 l -26 6 b -37 0 -29 1 -33 0 l -46 0 b -50 6 -53 0 -54 1 l 522 988 b 533 994 525 992 529 994 l 542 994 b 550 988 547 994 550 992 m 538 953 b 535 969 538 954 535 964 l 533 969 b 526 953 531 961 528 956 l 193 382 l 671 382 "},"Ã":{"ha":861,"x_min":0,"x_max":0,"o":"m 783 1204 b 788 1199 788 1204 789 1203 b 668 1078 775 1125 733 1078 b 457 1186 581 1074 533 1190 b 358 1083 407 1186 368 1144 b 351 1078 357 1079 356 1078 l 343 1078 b 339 1083 339 1078 338 1079 b 460 1204 351 1156 397 1204 b 671 1096 547 1208 596 1092 b 768 1199 722 1096 757 1138 b 775 1204 769 1203 771 1204 m 778 6 b 771 0 778 1 775 0 l 765 0 b 757 6 760 0 757 1 l 674 363 l 182 363 l -26 6 b -37 0 -29 1 -33 0 l -46 0 b -50 6 -53 0 -54 1 l 522 988 b 533 994 525 992 529 994 l 542 994 b 550 988 547 994 550 992 m 538 953 b 535 969 538 954 535 964 l 533 969 b 526 953 531 961 528 956 l 193 382 l 671 382 "},"Ä":{"ha":861,"x_min":0,"x_max":0,"o":"m 442 1165 b 454 1150 454 1165 456 1163 l 453 1142 b 435 1126 451 1132 444 1126 l 426 1126 b 414 1142 417 1126 413 1132 l 415 1150 b 433 1165 417 1160 422 1165 m 701 1165 b 715 1150 711 1165 717 1160 l 714 1142 b 694 1126 713 1132 706 1126 l 688 1126 b 674 1142 672 1126 672 1129 l 675 1150 b 694 1165 676 1160 682 1165 m 778 6 b 771 0 778 1 775 0 l 765 0 b 757 6 760 0 757 1 l 674 363 l 182 363 l -26 6 b -37 0 -29 1 -33 0 l -46 0 b -50 6 -53 0 -54 1 l 522 988 b 533 994 525 992 529 994 l 542 994 b 550 988 547 994 550 992 m 538 953 b 535 969 538 954 535 964 l 533 969 b 526 953 531 961 528 956 l 193 382 l 671 382 "},"Å":{"ha":861,"x_min":0,"x_max":0,"o":"m 425 1107 b 578 1229 438 1185 496 1229 b 682 1101 657 1229 697 1179 b 551 981 669 1029 622 986 l 778 6 b 771 0 778 1 775 0 l 765 0 b 757 6 760 0 757 1 l 674 363 l 182 363 l -26 6 b -37 0 -29 1 -33 0 l -46 0 b -50 6 -53 0 -54 1 l 518 979 b 425 1107 447 986 413 1035 m 665 1104 b 575 1213 678 1171 643 1213 b 442 1104 499 1213 454 1176 b 536 996 431 1038 465 996 b 665 1104 604 996 654 1038 m 538 953 b 535 969 538 954 535 964 l 533 969 b 526 953 531 961 528 956 l 193 382 l 671 382 "},"Æ":{"ha":1111,"x_min":0,"x_max":0,"o":"m 988 19 b 992 14 990 19 992 18 l 990 6 b 983 0 989 1 988 0 l 532 0 b 528 6 528 0 526 1 l 576 281 l 169 281 l -44 6 b -56 0 -49 1 -51 0 l -64 0 b -68 6 -71 0 -72 1 l 689 979 b 700 986 693 983 696 986 l 1136 986 b 1142 981 1140 986 1142 985 l 1139 972 b 1133 967 1139 968 1138 967 l 718 967 l 638 508 l 994 508 b 999 503 997 508 999 507 l 997 494 b 990 489 996 490 994 489 l 633 489 l 551 19 m 697 957 l 185 300 l 579 300 "},"Ç":{"ha":876,"x_min":0,"x_max":0,"o":"m 583 1006 b 901 760 796 1006 885 926 b 896 751 903 756 900 753 l 890 750 b 883 753 886 749 883 749 b 583 986 865 915 783 986 b 183 672 357 986 217 868 l 122 319 b 410 3 88 119 188 3 b 797 242 615 3 721 76 b 806 246 799 246 801 247 l 813 243 b 815 235 817 242 817 239 b 671 46 776 150 728 86 b 425 -19 613 4 531 -18 l 367 -129 b 422 -122 383 -125 401 -122 b 526 -218 499 -122 536 -157 b 361 -344 514 -297 450 -344 b 244 -310 313 -344 274 -333 b 239 -294 240 -306 238 -301 l 240 -286 b 246 -283 242 -281 244 -279 b 364 -326 275 -312 314 -326 b 508 -218 442 -326 496 -286 b 414 -139 515 -167 482 -139 b 353 -149 389 -139 368 -142 b 344 -136 342 -153 339 -147 l 407 -19 b 100 317 175 -18 63 107 l 163 671 b 583 1006 200 882 346 1006 "},"È":{"ha":785,"x_min":0,"x_max":0,"o":"m 422 1222 b 436 1224 426 1226 432 1228 l 660 1072 b 660 1064 663 1069 663 1067 l 657 1061 b 647 1060 654 1058 651 1058 l 419 1210 b 419 1219 415 1211 415 1215 m 801 986 b 807 981 806 986 807 985 l 804 972 b 799 967 804 968 803 967 l 240 967 l 160 510 l 660 510 b 664 504 664 510 665 508 l 663 496 b 656 490 661 492 660 490 l 156 490 l 74 19 l 653 19 b 657 14 656 19 657 18 l 656 6 b 649 0 654 1 653 0 l 54 0 b 50 6 50 0 49 1 l 222 981 b 228 986 222 985 224 986 "},"É":{"ha":785,"x_min":0,"x_max":0,"o":"m 676 1238 b 689 1236 681 1240 685 1240 l 692 1232 b 689 1222 696 1228 694 1225 l 413 1064 b 403 1065 408 1063 406 1063 l 399 1071 b 401 1079 397 1074 397 1076 m 801 986 b 807 981 806 986 807 985 l 804 972 b 799 967 804 968 803 967 l 240 967 l 160 510 l 660 510 b 664 504 664 510 665 508 l 663 496 b 656 490 661 492 660 490 l 156 490 l 74 19 l 653 19 b 657 14 656 19 657 18 l 656 6 b 649 0 654 1 653 0 l 54 0 b 50 6 50 0 49 1 l 222 981 b 228 986 222 985 224 986 "},"Ê":{"ha":785,"x_min":0,"x_max":0,"o":"m 561 1240 b 576 1233 565 1240 571 1238 l 749 1069 b 743 1064 750 1065 749 1064 l 735 1064 b 724 1068 731 1064 726 1065 l 560 1221 l 342 1068 b 329 1064 338 1065 333 1064 l 314 1064 b 311 1069 307 1064 306 1065 l 543 1233 b 557 1240 549 1238 553 1240 m 801 986 b 807 981 806 986 807 985 l 804 972 b 799 967 804 968 803 967 l 240 967 l 160 510 l 660 510 b 664 504 664 510 665 508 l 663 496 b 656 490 661 492 660 490 l 156 490 l 74 19 l 653 19 b 657 14 656 19 657 18 l 656 6 b 649 0 654 1 653 0 l 54 0 b 50 6 50 0 49 1 l 222 981 b 228 986 222 985 224 986 "},"Ë":{"ha":785,"x_min":0,"x_max":0,"o":"m 421 1165 b 433 1150 433 1165 435 1163 l 432 1142 b 414 1126 431 1132 424 1126 l 406 1126 b 393 1142 396 1126 392 1132 l 394 1150 b 413 1165 396 1160 401 1165 m 681 1165 b 694 1150 690 1165 696 1160 l 693 1142 b 674 1126 692 1132 685 1126 l 667 1126 b 653 1142 651 1126 651 1129 l 654 1150 b 674 1165 656 1160 661 1165 m 801 986 b 807 981 806 986 807 985 l 804 972 b 799 967 804 968 803 967 l 240 967 l 160 510 l 660 510 b 664 504 664 510 665 508 l 663 496 b 656 490 661 492 660 490 l 156 490 l 74 19 l 653 19 b 657 14 656 19 657 18 l 656 6 b 649 0 654 1 653 0 l 54 0 b 50 6 50 0 49 1 l 222 981 b 228 986 222 985 224 986 "},"Ì":{"ha":265,"x_min":0,"x_max":0,"o":"m 139 1222 b 153 1224 143 1226 149 1228 l 376 1072 b 376 1064 379 1069 379 1067 l 374 1061 b 364 1060 371 1058 368 1058 l 136 1210 b 136 1219 132 1211 132 1215 m 222 981 b 228 986 222 985 224 986 l 238 986 b 243 981 242 986 243 985 l 71 6 b 64 0 69 1 68 0 l 54 0 b 50 6 50 0 49 1 "},"Í":{"ha":265,"x_min":0,"x_max":0,"o":"m 393 1238 b 406 1236 397 1240 401 1240 l 408 1232 b 406 1222 413 1228 411 1225 l 129 1064 b 119 1065 125 1063 122 1063 l 115 1071 b 118 1079 114 1074 114 1076 m 222 981 b 228 986 222 985 224 986 l 238 986 b 243 981 242 986 243 985 l 71 6 b 64 0 69 1 68 0 l 54 0 b 50 6 50 0 49 1 "},"Î":{"ha":265,"x_min":0,"x_max":0,"o":"m 285 1240 b 300 1233 289 1240 294 1238 l 472 1069 b 467 1064 474 1065 472 1064 l 458 1064 b 447 1068 454 1064 450 1065 l 283 1221 l 65 1068 b 53 1064 61 1065 57 1064 l 38 1064 b 35 1069 31 1064 29 1065 l 267 1233 b 281 1240 272 1238 276 1240 m 229 981 b 235 986 229 985 231 986 l 244 986 b 250 981 249 986 250 985 l 78 6 b 71 0 76 1 75 0 l 61 0 b 57 6 57 0 56 1 "},"Ï":{"ha":265,"x_min":0,"x_max":0,"o":"m 138 1165 b 150 1150 150 1165 151 1163 l 149 1142 b 131 1126 147 1132 140 1126 l 122 1126 b 110 1142 113 1126 108 1132 l 111 1150 b 129 1165 113 1160 118 1165 m 397 1165 b 411 1150 407 1165 413 1160 l 410 1142 b 390 1126 408 1132 401 1126 l 383 1126 b 369 1142 368 1126 368 1129 l 371 1150 b 390 1165 372 1160 378 1165 m 222 981 b 228 986 222 985 224 986 l 238 986 b 243 981 242 986 243 985 l 71 6 b 64 0 69 1 68 0 l 54 0 b 50 6 50 0 49 1 "},"Ð":{"ha":896,"x_min":0,"x_max":0,"o":"m 511 986 b 849 617 767 986 889 846 l 804 364 b 338 0 764 136 593 0 l 64 0 b 60 6 60 0 58 1 l 143 482 l 19 482 b 13 489 14 482 11 485 l 14 494 b 24 501 15 499 18 501 l 147 501 l 232 981 b 238 986 232 985 233 986 m 829 619 b 508 967 867 838 753 967 l 250 967 l 168 501 l 467 501 b 472 494 471 501 474 499 l 471 489 b 463 482 469 485 467 482 l 164 482 l 83 19 l 342 19 b 785 367 586 19 746 149 "},"Ñ":{"ha":951,"x_min":0,"x_max":0,"o":"m 822 1204 b 826 1199 826 1204 828 1203 b 707 1078 814 1125 772 1078 b 496 1186 619 1074 572 1190 b 397 1083 446 1186 407 1144 b 390 1078 396 1079 394 1078 l 382 1078 b 378 1083 378 1078 376 1079 b 499 1204 390 1156 436 1204 b 710 1096 586 1208 635 1092 b 807 1199 761 1096 796 1138 b 814 1204 808 1203 810 1204 m 924 986 b 929 981 928 986 929 985 l 757 6 b 750 0 756 1 754 0 l 742 0 b 733 6 738 0 735 1 l 321 788 b 285 860 317 797 304 821 b 238 947 264 897 249 926 l 236 947 b 200 738 221 863 208 792 l 71 6 b 64 0 69 1 68 0 l 54 0 b 50 6 50 0 49 1 l 222 981 b 228 986 222 985 224 986 l 233 986 l 242 982 l 643 224 l 742 40 l 743 40 l 783 278 l 908 982 b 914 986 908 985 910 986 "},"Ò":{"ha":917,"x_min":0,"x_max":0,"o":"m 499 1236 b 513 1238 503 1240 508 1242 l 736 1086 b 736 1078 739 1083 739 1081 l 733 1075 b 724 1074 731 1072 728 1072 l 496 1224 b 496 1233 492 1225 492 1229 m 167 674 b 590 1006 204 885 353 1006 b 897 665 825 1006 936 876 l 835 313 b 415 -19 797 101 650 -19 b 104 321 178 -19 65 110 m 876 668 b 589 986 911 868 810 986 b 188 668 365 986 222 872 l 125 318 b 415 0 90 118 192 0 b 814 318 636 0 779 118 "},"Ó":{"ha":917,"x_min":0,"x_max":0,"o":"m 753 1251 b 765 1250 757 1254 761 1254 l 768 1246 b 765 1236 772 1242 771 1239 l 489 1078 b 479 1079 485 1076 482 1076 l 475 1085 b 478 1093 474 1088 474 1090 m 167 674 b 590 1006 204 885 353 1006 b 897 665 825 1006 936 876 l 835 313 b 415 -19 797 101 650 -19 b 104 321 178 -19 65 110 m 876 668 b 589 986 911 868 810 986 b 188 668 365 986 222 872 l 125 318 b 415 0 90 118 192 0 b 814 318 636 0 779 118 "},"Ô":{"ha":917,"x_min":0,"x_max":0,"o":"m 638 1254 b 653 1247 642 1254 647 1251 l 825 1083 b 819 1078 826 1079 825 1078 l 811 1078 b 800 1082 807 1078 803 1079 l 636 1235 l 418 1082 b 406 1078 414 1079 410 1078 l 390 1078 b 388 1083 383 1078 382 1079 l 619 1247 b 633 1254 625 1251 629 1254 m 167 674 b 590 1006 204 885 353 1006 b 897 665 825 1006 936 876 l 835 313 b 415 -19 797 101 650 -19 b 104 321 178 -19 65 110 m 876 668 b 589 986 911 868 810 986 b 188 668 365 986 222 872 l 125 318 b 415 0 90 118 192 0 b 814 318 636 0 779 118 "},"Õ":{"ha":917,"x_min":0,"x_max":0,"o":"m 839 1218 b 843 1213 843 1218 844 1217 b 724 1092 831 1139 789 1092 b 513 1200 636 1088 589 1204 b 414 1097 463 1200 424 1158 b 407 1092 413 1093 411 1092 l 399 1092 b 394 1097 394 1092 393 1093 b 515 1218 407 1169 453 1218 b 726 1110 603 1222 651 1106 b 824 1213 778 1110 813 1151 b 831 1218 825 1217 826 1218 m 167 674 b 590 1006 204 885 353 1006 b 897 665 825 1006 936 876 l 835 313 b 415 -19 797 101 650 -19 b 104 321 178 -19 65 110 m 876 668 b 589 986 911 868 810 986 b 188 668 365 986 222 872 l 125 318 b 415 0 90 118 192 0 b 814 318 636 0 779 118 "},"Ö":{"ha":917,"x_min":0,"x_max":0,"o":"m 497 1179 b 510 1164 510 1179 511 1176 l 508 1156 b 490 1140 507 1146 500 1140 l 482 1140 b 469 1156 472 1140 468 1146 l 471 1164 b 489 1179 472 1174 478 1179 m 757 1179 b 771 1164 767 1179 772 1174 l 769 1156 b 750 1140 768 1146 761 1140 l 743 1140 b 729 1156 728 1140 728 1143 l 731 1164 b 750 1179 732 1174 738 1179 m 167 674 b 590 1006 204 885 353 1006 b 897 665 825 1006 936 876 l 835 313 b 415 -19 797 101 650 -19 b 104 321 178 -19 65 110 m 876 668 b 589 986 911 868 810 986 b 188 668 365 986 222 872 l 125 318 b 415 0 90 118 192 0 b 814 318 636 0 779 118 "},"×":{"ha":694,"x_min":0,"x_max":0,"o":"m 567 210 b 565 200 569 206 569 201 l 563 199 b 553 199 558 197 554 197 l 357 438 l 76 199 b 67 199 74 196 71 196 l 64 203 b 65 213 60 207 61 210 l 346 451 l 149 689 b 151 699 147 692 147 694 l 153 700 b 163 700 157 704 160 704 l 360 463 l 639 700 b 649 700 643 704 647 704 l 653 696 b 650 686 654 692 654 689 l 371 449 "},"Ø":{"ha":917,"x_min":0,"x_max":0,"o":"m 939 1039 b 940 1035 943 1039 943 1038 l 832 901 b 872 665 878 842 890 764 l 810 313 b 390 -19 772 101 625 -19 b 144 58 281 -19 199 7 l 50 -58 b 39 -62 47 -61 43 -62 l 29 -62 b 28 -58 25 -62 25 -61 l 132 71 b 79 321 78 131 60 214 l 142 674 b 565 1006 179 885 328 1006 b 821 914 682 1006 767 975 l 918 1035 b 928 1039 921 1038 924 1039 m 807 899 b 564 986 757 957 676 986 b 293 904 451 986 361 958 b 163 668 224 849 181 769 l 100 318 b 146 86 83 219 99 142 m 851 668 b 818 883 867 758 856 831 l 158 74 b 390 0 210 25 286 0 b 789 318 611 0 754 118 "},"Ù":{"ha":942,"x_min":0,"x_max":0,"o":"m 507 1222 b 521 1224 511 1226 517 1228 l 744 1072 b 744 1064 747 1069 747 1067 l 742 1061 b 732 1060 739 1058 736 1058 l 504 1210 b 504 1219 500 1211 500 1215 m 149 332 b 426 -1 114 125 204 -1 b 821 332 649 -1 786 125 l 936 981 b 942 986 936 985 938 986 l 951 986 b 957 981 956 986 958 985 l 842 328 b 425 -21 803 107 660 -21 b 128 335 190 -21 89 114 l 243 981 b 249 986 244 985 246 986 l 258 986 b 264 981 263 986 264 985 "},"Ú":{"ha":942,"x_min":0,"x_max":0,"o":"m 761 1238 b 774 1236 765 1240 769 1240 l 776 1232 b 774 1222 781 1228 779 1225 l 497 1064 b 488 1065 493 1063 490 1063 l 483 1071 b 486 1079 482 1074 482 1076 m 149 332 b 426 -1 114 125 204 -1 b 821 332 649 -1 786 125 l 936 981 b 942 986 936 985 938 986 l 951 986 b 957 981 956 986 958 985 l 842 328 b 425 -21 803 107 660 -21 b 128 335 190 -21 89 114 l 243 981 b 249 986 244 985 246 986 l 258 986 b 264 981 263 986 264 985 "},"Û":{"ha":942,"x_min":0,"x_max":0,"o":"m 646 1240 b 661 1233 650 1240 656 1238 l 833 1069 b 828 1064 835 1065 833 1064 l 819 1064 b 808 1068 815 1064 811 1065 l 644 1221 l 426 1068 b 414 1064 422 1065 418 1064 l 399 1064 b 396 1069 392 1064 390 1065 l 628 1233 b 642 1240 633 1238 638 1240 m 149 332 b 426 -1 114 125 204 -1 b 821 332 649 -1 786 125 l 936 981 b 942 986 936 985 938 986 l 951 986 b 957 981 956 986 958 985 l 842 328 b 425 -21 803 107 660 -21 b 128 335 190 -21 89 114 l 243 981 b 249 986 244 985 246 986 l 258 986 b 264 981 263 986 264 985 "},"Ü":{"ha":942,"x_min":0,"x_max":0,"o":"m 506 1165 b 518 1150 518 1165 519 1163 l 517 1142 b 499 1126 515 1132 508 1126 l 490 1126 b 478 1142 481 1126 476 1132 l 479 1150 b 497 1165 481 1160 486 1165 m 765 1165 b 779 1150 775 1165 781 1160 l 778 1142 b 758 1126 776 1132 769 1126 l 751 1126 b 738 1142 736 1126 736 1129 l 739 1150 b 758 1165 740 1160 746 1165 m 149 332 b 426 -1 114 125 204 -1 b 821 332 649 -1 786 125 l 936 981 b 942 986 936 985 938 986 l 951 986 b 957 981 956 986 958 985 l 842 328 b 425 -21 803 107 660 -21 b 128 335 190 -21 89 114 l 243 981 b 249 986 244 985 246 986 l 258 986 b 264 981 263 986 264 985 "},"Ý":{"ha":842,"x_min":0,"x_max":0,"o":"m 685 1238 b 697 1236 689 1240 693 1240 l 700 1232 b 697 1222 704 1228 703 1225 l 421 1064 b 411 1065 417 1063 414 1063 l 407 1071 b 410 1079 406 1074 406 1076 m 919 986 b 924 981 924 986 925 985 l 432 411 l 361 6 b 354 0 360 1 358 0 l 344 0 b 340 6 340 0 339 1 l 411 413 l 124 981 b 128 986 122 985 124 986 l 139 986 b 149 981 143 986 146 985 l 425 433 l 896 981 b 906 986 899 985 901 986 "},"Þ":{"ha":846,"x_min":0,"x_max":0,"o":"m 558 807 b 817 493 749 807 851 683 b 451 193 783 304 644 193 l 104 193 l 71 6 b 64 0 69 1 68 0 l 54 0 b 50 6 50 0 49 1 l 222 981 b 228 986 222 985 224 986 l 238 986 b 243 981 242 986 243 985 l 211 807 m 453 213 b 796 499 632 213 767 321 b 554 788 828 678 733 788 l 208 788 l 107 213 "},"ß":{"ha":754,"x_min":0,"x_max":0,"o":"m 161 733 b 488 1042 194 926 310 1042 b 717 764 672 1042 749 949 b 526 536 699 668 636 569 l 526 535 b 667 279 639 506 690 411 b 343 0 635 93 526 0 l 186 0 b 182 6 182 0 181 1 l 183 13 b 189 18 183 17 185 18 l 346 18 b 647 282 515 18 615 106 b 451 526 674 431 601 526 l 286 526 b 282 532 282 526 281 528 l 282 539 b 289 544 283 543 285 544 l 454 544 b 621 615 524 544 579 568 b 699 768 663 663 689 714 b 485 1024 728 939 657 1024 b 181 733 322 1024 214 915 l 53 6 b 46 0 51 1 50 0 l 38 0 b 33 6 33 0 32 1 "},"à":{"ha":731,"x_min":0,"x_max":0,"o":"m 376 986 b 389 988 381 990 385 990 l 606 828 b 606 819 608 825 608 822 l 604 818 b 594 817 600 814 597 814 l 375 975 b 375 985 371 978 371 981 m 114 472 b 440 728 143 650 244 728 b 650 689 522 728 593 715 b 693 613 693 671 700 657 l 593 43 b 579 31 592 39 588 35 b 285 -19 492 -3 393 -19 b 76 264 111 -19 44 92 m 640 671 b 438 710 583 697 515 710 b 133 472 256 710 163 640 l 96 264 b 288 -1 67 101 126 -1 b 574 49 397 -1 493 15 l 674 613 b 640 671 679 650 675 654 "},"á":{"ha":731,"x_min":0,"x_max":0,"o":"m 624 988 b 636 986 628 990 632 990 l 639 982 b 636 972 643 978 642 975 l 360 814 b 350 815 356 813 353 813 l 346 821 b 349 829 343 824 344 826 m 114 472 b 440 728 143 650 244 728 b 650 689 522 728 593 715 b 693 613 693 671 700 657 l 593 43 b 579 31 592 39 588 35 b 285 -19 492 -3 393 -19 b 76 264 111 -19 44 92 m 640 671 b 438 710 583 697 515 710 b 133 472 256 710 163 640 l 96 264 b 288 -1 67 101 126 -1 b 574 49 397 -1 493 15 l 674 613 b 640 671 679 650 675 654 "},"â":{"ha":731,"x_min":0,"x_max":0,"o":"m 507 979 b 521 972 511 979 517 976 l 693 808 b 689 803 697 804 696 803 l 681 803 b 668 807 676 803 672 804 l 504 963 l 286 807 b 275 803 282 804 278 803 l 260 803 b 256 808 253 803 251 804 l 488 972 b 503 979 494 976 499 979 m 114 472 b 440 728 143 650 244 728 b 650 689 522 728 593 715 b 693 613 693 671 700 657 l 593 43 b 579 31 592 39 588 35 b 285 -19 492 -3 393 -19 b 76 264 111 -19 44 92 m 640 671 b 438 710 583 697 515 710 b 133 472 256 710 163 640 l 96 264 b 288 -1 67 101 126 -1 b 574 49 397 -1 493 15 l 674 613 b 640 671 679 650 675 654 "},"ã":{"ha":731,"x_min":0,"x_max":0,"o":"m 710 954 b 714 949 714 954 715 953 b 597 828 699 868 660 828 b 382 936 496 828 474 936 b 283 833 332 936 294 894 b 278 828 283 829 282 828 l 269 828 b 264 833 265 828 264 829 b 383 954 276 907 321 954 b 494 900 418 954 454 936 b 597 846 533 864 568 846 b 694 949 649 846 683 888 b 701 954 696 953 697 954 m 114 472 b 440 728 143 650 244 728 b 650 689 522 728 593 715 b 693 613 693 671 700 657 l 593 43 b 579 31 592 39 588 35 b 285 -19 492 -3 393 -19 b 76 264 111 -19 44 92 m 640 671 b 438 710 583 697 515 710 b 133 472 256 710 163 640 l 96 264 b 288 -1 67 101 126 -1 b 574 49 397 -1 493 15 l 674 613 b 640 671 679 650 675 654 "},"ä":{"ha":731,"x_min":0,"x_max":0,"o":"m 369 922 b 382 907 382 922 383 919 l 381 899 b 363 883 379 889 372 883 l 354 883 b 342 899 344 883 340 889 l 343 907 b 361 922 344 917 350 922 m 629 922 b 643 907 639 922 644 917 l 642 899 b 622 883 640 889 633 883 l 615 883 b 601 899 600 883 600 886 l 603 907 b 622 922 604 917 610 922 m 114 472 b 440 728 143 650 244 728 b 650 689 522 728 593 715 b 693 613 693 671 700 657 l 593 43 b 579 31 592 39 588 35 b 285 -19 492 -3 393 -19 b 76 264 111 -19 44 92 m 640 671 b 438 710 583 697 515 710 b 133 472 256 710 163 640 l 96 264 b 288 -1 67 101 126 -1 b 574 49 397 -1 493 15 l 674 613 b 640 671 679 650 675 654 "},"å":{"ha":731,"x_min":0,"x_max":0,"o":"m 365 929 b 518 1051 378 1007 436 1051 b 622 924 597 1051 638 1001 b 474 801 610 846 553 801 b 365 929 394 801 350 851 m 606 926 b 515 1035 618 993 583 1035 b 382 926 439 1035 394 999 b 476 818 371 860 406 818 b 606 926 544 818 594 860 m 114 472 b 440 728 143 650 244 728 b 650 689 522 728 593 715 b 693 613 693 671 700 657 l 593 43 b 579 31 592 39 588 35 b 285 -19 492 -3 393 -19 b 76 264 111 -19 44 92 m 640 671 b 438 710 583 697 515 710 b 133 472 256 710 163 640 l 96 264 b 288 -1 67 101 126 -1 b 574 49 397 -1 493 15 l 674 613 b 640 671 679 650 675 654 "},"æ":{"ha":1083,"x_min":0,"x_max":0,"o":"m 571 547 b 844 728 622 663 722 728 b 1051 496 1007 728 1086 644 b 775 310 1022 374 921 310 b 539 342 696 310 617 321 l 522 246 b 707 -1 493 81 556 -1 b 968 149 829 -1 906 50 b 975 151 971 153 974 153 l 985 147 b 985 140 986 146 986 144 b 704 -19 917 33 822 -19 b 507 101 596 -19 531 21 b 257 -19 467 35 379 -19 b 36 189 83 -19 13 50 b 333 389 60 328 154 389 b 526 369 401 389 465 382 l 542 456 b 528 660 557 539 563 607 b 383 710 504 689 456 710 b 149 583 286 710 208 668 b 142 581 147 581 144 579 l 133 583 b 132 592 129 585 129 588 b 388 728 199 686 275 728 b 571 547 528 728 575 660 m 1033 499 b 842 710 1067 636 993 710 b 557 442 693 710 586 610 l 543 360 b 779 328 614 339 692 328 b 1033 499 921 328 1006 385 m 524 353 b 329 371 461 365 396 371 b 56 186 163 371 79 314 b 260 -1 33 58 99 -1 b 433 50 332 -1 394 19 b 501 126 471 81 489 103 b 504 246 494 164 496 204 "},"ç":{"ha":708,"x_min":0,"x_max":0,"o":"m 110 468 b 442 728 139 633 254 728 b 690 533 607 728 674 660 b 686 525 692 528 690 525 l 679 524 b 672 526 675 522 672 524 b 439 708 656 650 593 708 b 129 465 265 708 157 617 l 90 244 b 314 0 64 93 143 0 b 618 193 465 0 557 60 b 625 197 619 197 621 199 l 635 194 b 636 188 636 193 638 192 b 318 -19 574 50 467 -18 l 261 -126 b 317 -121 275 -122 293 -121 b 421 -217 393 -121 431 -156 b 256 -342 408 -296 344 -342 b 139 -307 207 -342 168 -331 b 133 -292 135 -303 132 -299 l 135 -283 b 140 -281 136 -278 139 -276 b 258 -324 169 -310 208 -324 b 403 -215 336 -324 390 -283 b 308 -136 410 -164 376 -136 b 247 -146 283 -136 263 -139 b 239 -133 236 -150 233 -144 l 300 -19 b 71 247 124 -15 42 86 "},"è":{"ha":714,"x_min":0,"x_max":0,"o":"m 361 986 b 374 988 365 990 369 990 l 590 828 b 590 819 593 825 593 822 l 589 818 b 579 817 585 814 582 814 l 360 975 b 360 985 356 978 356 981 m 104 444 b 444 728 136 624 261 728 b 688 494 633 728 726 643 b 376 310 658 372 544 310 b 104 339 278 310 186 319 l 88 246 b 306 -1 60 90 133 -1 b 603 149 446 -1 532 50 b 611 151 604 153 607 153 l 618 147 b 618 140 619 146 619 144 b 303 -19 543 33 438 -19 b 68 246 118 -19 39 79 m 668 499 b 442 710 706 636 618 710 b 122 442 271 710 151 610 l 107 358 b 381 328 186 338 276 328 b 668 499 543 328 639 385 "},"é":{"ha":714,"x_min":0,"x_max":0,"o":"m 608 988 b 621 986 613 990 617 990 l 624 982 b 621 972 628 978 626 975 l 344 814 b 335 815 340 813 338 813 l 331 821 b 333 829 328 824 329 826 m 104 444 b 444 728 136 624 261 728 b 688 494 633 728 726 643 b 376 310 658 372 544 310 b 104 339 278 310 186 319 l 88 246 b 306 -1 60 90 133 -1 b 603 149 446 -1 532 50 b 611 151 604 153 607 153 l 618 147 b 618 140 619 146 619 144 b 303 -19 543 33 438 -19 b 68 246 118 -19 39 79 m 668 499 b 442 710 706 636 618 710 b 122 442 271 710 151 610 l 107 358 b 381 328 186 338 276 328 b 668 499 543 328 639 385 "},"ê":{"ha":714,"x_min":0,"x_max":0,"o":"m 244 803 b 240 808 238 803 236 804 l 472 972 b 488 979 479 976 483 979 l 492 979 b 506 972 496 979 501 976 l 678 808 b 674 803 682 804 681 803 l 665 803 b 653 807 661 803 657 804 l 489 963 l 271 807 b 260 803 267 804 263 803 m 444 728 b 688 494 633 728 726 643 b 376 310 658 372 544 310 b 104 339 278 310 186 319 l 88 246 b 306 -1 60 90 133 -1 b 603 149 446 -1 532 50 b 611 151 604 153 607 153 l 618 147 b 618 140 619 146 619 144 b 303 -19 543 33 438 -19 b 68 246 118 -19 39 79 l 104 444 b 444 728 136 624 261 728 m 668 499 b 442 710 706 636 618 710 b 122 442 271 710 151 610 l 107 358 b 381 328 186 338 276 328 b 668 499 543 328 639 385 "},"ë":{"ha":714,"x_min":0,"x_max":0,"o":"m 354 922 b 367 907 367 922 368 919 l 365 899 b 347 883 364 889 357 883 l 339 883 b 326 899 329 883 325 889 l 328 907 b 346 922 329 917 335 922 m 614 922 b 628 907 624 922 629 917 l 626 899 b 607 883 625 889 618 883 l 600 883 b 586 899 585 883 585 886 l 588 907 b 607 922 589 917 594 922 m 104 444 b 444 728 136 624 261 728 b 688 494 633 728 726 643 b 376 310 658 372 544 310 b 104 339 278 310 186 319 l 88 246 b 306 -1 60 90 133 -1 b 603 149 446 -1 532 50 b 611 151 604 153 607 153 l 618 147 b 618 140 619 146 619 144 b 303 -19 543 33 438 -19 b 68 246 118 -19 39 79 m 668 499 b 442 710 706 636 618 710 b 122 442 271 710 151 610 l 107 358 b 381 328 186 338 276 328 b 668 499 543 328 639 385 "},"ì":{"ha":228,"x_min":0,"x_max":0,"o":"m 72 974 b 83 976 78 976 82 978 l 247 825 b 249 815 253 821 253 818 l 246 814 b 236 814 242 813 238 813 l 71 963 b 69 972 64 967 63 969 m 171 708 b 175 703 175 708 176 707 l 53 6 b 46 0 51 1 50 0 l 38 0 b 33 6 33 0 32 1 l 156 703 b 163 708 157 707 158 708 "},"í":{"ha":228,"x_min":0,"x_max":0,"o":"m 310 986 b 322 985 315 990 319 989 l 325 981 b 319 971 326 978 325 975 l 93 813 b 83 814 90 810 88 810 l 81 819 b 85 828 79 822 81 825 m 171 708 b 175 703 175 708 176 707 l 53 6 b 46 0 51 1 50 0 l 38 0 b 33 6 33 0 32 1 l 156 703 b 163 708 157 707 158 708 "},"î":{"ha":228,"x_min":0,"x_max":0,"o":"m 338 819 b 332 814 342 815 339 814 l 326 814 b 315 818 319 814 317 815 l 206 958 l 46 818 b 33 814 43 815 39 814 l 22 814 b 19 819 18 814 18 815 l 192 969 b 206 976 197 974 201 976 l 210 976 b 219 969 213 976 215 974 m 172 708 b 176 703 176 708 178 707 l 54 6 b 47 0 53 1 51 0 l 39 0 b 35 6 35 0 33 1 l 157 703 b 164 708 158 707 160 708 "},"ï":{"ha":228,"x_min":0,"x_max":0,"o":"m 117 949 b 131 933 129 949 132 944 l 128 925 b 111 910 128 913 125 910 l 103 910 b 89 925 93 910 88 915 l 92 933 b 108 949 93 943 99 949 m 293 949 b 308 933 304 949 310 943 l 306 925 b 288 910 304 915 299 910 l 281 910 b 265 925 268 910 264 913 l 268 933 b 286 949 269 943 275 949 m 171 708 b 175 703 175 708 176 707 l 53 6 b 46 0 51 1 50 0 l 38 0 b 33 6 33 0 32 1 l 156 703 b 163 708 157 707 158 708 "},"ð":{"ha":760,"x_min":0,"x_max":0,"o":"m 743 1036 b 753 1036 747 1040 750 1040 l 756 1032 b 754 1022 758 1029 758 1026 l 647 931 b 710 558 719 857 740 733 l 653 236 b 317 -19 625 75 506 -19 b 68 236 124 -19 40 74 l 104 444 b 443 701 133 607 253 701 b 689 549 583 701 668 643 b 632 917 721 726 704 843 l 481 785 b 471 785 476 782 472 782 l 467 789 b 468 799 465 793 465 796 l 619 929 b 321 1010 557 983 458 1010 b 317 1015 317 1010 315 1011 l 318 1022 b 325 1028 318 1026 321 1028 b 635 943 467 1028 569 1000 m 671 446 b 440 683 697 596 617 683 b 124 444 263 683 150 594 l 88 236 b 319 -1 61 86 142 -1 b 633 236 496 -1 607 86 "},"ñ":{"ha":753,"x_min":0,"x_max":0,"o":"m 676 954 b 681 949 681 954 682 953 b 564 828 665 868 626 828 b 349 936 463 828 440 936 b 250 833 299 936 261 894 b 244 828 250 829 249 828 l 236 828 b 231 833 232 828 231 829 b 350 954 243 907 288 954 b 461 900 385 954 421 936 b 564 846 500 864 535 846 b 661 949 615 846 650 888 b 668 954 663 953 664 954 m 200 683 b 450 728 276 713 360 728 b 665 464 625 728 697 640 l 585 6 b 578 0 583 1 582 0 l 569 0 b 565 6 565 0 564 1 l 646 463 b 447 710 675 628 608 710 b 200 665 357 710 275 694 b 154 608 174 654 158 635 l 49 6 b 42 0 47 1 46 0 l 33 0 b 29 6 29 0 28 1 l 135 608 b 200 683 144 651 156 665 "},"ò":{"ha":743,"x_min":0,"x_max":0,"o":"m 358 985 b 371 986 363 989 367 989 l 588 826 b 588 818 590 824 590 821 l 586 817 b 576 815 582 813 579 813 l 357 974 b 357 983 353 976 353 979 m 114 497 b 222 665 126 568 163 624 b 442 728 282 707 356 728 b 693 497 618 728 717 640 l 643 211 b 315 -19 619 68 489 -19 b 64 211 142 -19 40 71 m 674 499 b 440 710 697 626 603 710 b 133 499 281 710 157 626 l 83 210 b 315 -1 60 82 156 -1 b 624 210 478 -1 600 82 "},"ó":{"ha":743,"x_min":0,"x_max":0,"o":"m 606 986 b 618 985 610 989 614 989 l 621 981 b 618 971 625 976 624 974 l 342 813 b 332 814 338 811 335 811 l 328 819 b 331 828 325 822 326 825 m 114 497 b 222 665 126 568 163 624 b 442 728 282 707 356 728 b 693 497 618 728 717 640 l 643 211 b 315 -19 619 68 489 -19 b 64 211 142 -19 40 71 m 674 499 b 440 710 697 626 603 710 b 133 499 281 710 157 626 l 83 210 b 315 -1 60 82 156 -1 b 624 210 478 -1 600 82 "},"ô":{"ha":743,"x_min":0,"x_max":0,"o":"m 242 801 b 238 807 235 801 233 803 l 469 971 b 485 978 476 975 481 978 l 489 978 b 503 971 493 978 499 975 l 675 807 b 671 801 679 803 678 801 l 663 801 b 650 806 658 801 654 803 l 486 961 l 268 806 b 257 801 264 803 261 801 m 442 728 b 693 497 618 728 717 640 l 643 211 b 315 -19 619 68 489 -19 b 64 211 142 -19 40 71 l 114 497 b 222 665 126 568 163 624 b 442 728 282 707 356 728 m 674 499 b 440 710 697 626 603 710 b 133 499 281 710 157 626 l 83 210 b 315 -1 60 82 156 -1 b 624 210 478 -1 600 82 "},"õ":{"ha":743,"x_min":0,"x_max":0,"o":"m 692 953 b 696 947 696 953 697 951 b 579 826 681 867 642 826 b 364 935 478 826 456 935 b 265 832 314 935 276 893 b 260 826 265 828 264 826 l 251 826 b 246 832 247 826 246 828 b 365 953 258 906 303 953 b 476 899 400 953 436 935 b 579 844 515 863 550 844 b 676 947 631 844 665 886 b 683 953 678 951 679 953 m 114 497 b 222 665 126 568 163 624 b 442 728 282 707 356 728 b 693 497 618 728 717 640 l 643 211 b 315 -19 619 68 489 -19 b 64 211 142 -19 40 71 m 674 499 b 440 710 697 626 603 710 b 133 499 281 710 157 626 l 83 210 b 315 -1 60 82 156 -1 b 624 210 478 -1 600 82 "},"ö":{"ha":743,"x_min":0,"x_max":0,"o":"m 351 921 b 364 906 364 921 365 918 l 363 897 b 344 882 361 888 354 882 l 336 882 b 324 897 326 882 322 888 l 325 906 b 343 921 326 915 332 921 m 611 921 b 625 906 621 921 626 915 l 624 897 b 604 882 622 888 615 882 l 597 882 b 583 897 582 882 582 885 l 585 906 b 604 921 586 915 592 921 m 114 497 b 222 665 126 568 163 624 b 442 728 282 707 356 728 b 693 497 618 728 717 640 l 643 211 b 315 -19 619 68 489 -19 b 64 211 142 -19 40 71 m 674 499 b 440 710 697 626 603 710 b 133 499 281 710 157 626 l 83 210 b 315 -1 60 82 156 -1 b 624 210 478 -1 600 82 "},"÷":{"ha":847,"x_min":0,"x_max":0,"o":"m 485 760 b 500 742 497 760 503 754 l 499 736 b 478 718 497 724 490 718 l 472 718 b 457 736 457 718 456 721 l 458 742 b 479 760 461 754 468 760 m 750 460 b 756 454 754 460 756 458 l 754 446 b 747 440 753 442 751 440 l 106 440 b 101 446 101 440 100 442 l 103 454 b 108 460 103 458 104 460 m 385 186 b 399 168 397 186 401 181 l 399 163 b 376 144 396 150 389 144 l 371 144 b 357 163 356 144 356 147 l 357 168 b 379 186 360 181 367 186 "},"ø":{"ha":743,"x_min":0,"x_max":0,"o":"m 700 767 b 701 763 701 767 703 765 l 622 665 b 674 497 668 622 686 567 l 624 211 b 294 -19 600 68 468 -19 b 110 31 218 -19 156 -3 l 49 -44 b 40 -49 46 -47 43 -49 l 26 -49 b 25 -44 25 -49 24 -46 l 94 42 b 44 211 49 83 32 140 l 94 497 b 421 728 118 640 249 728 b 608 678 500 728 563 711 l 679 764 b 686 767 681 765 683 767 m 597 661 b 421 710 553 693 494 710 b 114 499 261 710 138 626 l 64 210 b 106 57 51 143 65 92 m 121 46 b 296 -1 161 14 219 -1 b 604 210 458 -1 581 82 l 654 499 b 610 649 665 561 650 611 "},"ù":{"ha":754,"x_min":0,"x_max":0,"o":"m 393 985 b 406 986 397 989 401 989 l 622 826 b 622 818 625 824 625 821 l 621 817 b 611 815 617 813 614 813 l 392 974 b 392 983 388 976 388 979 m 747 708 b 751 703 751 708 753 707 l 646 100 b 581 25 636 57 625 43 b 331 -19 504 -4 421 -19 b 115 244 156 -19 83 68 l 196 703 b 203 708 197 707 199 708 l 211 708 b 215 703 215 708 217 707 l 135 246 b 332 -1 106 81 172 -1 b 581 43 422 -1 506 14 b 626 100 607 54 622 74 l 732 703 b 739 708 733 707 735 708 "},"ú":{"ha":754,"x_min":0,"x_max":0,"o":"m 640 986 b 653 985 644 989 649 989 l 656 981 b 653 971 660 976 658 974 l 376 813 b 367 814 372 811 369 811 l 363 819 b 365 828 360 822 361 825 m 747 708 b 751 703 751 708 753 707 l 646 100 b 581 25 636 57 625 43 b 331 -19 504 -4 421 -19 b 115 244 156 -19 83 68 l 196 703 b 203 708 197 707 199 708 l 211 708 b 215 703 215 708 217 707 l 135 246 b 332 -1 106 81 172 -1 b 581 43 422 -1 506 14 b 626 100 607 54 622 74 l 732 703 b 739 708 733 707 735 708 "},"û":{"ha":754,"x_min":0,"x_max":0,"o":"m 524 978 b 538 971 528 978 533 975 l 710 807 b 706 801 714 803 713 801 l 697 801 b 685 806 693 801 689 803 l 521 961 l 303 806 b 292 801 299 803 294 801 l 276 801 b 272 807 269 801 268 803 l 504 971 b 519 978 511 975 515 978 m 747 708 b 751 703 751 708 753 707 l 646 100 b 581 25 636 57 625 43 b 331 -19 504 -4 421 -19 b 115 244 156 -19 83 68 l 196 703 b 203 708 197 707 199 708 l 211 708 b 215 703 215 708 217 707 l 135 246 b 332 -1 106 81 172 -1 b 581 43 422 -1 506 14 b 626 100 607 54 622 74 l 732 703 b 739 708 733 707 735 708 "},"ü":{"ha":754,"x_min":0,"x_max":0,"o":"m 386 921 b 399 906 399 921 400 918 l 397 897 b 379 882 396 888 389 882 l 371 882 b 358 897 361 882 357 888 l 360 906 b 378 921 361 915 367 921 m 646 921 b 660 906 656 921 661 915 l 658 897 b 639 882 657 888 650 882 l 632 882 b 618 897 617 882 617 885 l 619 906 b 639 921 621 915 626 921 m 747 708 b 751 703 751 708 753 707 l 646 100 b 581 25 636 57 625 43 b 331 -19 504 -4 421 -19 b 115 244 156 -19 83 68 l 196 703 b 203 708 197 707 199 708 l 211 708 b 215 703 215 708 217 707 l 135 246 b 332 -1 106 81 172 -1 b 581 43 422 -1 506 14 b 626 100 607 54 622 74 l 732 703 b 739 708 733 707 735 708 "},"ý":{"ha":758,"x_min":0,"x_max":0,"o":"m 594 986 b 607 985 599 989 603 989 l 610 981 b 607 971 614 976 613 974 l 331 813 b 321 814 326 811 324 811 l 317 819 b 319 828 314 822 315 825 m 701 708 b 706 703 706 708 707 707 l 571 -62 b 235 -361 536 -261 424 -361 b 0 -194 111 -361 32 -306 b 4 -186 -1 -190 0 -187 l 11 -183 b 18 -186 15 -182 18 -182 b 239 -342 50 -286 110 -342 b 551 -62 414 -342 518 -249 l 569 38 b 285 -19 465 0 371 -19 b 69 244 110 -19 38 68 l 150 703 b 157 708 151 707 153 708 l 165 708 b 169 703 169 708 171 707 l 89 246 b 288 -1 61 81 117 -1 b 572 57 376 -1 471 18 l 686 703 b 693 708 688 707 689 708 "},"þ":{"ha":742,"x_min":0,"x_max":0,"o":"m 213 1022 b 219 1028 213 1026 215 1028 l 228 1028 b 232 1022 231 1028 232 1026 l 167 653 b 431 715 243 694 332 715 b 665 440 621 715 699 624 l 631 242 b 325 -21 599 67 497 -21 b 61 53 226 -21 138 4 l -1 -300 b -8 -306 -3 -304 -4 -306 l -17 -306 b -21 -300 -21 -306 -22 -304 m 646 440 b 428 697 675 611 603 697 b 163 632 332 697 243 675 l 65 75 b 207 14 93 54 126 35 b 329 -3 247 3 288 -3 b 611 242 489 -3 582 79 "},"ÿ":{"ha":758,"x_min":0,"x_max":0,"o":"m 340 921 b 353 906 353 921 354 918 l 351 897 b 333 882 350 888 343 882 l 325 882 b 313 897 315 882 311 888 l 314 906 b 332 921 315 915 321 921 m 600 921 b 614 906 610 921 615 915 l 613 897 b 593 882 611 888 604 882 l 586 882 b 572 897 571 882 571 885 l 574 906 b 593 921 575 915 581 921 m 701 708 b 706 703 706 708 707 707 l 571 -62 b 235 -361 536 -261 424 -361 b 0 -194 111 -361 32 -306 b 4 -186 -1 -190 0 -187 l 11 -183 b 18 -186 15 -182 18 -182 b 239 -342 50 -286 110 -342 b 551 -62 414 -342 518 -249 l 569 38 b 285 -19 465 0 371 -19 b 69 244 110 -19 38 68 l 150 703 b 157 708 151 707 153 708 l 165 708 b 169 703 169 708 171 707 l 89 246 b 288 -1 61 81 117 -1 b 572 57 376 -1 471 18 l 686 703 b 693 708 688 707 689 708 "},"Ā":{"ha":861,"x_min":0,"x_max":0,"o":"m 732 1149 b 736 1143 736 1149 738 1147 l 735 1136 b 729 1131 735 1132 733 1131 l 396 1131 b 390 1136 392 1131 390 1132 l 392 1143 b 399 1149 393 1147 394 1149 m 778 6 b 771 0 778 1 775 0 l 765 0 b 757 6 760 0 757 1 l 674 363 l 182 363 l -26 6 b -37 0 -29 1 -33 0 l -46 0 b -50 6 -53 0 -54 1 l 522 988 b 533 994 525 992 529 994 l 542 994 b 550 988 547 994 550 992 m 538 953 b 535 969 538 954 535 964 l 533 969 b 526 953 531 961 528 956 l 193 382 l 671 382 "},"ā":{"ha":731,"x_min":0,"x_max":0,"o":"m 657 896 b 663 890 661 896 663 894 l 661 883 b 654 878 660 879 658 878 l 321 878 b 317 883 317 878 315 879 l 318 890 b 324 896 318 894 319 896 m 114 472 b 440 728 143 650 244 728 b 650 689 522 728 593 715 b 693 613 693 671 700 657 l 593 43 b 579 31 592 39 588 35 b 285 -19 492 -3 393 -19 b 76 264 111 -19 44 92 m 640 671 b 438 710 583 697 515 710 b 133 472 256 710 163 640 l 96 264 b 288 -1 67 101 126 -1 b 574 49 397 -1 493 15 l 674 613 b 640 671 679 650 675 654 "},"Ă":{"ha":861,"x_min":0,"x_max":0,"o":"m 783 1224 b 553 1064 735 1113 665 1064 b 372 1224 438 1064 382 1113 b 376 1231 372 1228 374 1231 l 386 1232 b 392 1228 390 1232 392 1231 b 554 1083 399 1128 450 1083 b 765 1229 656 1083 721 1128 b 774 1233 768 1233 771 1235 l 782 1231 b 783 1224 785 1229 785 1226 m 778 6 b 771 0 778 1 775 0 l 765 0 b 757 6 760 0 757 1 l 674 363 l 182 363 l -26 6 b -37 0 -29 1 -33 0 l -46 0 b -50 6 -53 0 -54 1 l 522 988 b 533 994 525 992 529 994 l 542 994 b 550 988 547 994 550 992 m 538 953 b 535 969 538 954 535 964 l 533 969 b 526 953 531 961 528 956 l 193 382 l 671 382 "},"ă":{"ha":731,"x_min":0,"x_max":0,"o":"m 710 971 b 481 811 664 864 588 811 b 299 971 365 811 308 860 b 303 978 297 975 299 978 l 311 979 b 318 975 315 981 317 979 b 479 831 325 875 375 831 b 692 976 578 831 649 879 b 699 981 693 981 694 982 l 708 978 b 710 971 710 976 711 975 m 114 472 b 440 728 143 650 244 728 b 650 689 522 728 593 715 b 693 613 693 671 700 657 l 593 43 b 579 31 592 39 588 35 b 285 -19 492 -3 393 -19 b 76 264 111 -19 44 92 m 640 671 b 438 710 583 697 515 710 b 133 472 256 710 163 640 l 96 264 b 288 -1 67 101 126 -1 b 574 49 397 -1 493 15 l 674 613 b 640 671 679 650 675 654 "},"Ą":{"ha":861,"x_min":0,"x_max":0,"o":"m 542 994 b 550 988 547 994 550 992 l 778 6 b 775 0 778 3 776 1 b 565 -279 629 -100 550 -211 b 628 -325 572 -314 588 -325 b 744 -274 668 -325 707 -308 b 750 -275 747 -271 749 -271 l 753 -286 b 749 -294 754 -287 753 -290 b 624 -344 708 -328 667 -344 b 546 -287 581 -344 556 -325 b 757 7 529 -210 606 -94 b 756 11 756 8 756 10 l 674 363 l 182 363 l -26 6 b -37 0 -29 1 -33 0 l -46 0 b -50 6 -53 0 -54 1 l 522 988 b 533 994 525 992 529 994 m 538 953 b 535 969 538 954 535 964 l 533 969 b 526 953 531 961 528 956 l 193 382 l 671 382 "},"ą":{"ha":733,"x_min":0,"x_max":0,"o":"m 114 472 b 440 728 143 650 244 728 b 650 689 522 728 593 715 b 693 613 693 671 700 657 l 593 43 b 588 35 592 39 589 36 b 360 -279 428 -83 344 -206 b 422 -325 367 -314 382 -325 b 539 -274 463 -325 501 -308 b 544 -275 542 -271 543 -271 l 547 -286 b 543 -294 549 -287 547 -290 b 418 -344 503 -328 461 -344 b 340 -287 375 -344 350 -325 b 539 17 324 -214 396 -96 b 285 -19 457 -7 372 -19 b 104 58 197 -19 138 7 b 76 264 69 110 61 178 m 640 671 b 438 710 583 697 515 710 b 133 472 256 710 163 640 l 96 264 b 288 -1 67 101 126 -1 b 574 49 397 -1 493 15 l 674 613 b 640 671 679 650 675 654 "},"Ć":{"ha":876,"x_min":0,"x_max":0,"o":"m 744 1238 b 757 1236 749 1240 753 1240 l 760 1232 b 757 1222 764 1228 763 1225 l 481 1064 b 471 1065 476 1063 474 1063 l 467 1071 b 469 1079 465 1074 465 1076 m 163 671 b 583 1006 200 882 346 1006 b 901 760 796 1006 885 926 b 896 751 903 756 900 753 l 890 750 b 883 753 886 749 883 749 b 583 986 865 915 783 986 b 183 672 357 986 217 868 l 122 319 b 410 3 88 119 188 3 b 797 242 615 3 721 76 b 806 246 799 246 801 247 l 813 243 b 815 235 817 242 817 239 b 667 43 775 147 726 83 b 411 -19 607 1 521 -19 b 100 317 176 -19 63 107 "},"ć":{"ha":708,"x_min":0,"x_max":0,"o":"m 599 986 b 611 985 603 989 607 989 l 614 981 b 611 971 618 976 617 974 l 335 813 b 325 814 331 811 328 811 l 321 819 b 324 828 318 822 319 825 m 110 468 b 442 728 139 633 254 728 b 690 533 607 728 674 660 b 686 525 692 528 690 525 l 679 524 b 672 526 675 522 672 524 b 439 708 656 650 593 708 b 129 465 265 708 157 617 l 90 244 b 314 0 64 93 143 0 b 618 193 465 0 557 60 b 625 197 619 197 621 199 l 635 194 b 636 188 636 193 638 192 b 313 -19 574 47 472 -19 b 71 247 129 -19 42 81 "},"Ĉ":{"ha":876,"x_min":0,"x_max":0,"o":"m 629 1240 b 644 1233 633 1240 639 1238 l 817 1069 b 811 1064 818 1065 817 1064 l 803 1064 b 792 1068 799 1064 794 1065 l 628 1221 l 410 1068 b 397 1064 406 1065 401 1064 l 382 1064 b 379 1069 375 1064 374 1065 l 611 1233 b 625 1240 617 1238 621 1240 m 163 671 b 583 1006 200 882 346 1006 b 901 760 796 1006 885 926 b 896 751 903 756 900 753 l 890 750 b 883 753 886 749 883 749 b 583 986 865 915 783 986 b 183 672 357 986 217 868 l 122 319 b 410 3 88 119 188 3 b 797 242 615 3 721 76 b 806 246 799 246 801 247 l 813 243 b 815 235 817 242 817 239 b 667 43 775 147 726 83 b 411 -19 607 1 521 -19 b 100 317 176 -19 63 107 "},"ĉ":{"ha":708,"x_min":0,"x_max":0,"o":"m 235 801 b 231 807 228 801 226 803 l 463 971 b 478 978 469 975 474 978 l 482 978 b 496 971 486 978 492 975 l 668 807 b 664 801 672 803 671 801 l 656 801 b 643 806 651 801 647 803 l 479 961 l 261 806 b 250 801 257 803 253 801 m 690 533 b 686 525 692 528 690 525 l 679 524 b 672 526 675 522 672 524 b 439 708 656 650 593 708 b 129 465 265 708 157 617 l 90 244 b 314 0 64 93 143 0 b 618 193 465 0 557 60 b 625 197 619 197 621 199 l 635 194 b 636 188 636 193 638 192 b 313 -19 574 47 472 -19 b 71 247 129 -19 42 81 l 110 468 b 442 728 139 633 254 728 b 690 533 607 728 674 660 "},"Ċ":{"ha":876,"x_min":0,"x_max":0,"o":"m 617 1158 b 631 1142 629 1158 633 1153 l 629 1136 b 610 1119 628 1125 622 1119 l 604 1119 b 590 1136 592 1119 589 1124 l 592 1142 b 611 1158 594 1153 601 1158 m 163 671 b 583 1006 200 882 346 1006 b 901 760 796 1006 885 926 b 896 751 903 756 900 753 l 890 750 b 883 753 886 749 883 749 b 583 986 865 915 783 986 b 183 672 357 986 217 868 l 122 319 b 410 3 88 119 188 3 b 797 242 615 3 721 76 b 806 246 799 246 801 247 l 813 243 b 815 235 817 242 817 239 b 667 43 775 147 726 83 b 411 -19 607 1 521 -19 b 100 317 176 -19 63 107 "},"ċ":{"ha":708,"x_min":0,"x_max":0,"o":"m 471 907 b 485 890 481 907 486 901 l 483 885 b 464 868 482 874 476 868 l 458 868 b 444 885 446 868 443 872 l 446 890 b 465 907 447 901 453 907 m 110 468 b 442 728 139 633 254 728 b 690 533 607 728 674 660 b 686 525 692 528 690 525 l 679 524 b 672 526 675 522 672 524 b 439 708 656 650 593 708 b 129 465 265 708 157 617 l 90 244 b 314 0 64 93 143 0 b 618 193 465 0 557 60 b 625 197 619 197 621 199 l 635 194 b 636 188 636 193 638 192 b 313 -19 574 47 472 -19 b 71 247 129 -19 42 81 "},"Č":{"ha":876,"x_min":0,"x_max":0,"o":"m 843 1242 b 844 1235 849 1242 849 1239 l 615 1072 b 599 1065 608 1068 603 1065 l 594 1065 b 582 1072 590 1065 586 1068 l 410 1235 b 408 1240 408 1236 407 1238 l 414 1242 l 426 1242 b 436 1238 429 1242 432 1240 l 597 1085 l 818 1238 b 832 1242 822 1240 828 1242 m 163 671 b 583 1006 200 882 346 1006 b 901 760 796 1006 885 926 b 896 751 903 756 900 753 l 890 750 b 883 753 886 749 883 749 b 583 986 865 915 783 986 b 183 672 357 986 217 868 l 122 319 b 410 3 88 119 188 3 b 797 242 615 3 721 76 b 806 246 799 246 801 247 l 813 243 b 815 235 817 242 817 239 b 667 43 775 147 726 83 b 411 -19 607 1 521 -19 b 100 317 176 -19 63 107 "},"č":{"ha":708,"x_min":0,"x_max":0,"o":"m 694 978 b 696 971 700 978 700 975 l 467 808 b 451 801 461 804 456 801 l 450 801 b 436 808 446 801 442 804 l 263 972 b 265 978 261 976 261 978 l 278 978 b 288 974 282 978 285 976 l 451 821 l 669 974 b 683 978 674 976 678 978 m 442 728 b 690 533 607 728 674 660 b 686 525 692 528 690 525 l 679 524 b 672 526 675 522 672 524 b 439 708 656 650 593 708 b 129 465 265 708 157 617 l 90 244 b 314 0 64 93 143 0 b 618 193 465 0 557 60 b 625 197 619 197 621 199 l 635 194 b 636 188 636 193 638 192 b 313 -19 574 47 472 -19 b 71 247 129 -19 42 81 l 110 468 b 442 728 139 633 254 728 "},"Ď":{"ha":886,"x_min":0,"x_max":0,"o":"m 786 1242 b 788 1235 792 1242 792 1239 l 558 1072 b 542 1065 551 1068 546 1065 l 538 1065 b 525 1072 533 1065 529 1068 l 353 1235 b 351 1240 351 1236 350 1238 b 357 1242 353 1242 354 1242 l 369 1242 b 379 1238 372 1242 375 1240 l 540 1085 l 761 1238 b 775 1242 765 1240 771 1242 m 501 986 b 839 617 757 986 879 846 l 794 364 b 328 0 754 136 583 0 l 54 0 b 50 6 50 0 49 1 l 222 981 b 228 986 222 985 224 986 m 819 619 b 499 967 857 838 743 967 l 240 967 l 74 19 l 332 19 b 775 367 576 19 736 149 "},"ď":{"ha":750,"x_min":0,"x_max":0,"o":"m 135 464 b 439 728 167 640 268 728 b 706 665 540 728 629 707 l 769 1022 b 776 1028 769 1026 772 1028 l 785 1028 b 789 1022 788 1028 789 1026 l 625 96 b 557 19 618 51 606 38 b 333 -19 489 -7 415 -19 b 97 256 144 -19 65 72 m 861 714 b 853 707 860 710 857 707 l 847 707 b 842 714 843 707 840 710 l 956 1022 b 963 1028 957 1026 958 1028 l 971 1028 b 976 1022 975 1028 978 1026 m 703 644 b 436 710 629 688 540 710 b 154 464 278 710 183 628 l 117 256 b 336 -1 88 85 160 -1 b 553 38 415 -1 488 11 b 606 96 593 54 599 58 "},"Đ":{"ha":896,"x_min":0,"x_max":0,"o":"m 511 986 b 849 617 767 986 889 846 l 804 364 b 338 0 764 136 593 0 l 64 0 b 60 6 60 0 58 1 l 143 482 l 19 482 b 13 489 14 482 11 485 l 14 494 b 24 501 15 499 18 501 l 147 501 l 232 981 b 238 986 232 985 233 986 m 829 619 b 508 967 867 838 753 967 l 250 967 l 168 501 l 467 501 b 472 494 471 501 474 499 l 471 489 b 463 482 469 485 467 482 l 164 482 l 83 19 l 342 19 b 785 367 586 19 746 149 "},"đ":{"ha":738,"x_min":0,"x_max":0,"o":"m 881 888 b 886 881 885 888 888 885 l 885 878 b 878 871 885 874 882 871 l 764 871 l 626 96 b 558 19 619 51 607 38 b 335 -19 490 -7 417 -19 b 99 256 146 -19 67 72 l 136 464 b 440 726 168 639 269 726 b 707 665 547 726 636 706 l 744 871 l 485 871 b 478 878 481 871 478 874 l 479 881 b 488 888 481 885 483 888 l 747 888 l 771 1022 b 778 1028 771 1026 774 1028 l 786 1028 b 790 1022 789 1028 790 1026 l 767 888 m 704 646 b 438 708 636 688 547 708 b 156 464 278 708 185 626 l 118 256 b 338 -1 89 85 161 -1 b 554 38 417 -1 489 11 b 607 96 594 54 600 58 "},"Ē":{"ha":785,"x_min":0,"x_max":0,"o":"m 711 1149 b 715 1143 715 1149 717 1147 l 714 1136 b 708 1131 714 1132 713 1131 l 375 1131 b 369 1136 371 1131 369 1132 l 371 1143 b 378 1149 372 1147 374 1149 m 801 986 b 807 981 806 986 807 985 l 804 972 b 799 967 804 968 803 967 l 240 967 l 160 510 l 660 510 b 664 504 664 510 665 508 l 663 496 b 656 490 661 492 660 490 l 156 490 l 74 19 l 653 19 b 657 14 656 19 657 18 l 656 6 b 649 0 654 1 653 0 l 54 0 b 50 6 50 0 49 1 l 222 981 b 228 986 222 985 224 986 "},"ē":{"ha":714,"x_min":0,"x_max":0,"o":"m 306 878 b 301 883 301 878 300 879 l 303 890 b 308 896 303 894 304 896 l 642 896 b 647 890 646 896 647 894 l 646 883 b 639 878 644 879 643 878 m 444 728 b 688 494 633 728 726 643 b 376 310 658 372 544 310 b 104 339 278 310 186 319 l 88 246 b 306 -1 60 90 133 -1 b 603 149 446 -1 532 50 b 611 151 604 153 607 153 l 618 147 b 618 140 619 146 619 144 b 303 -19 543 33 438 -19 b 68 246 118 -19 39 79 l 104 444 b 444 728 136 624 261 728 m 668 499 b 442 710 706 636 618 710 b 122 442 271 710 151 610 l 107 358 b 381 328 186 338 276 328 b 668 499 543 328 639 385 "},"Ĕ":{"ha":785,"x_min":0,"x_max":0,"o":"m 763 1224 b 532 1064 714 1113 644 1064 b 351 1224 417 1064 361 1113 b 356 1231 351 1228 353 1231 l 365 1232 b 371 1228 369 1232 371 1231 b 533 1083 378 1128 429 1083 b 744 1229 635 1083 700 1128 b 753 1233 747 1233 750 1235 l 761 1231 b 763 1224 764 1229 764 1226 m 801 986 b 807 981 806 986 807 985 l 804 972 b 799 967 804 968 803 967 l 240 967 l 160 510 l 660 510 b 664 504 664 510 665 508 l 663 496 b 656 490 661 492 660 490 l 156 490 l 74 19 l 653 19 b 657 14 656 19 657 18 l 656 6 b 649 0 654 1 653 0 l 54 0 b 50 6 50 0 49 1 l 222 981 b 228 986 222 985 224 986 "},"ĕ":{"ha":714,"x_min":0,"x_max":0,"o":"m 694 971 b 465 811 649 864 572 811 b 283 971 350 811 293 860 b 288 978 282 975 283 978 l 296 979 b 303 975 300 981 301 979 b 464 831 310 875 360 831 b 676 976 563 831 633 879 b 683 981 678 981 679 982 l 693 978 b 694 971 694 976 696 975 m 104 444 b 444 728 136 624 261 728 b 688 494 633 728 726 643 b 376 310 658 372 544 310 b 104 339 278 310 186 319 l 88 246 b 306 -1 60 90 133 -1 b 603 149 446 -1 532 50 b 611 151 604 153 607 153 l 618 147 b 618 140 619 146 619 144 b 303 -19 543 33 438 -19 b 68 246 118 -19 39 79 m 668 499 b 442 710 706 636 618 710 b 122 442 271 710 151 610 l 107 358 b 381 328 186 338 276 328 b 668 499 543 328 639 385 "},"Ė":{"ha":785,"x_min":0,"x_max":0,"o":"m 549 1158 b 563 1142 561 1158 565 1153 l 561 1136 b 542 1119 560 1125 554 1119 l 536 1119 b 522 1136 524 1119 521 1124 l 524 1142 b 543 1158 526 1153 533 1158 m 801 986 b 807 981 806 986 807 985 l 804 972 b 799 967 804 968 803 967 l 240 967 l 160 510 l 660 510 b 664 504 664 510 665 508 l 663 496 b 656 490 661 492 660 490 l 156 490 l 74 19 l 653 19 b 657 14 656 19 657 18 l 656 6 b 649 0 654 1 653 0 l 54 0 b 50 6 50 0 49 1 l 222 981 b 228 986 222 985 224 986 "},"ė":{"ha":714,"x_min":0,"x_max":0,"o":"m 481 908 b 494 892 490 908 496 903 l 493 886 b 474 869 492 875 486 869 l 468 869 b 454 886 456 869 453 874 l 456 892 b 475 908 457 903 463 908 m 104 444 b 444 728 136 624 261 728 b 688 494 633 728 726 643 b 376 310 658 372 544 310 b 104 339 278 310 186 319 l 88 246 b 306 -1 60 90 133 -1 b 603 149 446 -1 532 50 b 611 151 604 153 607 153 l 618 147 b 618 140 619 146 619 144 b 303 -19 543 33 438 -19 b 68 246 118 -19 39 79 m 668 499 b 442 710 706 636 618 710 b 122 442 271 710 151 610 l 107 358 b 381 328 186 338 276 328 b 668 499 543 328 639 385 "},"Ę":{"ha":785,"x_min":0,"x_max":0,"o":"m 801 986 b 807 981 806 986 807 985 l 804 972 b 799 967 804 968 803 967 l 240 967 l 160 510 l 660 510 b 664 504 664 510 665 508 l 663 496 b 656 490 661 492 660 490 l 156 490 l 74 19 l 653 19 b 657 14 656 19 657 18 l 656 6 b 651 0 654 4 653 1 b 438 -279 508 -94 422 -207 b 500 -325 444 -314 460 -325 b 617 -274 540 -325 579 -308 b 622 -275 619 -271 621 -271 l 625 -286 b 621 -294 626 -287 625 -290 b 496 -344 581 -328 539 -344 b 418 -287 453 -344 428 -325 b 625 0 401 -211 482 -94 l 54 0 b 50 6 50 0 49 1 l 222 981 b 228 986 222 985 224 986 "},"ę":{"ha":714,"x_min":0,"x_max":0,"o":"m 104 444 b 444 728 136 624 261 728 b 688 494 633 728 726 643 b 376 310 658 372 544 310 b 104 339 278 310 186 319 l 88 246 b 306 -1 60 90 133 -1 b 603 149 446 -1 532 50 b 611 151 604 153 607 153 l 618 147 b 618 140 619 146 619 144 b 515 38 590 100 556 67 b 350 -132 446 -11 390 -68 b 300 -276 310 -194 293 -243 b 365 -324 307 -311 325 -324 b 479 -274 406 -324 443 -307 b 485 -275 482 -271 483 -271 l 488 -286 b 483 -294 489 -287 488 -290 b 357 -344 443 -328 400 -344 b 279 -286 311 -344 286 -325 b 450 6 264 -219 332 -101 b 303 -19 408 -11 360 -19 b 68 246 118 -19 39 79 m 381 328 b 668 499 543 328 639 385 b 442 710 706 636 618 710 b 122 442 271 710 151 610 l 107 358 b 381 328 186 338 276 328 "},"Ě":{"ha":785,"x_min":0,"x_max":0,"o":"m 775 1242 b 776 1235 781 1242 781 1239 l 547 1072 b 531 1065 540 1068 535 1065 l 526 1065 b 514 1072 522 1065 518 1068 l 342 1235 b 340 1240 340 1236 339 1238 b 346 1242 342 1242 343 1242 l 358 1242 b 368 1238 361 1242 364 1240 l 529 1085 l 750 1238 b 764 1242 754 1240 758 1242 m 801 986 b 807 981 806 986 807 985 l 804 972 b 799 967 804 968 803 967 l 240 967 l 160 510 l 660 510 b 664 504 664 510 665 508 l 663 496 b 656 490 661 492 660 490 l 156 490 l 74 19 l 653 19 b 657 14 656 19 657 18 l 656 6 b 649 0 654 1 653 0 l 54 0 b 50 6 50 0 49 1 l 222 981 b 228 986 222 985 224 986 "},"ě":{"ha":714,"x_min":0,"x_max":0,"o":"m 704 979 b 706 972 710 979 710 976 l 476 810 b 461 803 471 806 465 803 l 460 803 b 446 810 456 803 451 806 l 272 974 b 275 979 271 978 271 979 l 288 979 b 297 975 292 979 294 978 l 461 822 l 679 975 b 693 979 683 978 688 979 m 444 728 b 688 494 633 728 726 643 b 376 310 658 372 544 310 b 104 339 278 310 186 319 l 88 246 b 306 -1 60 90 133 -1 b 603 149 446 -1 532 50 b 611 151 604 153 607 153 l 618 147 b 618 140 619 146 619 144 b 303 -19 543 33 438 -19 b 68 246 118 -19 39 79 l 104 444 b 444 728 136 624 261 728 m 668 499 b 442 710 706 636 618 710 b 122 442 271 710 151 610 l 107 358 b 381 328 186 338 276 328 b 668 499 543 328 639 385 "},"Ĝ":{"ha":899,"x_min":0,"x_max":0,"o":"m 632 1254 b 647 1247 636 1254 642 1251 l 819 1083 b 814 1078 821 1079 819 1078 l 806 1078 b 794 1082 801 1078 797 1079 l 631 1235 l 413 1082 b 400 1078 408 1079 404 1078 l 385 1078 b 382 1083 378 1078 376 1079 l 614 1247 b 628 1254 619 1251 624 1254 m 853 479 b 858 472 857 479 860 476 l 831 318 b 411 -19 793 107 644 -19 b 100 318 174 -19 63 107 l 163 671 b 583 1006 200 882 346 1006 b 903 760 796 1006 886 925 b 897 751 903 756 901 753 l 890 750 b 883 753 886 749 883 749 b 583 986 865 915 783 986 b 183 672 356 986 218 871 l 122 319 b 411 0 88 118 183 0 b 811 319 632 0 776 119 l 835 460 l 503 460 b 499 465 500 460 499 461 l 500 474 b 507 479 501 478 503 479 "},"ĝ":{"ha":738,"x_min":0,"x_max":0,"o":"m 233 801 b 229 807 226 801 225 803 l 461 971 b 476 978 468 975 472 978 l 481 978 b 494 971 485 978 490 975 l 667 807 b 663 801 671 803 669 801 l 654 801 b 642 806 650 801 646 803 l 478 961 l 260 806 b 249 801 256 803 251 801 m 631 689 b 674 613 674 671 681 657 l 554 -62 b 221 -361 519 -261 408 -361 b -11 -194 99 -361 21 -306 b -7 -186 -12 -190 -11 -187 l 0 -183 b 7 -186 3 -182 6 -182 b 225 -342 36 -287 96 -342 b 535 -62 399 -342 501 -249 l 553 42 b 265 -19 465 1 369 -19 b 53 247 89 -19 24 79 l 90 457 b 421 728 121 638 231 728 b 631 689 503 728 574 715 m 654 613 b 621 671 660 650 656 654 b 418 710 564 697 496 710 b 110 457 239 710 142 628 l 72 247 b 268 -1 43 82 108 -1 b 557 64 374 -1 469 21 "},"Ğ":{"ha":899,"x_min":0,"x_max":0,"o":"m 833 1238 b 603 1078 785 1126 715 1078 b 422 1238 488 1078 432 1126 b 426 1244 422 1242 424 1244 l 436 1246 b 442 1242 440 1246 442 1244 b 604 1097 449 1142 500 1097 b 815 1243 706 1097 771 1142 b 824 1247 818 1247 821 1249 l 832 1244 b 833 1238 835 1243 835 1240 m 853 479 b 858 472 857 479 860 476 l 831 318 b 411 -19 793 107 644 -19 b 100 318 174 -19 63 107 l 163 671 b 583 1006 200 882 346 1006 b 903 760 796 1006 886 925 b 897 751 903 756 901 753 l 890 750 b 883 753 886 749 883 749 b 583 986 865 915 783 986 b 183 672 356 986 218 871 l 122 319 b 411 0 88 118 183 0 b 811 319 632 0 776 119 l 835 460 l 503 460 b 499 465 500 460 499 461 l 500 474 b 507 479 501 478 503 479 "},"ğ":{"ha":738,"x_min":0,"x_max":0,"o":"m 683 969 b 454 810 638 863 561 810 b 272 969 339 810 282 858 b 276 976 271 974 272 976 l 285 978 b 292 974 289 979 290 978 b 453 829 299 874 349 829 b 665 975 551 829 622 878 b 672 979 667 979 668 981 l 682 976 b 683 969 683 975 685 974 m 90 457 b 421 728 121 638 231 728 b 631 689 503 728 574 715 b 674 613 674 671 681 657 l 554 -62 b 221 -361 519 -261 408 -361 b -11 -194 99 -361 21 -306 b -7 -186 -12 -190 -11 -187 l 0 -183 b 7 -186 3 -182 6 -182 b 225 -342 36 -287 96 -342 b 535 -62 399 -342 501 -249 l 553 42 b 265 -19 465 1 369 -19 b 53 247 89 -19 24 79 m 621 671 b 418 710 564 697 496 710 b 110 457 239 710 142 628 l 72 247 b 268 -1 43 82 108 -1 b 557 64 374 -1 469 21 l 654 613 b 621 671 660 650 656 654 "},"Ġ":{"ha":899,"x_min":0,"x_max":0,"o":"m 619 1172 b 633 1156 632 1172 636 1167 l 632 1150 b 613 1133 631 1139 625 1133 l 607 1133 b 593 1150 594 1133 592 1138 l 594 1156 b 614 1172 597 1167 604 1172 m 853 479 b 858 472 857 479 860 476 l 831 318 b 411 -19 793 107 644 -19 b 100 318 174 -19 63 107 l 163 671 b 583 1006 200 882 346 1006 b 903 760 796 1006 886 925 b 897 751 903 756 901 753 l 890 750 b 883 753 886 749 883 749 b 583 986 865 915 783 986 b 183 672 356 986 218 871 l 122 319 b 411 0 88 118 183 0 b 811 319 632 0 776 119 l 835 460 l 503 460 b 499 465 500 460 499 461 l 500 474 b 507 479 501 478 503 479 "},"ġ":{"ha":738,"x_min":0,"x_max":0,"o":"m 469 907 b 483 890 479 907 485 901 l 482 885 b 463 868 481 874 475 868 l 457 868 b 443 885 444 868 442 872 l 444 890 b 464 907 446 901 451 907 m 90 457 b 421 728 121 638 231 728 b 631 689 503 728 574 715 b 674 613 674 671 681 657 l 554 -62 b 221 -361 519 -261 408 -361 b -11 -194 99 -361 21 -306 b -7 -186 -12 -190 -11 -187 l 0 -183 b 7 -186 3 -182 6 -182 b 225 -342 36 -287 96 -342 b 535 -62 399 -342 501 -249 l 553 42 b 265 -19 465 1 369 -19 b 53 247 89 -19 24 79 m 621 671 b 418 710 564 697 496 710 b 110 457 239 710 142 628 l 72 247 b 268 -1 43 82 108 -1 b 557 64 374 -1 469 21 l 654 613 b 621 671 660 650 656 654 "},"Ģ":{"ha":899,"x_min":0,"x_max":0,"o":"m 853 479 b 858 472 857 479 860 476 l 831 318 b 411 -19 793 107 644 -19 b 100 318 174 -19 63 107 l 163 671 b 583 1006 200 882 346 1006 b 903 760 796 1006 886 925 b 897 751 903 756 901 753 l 890 750 b 883 753 886 749 883 749 b 583 986 865 915 783 986 b 183 672 356 986 218 871 l 122 319 b 411 0 88 118 183 0 b 811 319 632 0 776 119 l 835 460 l 503 460 b 499 465 500 460 499 461 l 500 474 b 507 479 501 478 503 479 m 326 -328 b 318 -335 324 -332 321 -335 l 313 -335 b 307 -328 306 -335 304 -332 l 408 -124 b 418 -118 410 -119 414 -118 l 425 -118 b 429 -125 431 -118 432 -121 "},"ģ":{"ha":738,"x_min":0,"x_max":0,"o":"m 521 1021 b 529 1028 524 1025 526 1028 l 535 1028 b 540 1021 542 1028 543 1025 l 419 821 b 411 815 418 817 415 815 l 404 815 b 399 822 397 815 396 818 m 90 457 b 421 728 121 638 231 728 b 631 689 503 728 574 715 b 674 613 674 671 681 657 l 554 -62 b 221 -361 519 -261 408 -361 b -11 -194 99 -361 21 -306 b -7 -186 -12 -190 -11 -187 l 0 -183 b 7 -186 3 -182 6 -182 b 225 -342 36 -287 96 -342 b 535 -62 399 -342 501 -249 l 553 42 b 265 -19 465 1 369 -19 b 53 247 89 -19 24 79 m 621 671 b 418 710 564 697 496 710 b 110 457 239 710 142 628 l 72 247 b 268 -1 43 82 108 -1 b 557 64 374 -1 469 21 l 654 613 b 621 671 660 650 656 654 "},"Ĥ":{"ha":942,"x_min":0,"x_max":0,"o":"m 617 1240 b 632 1233 621 1240 626 1238 l 804 1069 b 799 1064 806 1065 804 1064 l 790 1064 b 779 1068 786 1064 782 1065 l 615 1221 l 397 1068 b 385 1064 393 1065 389 1064 l 369 1064 b 367 1069 363 1064 361 1065 l 599 1233 b 613 1240 604 1238 608 1240 m 914 986 b 919 981 918 986 919 985 l 747 6 b 740 0 746 1 744 0 l 731 0 b 726 6 726 0 725 1 l 811 490 l 156 490 l 71 6 b 64 0 69 1 68 0 l 54 0 b 50 6 50 0 49 1 l 222 981 b 228 986 222 985 224 986 l 238 986 b 243 981 242 986 243 985 l 160 510 l 815 510 l 899 981 b 904 986 899 985 900 986 "},"ĥ":{"ha":757,"x_min":0,"x_max":0,"o":"m 51 1103 b 40 1099 47 1100 43 1099 l 25 1099 b 21 1104 18 1099 17 1100 l 253 1268 b 268 1275 260 1272 264 1275 l 272 1275 b 286 1268 276 1275 282 1272 l 458 1104 b 454 1099 463 1100 461 1099 l 446 1099 b 433 1103 442 1099 438 1100 l 269 1258 m 458 728 b 674 464 632 728 704 640 l 593 6 b 586 0 592 1 590 0 l 578 0 b 574 6 574 0 572 1 l 654 463 b 456 710 683 628 617 710 b 169 647 357 710 263 689 l 57 6 b 50 0 56 1 54 0 l 42 0 b 38 6 38 0 36 1 l 217 1022 b 224 1028 217 1026 219 1028 l 232 1028 b 236 1022 235 1028 236 1026 l 174 668 b 458 728 267 708 361 728 "},"Ħ":{"ha":947,"x_min":0,"x_max":0,"o":"m 996 797 b 1001 790 1000 797 1003 794 l 1001 786 b 993 778 1000 781 997 778 l 888 778 l 751 6 b 744 0 750 1 749 0 l 735 0 b 731 6 731 0 729 1 l 815 490 l 160 490 l 75 6 b 68 0 74 1 72 0 l 58 0 b 54 6 54 0 53 1 l 190 778 l 86 778 b 81 786 82 778 79 781 l 81 790 b 89 797 82 794 85 797 l 193 797 l 226 981 b 232 986 226 985 228 986 l 242 986 b 247 981 246 986 247 985 l 214 797 l 869 797 l 903 981 b 908 986 903 985 904 986 l 918 986 b 924 981 922 986 924 985 l 890 797 m 211 778 l 164 510 l 819 510 l 867 778 "},"ħ":{"ha":757,"x_min":0,"x_max":0,"o":"m 169 668 b 454 728 263 708 357 728 b 669 464 628 728 700 640 l 589 6 b 582 0 588 1 586 0 l 574 0 b 569 6 569 0 568 1 l 650 463 b 451 710 679 628 613 710 b 165 647 353 710 258 689 l 53 6 b 46 0 51 1 50 0 l 38 0 b 33 6 33 0 32 1 l 188 879 l 86 879 b 81 888 82 879 79 882 l 81 890 b 89 897 82 894 85 897 l 190 897 l 213 1022 b 219 1028 213 1026 215 1028 l 228 1028 b 232 1022 231 1028 232 1026 l 210 897 l 461 897 b 467 890 465 897 468 894 l 467 888 b 458 879 465 882 463 879 l 207 879 "},"Ĩ":{"ha":265,"x_min":0,"x_max":0,"o":"m 479 1204 b 483 1199 483 1204 485 1203 b 364 1078 471 1125 429 1078 b 153 1186 276 1074 229 1190 b 54 1083 103 1186 64 1144 b 47 1078 53 1079 51 1078 l 39 1078 b 35 1083 35 1078 33 1079 b 156 1204 47 1156 93 1204 b 367 1096 243 1208 292 1092 b 464 1199 418 1096 453 1138 b 471 1204 465 1203 467 1204 m 222 981 b 228 986 222 985 224 986 l 238 986 b 243 981 242 986 243 985 l 71 6 b 64 0 69 1 68 0 l 54 0 b 50 6 50 0 49 1 "},"ĩ":{"ha":228,"x_min":0,"x_max":0,"o":"m 356 961 b 360 956 360 961 361 960 b 269 840 347 879 317 840 b 136 943 192 840 203 943 b 56 844 94 943 68 910 b 50 839 56 840 54 839 l 44 839 b 39 844 40 839 39 840 b 136 961 54 922 86 961 b 272 857 218 961 201 857 b 343 956 307 857 331 890 b 350 961 344 960 346 961 m 171 708 b 175 703 175 708 176 707 l 53 6 b 46 0 51 1 50 0 l 38 0 b 33 6 33 0 32 1 l 156 703 b 163 708 157 707 158 708 "},"Ī":{"ha":265,"x_min":0,"x_max":0,"o":"m 428 1149 b 432 1143 432 1149 433 1147 l 431 1136 b 425 1131 431 1132 429 1131 l 92 1131 b 86 1136 88 1131 86 1132 l 88 1143 b 94 1149 89 1147 90 1149 m 222 981 b 228 986 222 985 224 986 l 238 986 b 243 981 242 986 243 985 l 71 6 b 64 0 69 1 68 0 l 54 0 b 50 6 50 0 49 1 "},"ī":{"ha":228,"x_min":0,"x_max":0,"o":"m 304 901 b 307 896 306 901 307 900 l 306 889 b 301 883 304 885 303 883 l 81 883 b 78 889 78 883 76 885 l 79 896 b 83 901 79 900 81 901 m 171 708 b 175 703 175 708 176 707 l 53 6 b 46 0 51 1 50 0 l 38 0 b 33 6 33 0 32 1 l 156 703 b 163 708 157 707 158 708 "},"Ĭ":{"ha":265,"x_min":0,"x_max":0,"o":"m 479 1224 b 249 1064 431 1113 361 1064 b 68 1224 133 1064 78 1113 b 72 1231 68 1228 69 1231 l 82 1232 b 88 1228 86 1232 88 1231 b 250 1083 94 1128 146 1083 b 461 1229 351 1083 417 1128 b 469 1233 464 1233 467 1235 l 478 1231 b 479 1224 481 1229 481 1226 m 222 981 b 228 986 222 985 224 986 l 238 986 b 243 981 242 986 243 985 l 71 6 b 64 0 69 1 68 0 l 54 0 b 50 6 50 0 49 1 "},"ĭ":{"ha":228,"x_min":0,"x_max":0,"o":"m 368 974 b 371 967 369 972 371 971 b 183 815 336 865 274 815 b 49 967 94 815 47 868 b 53 974 49 971 50 974 l 60 975 b 65 971 64 976 65 975 b 185 833 63 879 103 833 b 353 971 264 833 325 882 b 361 975 354 974 357 975 m 171 708 b 175 703 175 708 176 707 l 53 6 b 46 0 51 1 50 0 l 38 0 b 33 6 33 0 32 1 l 156 703 b 163 708 157 707 158 708 "},"Į":{"ha":267,"x_min":0,"x_max":0,"o":"m 144 -286 b 140 -294 144 -289 143 -292 b 14 -344 100 -328 57 -344 b -64 -286 -31 -344 -57 -325 b 72 6 -79 -215 -33 -118 l 72 10 l 244 981 b 250 986 246 985 247 986 l 260 986 b 265 981 264 986 265 985 l 93 6 b 90 1 93 4 92 3 b -43 -275 -11 -118 -56 -210 b 17 -324 -36 -307 -17 -324 b 138 -275 63 -324 103 -307 b 143 -276 140 -272 142 -272 "},"į":{"ha":228,"x_min":0,"x_max":0,"o":"m 210 910 b 196 926 197 910 194 914 l 196 932 b 215 949 199 943 206 949 l 221 949 b 235 932 233 949 238 943 l 235 926 b 215 910 232 915 225 910 m 82 -281 b 81 -289 85 -282 85 -285 b -15 -342 54 -324 22 -342 b -97 -250 -78 -342 -104 -311 b 29 -14 -87 -161 -7 -57 l 43 3 l 43 6 l 165 703 b 172 708 167 707 168 708 l 181 708 b 185 703 185 708 186 707 l 63 6 b 60 1 61 3 61 1 l 47 -14 b -81 -249 14 -51 -71 -157 b -15 -325 -86 -300 -64 -325 b 71 -276 18 -325 47 -308 b 78 -276 72 -275 75 -275 "},"İ":{"ha":265,"x_min":0,"x_max":0,"o":"m 265 1158 b 279 1142 278 1158 282 1153 l 278 1136 b 258 1119 276 1125 271 1119 l 253 1119 b 239 1136 240 1119 238 1124 l 240 1142 b 260 1158 243 1153 250 1158 m 222 981 b 228 986 222 985 224 986 l 238 986 b 243 981 242 986 243 985 l 71 6 b 64 0 69 1 68 0 l 54 0 b 50 6 50 0 49 1 "},"ı":{"ha":228,"x_min":0,"x_max":0,"o":"m 171 708 b 175 703 175 708 176 707 l 53 6 b 46 0 51 1 50 0 l 38 0 b 33 6 33 0 32 1 l 156 703 b 163 708 157 707 158 708 "},"Ĳ":{"ha":1050,"x_min":0,"x_max":0,"o":"m 222 981 b 228 986 222 985 224 986 l 238 986 b 243 981 242 986 243 985 l 71 6 b 64 0 69 1 68 0 l 54 0 b 50 6 50 0 49 1 m 1031 986 b 1036 981 1035 986 1038 985 l 914 288 b 544 -21 881 94 746 -21 b 276 269 361 -21 272 76 b 281 278 276 274 278 276 l 290 281 b 297 276 294 282 299 281 b 546 0 293 94 367 0 b 893 292 735 0 860 110 l 1015 981 b 1021 986 1015 985 1017 986 "},"ĳ":{"ha":569,"x_min":0,"x_max":0,"o":"m 211 949 b 225 932 224 949 228 943 l 225 926 b 206 910 222 915 215 910 l 200 910 b 186 926 188 910 185 914 l 186 932 b 206 949 189 943 196 949 m 553 949 b 567 932 565 949 569 943 l 567 926 b 547 910 564 915 557 910 l 542 910 b 528 926 529 910 526 914 l 528 932 b 547 949 531 943 538 949 m 171 708 b 175 703 175 708 176 707 l 53 6 b 46 0 51 1 50 0 l 38 0 b 33 6 33 0 32 1 l 156 703 b 163 708 157 707 158 708 m 513 708 b 517 703 517 708 518 707 l 390 -14 b 79 -319 353 -221 272 -319 b 75 -314 76 -319 75 -318 l 76 -306 b 83 -300 78 -301 79 -300 b 371 -15 263 -300 338 -210 l 497 703 b 504 708 499 707 500 708 "},"Ĵ":{"ha":781,"x_min":0,"x_max":0,"o":"m 807 1240 b 822 1233 811 1240 817 1238 l 994 1069 b 989 1064 996 1065 994 1064 l 981 1064 b 969 1068 976 1064 972 1065 l 806 1221 l 588 1068 b 575 1064 583 1065 579 1064 l 560 1064 b 557 1069 553 1064 551 1065 l 789 1233 b 803 1240 794 1238 799 1240 m 767 986 b 772 981 771 986 774 985 l 650 288 b 281 -21 617 94 482 -21 b 13 269 97 -21 8 76 b 17 278 13 274 14 276 l 26 281 b 33 276 31 282 35 281 b 282 0 29 94 103 0 b 629 292 471 0 596 110 l 751 981 b 757 986 751 985 753 986 "},"ĵ":{"ha":228,"x_min":0,"x_max":0,"o":"m 211 972 b 222 965 215 972 219 969 l 347 804 b 342 799 351 800 349 799 l 336 799 b 325 803 331 799 326 800 l 208 956 l 35 803 b 22 799 31 800 26 799 l 10 799 b 8 804 6 799 4 800 l 193 965 b 207 972 197 969 203 972 m 169 708 b 174 703 174 708 175 707 l 47 -14 b -264 -319 10 -221 -71 -319 b -268 -314 -267 -319 -268 -318 l -267 -306 b -260 -300 -265 -301 -264 -300 b 28 -15 -81 -300 -6 -210 l 154 703 b 161 708 156 707 157 708 "},"Ķ":{"ha":817,"x_min":0,"x_max":0,"o":"m 715 7 b 710 0 717 3 715 0 l 704 0 b 694 6 699 0 696 1 l 583 344 b 381 490 549 449 501 490 l 156 490 l 71 6 b 64 0 69 1 68 0 l 54 0 b 50 6 50 0 49 1 l 222 981 b 228 986 222 985 224 986 l 238 986 b 243 981 242 986 243 985 l 160 510 l 378 510 b 419 508 396 510 410 510 l 849 981 b 861 986 851 985 856 986 l 871 986 b 874 979 878 986 878 983 l 442 504 b 601 356 529 489 574 440 m 274 -328 b 265 -335 272 -332 269 -335 l 260 -335 b 254 -328 254 -335 253 -332 l 356 -124 b 365 -118 357 -119 361 -118 l 372 -118 b 376 -125 376 -118 378 -121 "},"ķ":{"ha":678,"x_min":0,"x_max":0,"o":"m 574 6 b 569 0 574 1 572 0 l 560 0 b 553 4 556 0 553 1 l 471 256 b 329 357 447 329 413 357 l 114 357 l 53 6 b 46 0 51 1 50 0 l 38 0 b 33 6 33 0 32 1 l 213 1022 b 219 1028 213 1026 215 1028 l 228 1028 b 232 1022 231 1028 232 1026 l 118 375 l 329 375 l 344 375 l 663 703 b 676 708 667 707 671 708 l 683 708 b 686 701 690 708 690 706 l 368 372 b 490 264 435 365 468 331 m 200 -308 b 190 -315 197 -312 194 -315 l 183 -315 b 179 -308 179 -315 178 -312 l 276 -83 b 285 -78 278 -79 281 -78 l 294 -78 b 299 -83 300 -78 301 -79 "},"ĸ":{"ha":610,"x_min":0,"x_max":0,"o":"m 514 8 b 510 0 517 3 515 0 l 503 0 b 493 6 499 0 494 1 l 283 403 l 93 235 l 53 6 b 46 0 51 1 50 0 l 38 0 b 33 6 33 0 32 1 l 156 703 b 163 708 157 707 158 708 l 171 708 b 175 703 175 708 176 707 l 97 264 l 596 703 b 613 708 600 707 606 708 l 622 708 b 624 701 629 708 631 706 l 297 415 "},"Ĺ":{"ha":699,"x_min":0,"x_max":0,"o":"m 394 1238 b 407 1236 399 1240 403 1240 l 410 1232 b 407 1222 414 1228 413 1225 l 131 1064 b 121 1065 126 1063 124 1063 l 117 1071 b 119 1079 115 1074 115 1076 m 238 986 b 243 981 242 986 243 985 l 74 19 l 621 19 b 625 14 624 19 625 18 l 624 6 b 617 0 622 1 621 0 l 54 0 b 50 6 50 0 49 1 l 222 981 b 228 986 222 985 224 986 "},"ĺ":{"ha":239,"x_min":0,"x_max":0,"o":"m 353 1213 b 364 1210 357 1214 360 1214 l 367 1206 b 363 1196 368 1201 367 1197 l 142 1081 b 132 1082 138 1078 133 1078 l 129 1086 b 135 1096 128 1090 131 1094 m 58 6 b 51 0 57 1 56 0 l 43 0 b 39 6 39 0 38 1 l 218 1022 b 225 1028 218 1026 221 1028 l 233 1028 b 238 1022 236 1028 238 1026 "},"Ļ":{"ha":699,"x_min":0,"x_max":0,"o":"m 238 986 b 243 981 242 986 243 985 l 74 19 l 621 19 b 625 14 624 19 625 18 l 624 6 b 617 0 622 1 621 0 l 54 0 b 50 6 50 0 49 1 l 222 981 b 228 986 222 985 224 986 m 229 -328 b 221 -335 228 -332 225 -335 l 215 -335 b 210 -328 210 -335 208 -332 l 311 -124 b 321 -118 313 -119 317 -118 l 328 -118 b 332 -125 332 -118 333 -121 "},"ļ":{"ha":239,"x_min":0,"x_max":0,"o":"m 61 6 b 54 0 60 1 58 0 l 46 0 b 42 6 42 0 40 1 l 221 1022 b 228 1028 221 1026 224 1028 l 236 1028 b 240 1022 239 1028 240 1026 m -43 -312 b -53 -319 -44 -317 -49 -319 l -57 -319 b -61 -312 -62 -319 -64 -317 l 39 -74 b 47 -68 40 -69 43 -68 l 54 -68 b 58 -74 60 -68 61 -69 "},"Ľ":{"ha":699,"x_min":0,"x_max":0,"o":"m 238 986 b 243 981 242 986 243 985 l 74 19 l 621 19 b 625 14 624 19 625 18 l 624 6 b 617 0 622 1 621 0 l 54 0 b 50 6 50 0 49 1 l 222 981 b 228 986 222 985 224 986 m 528 689 b 519 682 526 685 524 682 l 513 682 b 507 689 508 682 506 685 l 625 981 b 633 986 626 985 629 986 l 642 986 b 646 979 646 986 647 983 "},"ľ":{"ha":247,"x_min":0,"x_max":0,"o":"m 58 6 b 51 0 57 1 56 0 l 43 0 b 39 6 39 0 38 1 l 218 1022 b 225 1028 218 1026 221 1028 l 233 1028 b 238 1022 236 1028 238 1026 m 300 756 b 290 749 299 751 296 749 l 285 749 b 281 756 281 749 279 751 l 372 1022 b 382 1028 374 1026 376 1028 l 390 1028 b 394 1021 394 1028 396 1025 "},"Ŀ":{"ha":699,"x_min":0,"x_max":0,"o":"m 238 986 b 243 981 242 986 243 985 l 74 19 l 621 19 b 625 14 624 19 625 18 l 624 6 b 617 0 622 1 621 0 l 54 0 b 50 6 50 0 49 1 l 222 981 b 228 986 222 985 224 986 m 432 496 b 446 478 444 496 449 490 l 444 472 b 422 454 442 460 435 454 l 417 454 b 403 472 401 454 399 457 l 404 478 b 426 496 407 490 414 496 "},"ŀ":{"ha":326,"x_min":0,"x_max":0,"o":"m 58 6 b 51 0 57 1 56 0 l 43 0 b 39 6 39 0 38 1 l 218 1022 b 225 1028 218 1026 221 1028 l 233 1028 b 238 1022 236 1028 238 1026 m 310 539 b 324 521 322 539 326 533 l 322 515 b 300 497 319 503 313 497 l 294 497 b 281 515 279 497 276 500 l 282 521 b 304 539 285 533 292 539 "},"Ł":{"ha":724,"x_min":0,"x_max":0,"o":"m 647 19 b 651 14 650 19 651 18 l 650 6 b 643 0 649 1 647 0 l 81 0 b 76 6 76 0 75 1 l 151 435 l -6 364 b -11 367 -8 363 -10 363 l -14 375 b -11 383 -15 379 -15 382 l 156 460 l 249 981 b 254 986 249 985 250 986 l 264 986 b 269 981 268 986 269 985 l 179 469 l 543 635 b 553 632 547 636 550 636 l 554 625 b 550 617 556 621 554 618 l 175 446 l 100 19 "},"ł":{"ha":318,"x_min":0,"x_max":0,"o":"m 336 606 b 331 597 338 604 335 601 l 178 514 l 89 6 b 82 0 88 1 86 0 l 74 0 b 69 6 69 0 68 1 l 157 501 l 21 428 b 15 429 18 426 17 426 l 11 435 b 15 443 11 439 13 442 l 160 522 l 249 1022 b 256 1028 249 1026 251 1028 l 264 1028 b 268 1022 267 1028 268 1026 l 182 533 l 325 611 b 332 610 328 613 331 613 "},"Ń":{"ha":951,"x_min":0,"x_max":0,"o":"m 736 1238 b 749 1236 740 1240 744 1240 l 751 1232 b 749 1222 756 1228 754 1225 l 472 1064 b 463 1065 468 1063 465 1063 l 458 1071 b 461 1079 457 1074 457 1076 m 924 986 b 929 981 928 986 929 985 l 757 6 b 750 0 756 1 754 0 l 742 0 b 733 6 738 0 735 1 l 321 788 b 285 860 317 797 304 821 b 238 947 264 897 249 926 l 236 947 b 200 738 221 863 208 792 l 71 6 b 64 0 69 1 68 0 l 54 0 b 50 6 50 0 49 1 l 222 981 b 228 986 222 985 224 986 l 233 986 l 242 982 l 643 224 l 742 40 l 743 40 l 783 278 l 908 982 b 914 986 908 985 910 986 "},"ń":{"ha":753,"x_min":0,"x_max":0,"o":"m 590 988 b 603 986 594 990 599 990 l 606 982 b 603 972 610 978 608 975 l 326 814 b 317 815 322 813 319 813 l 313 821 b 315 829 310 824 311 826 m 200 683 b 450 728 276 713 360 728 b 665 464 625 728 697 640 l 585 6 b 578 0 583 1 582 0 l 569 0 b 565 6 565 0 564 1 l 646 463 b 447 710 675 628 608 710 b 200 665 357 710 275 694 b 154 608 174 654 158 635 l 49 6 b 42 0 47 1 46 0 l 33 0 b 29 6 29 0 28 1 l 135 608 b 200 683 144 651 156 665 "},"Ņ":{"ha":951,"x_min":0,"x_max":0,"o":"m 924 986 b 929 981 928 986 929 985 l 757 6 b 750 0 756 1 754 0 l 742 0 b 733 6 738 0 735 1 l 321 788 b 285 860 317 797 304 821 b 238 947 264 897 249 926 l 236 947 b 200 738 221 863 208 792 l 71 6 b 64 0 69 1 68 0 l 54 0 b 50 6 50 0 49 1 l 222 981 b 228 986 222 985 224 986 l 233 986 l 242 982 l 643 224 l 742 40 l 743 40 l 783 278 l 908 982 b 914 986 908 985 910 986 m 307 -328 b 299 -335 306 -332 303 -335 l 293 -335 b 288 -328 288 -335 286 -332 l 389 -124 b 399 -118 390 -119 394 -118 l 406 -118 b 410 -125 410 -118 411 -121 "},"ņ":{"ha":753,"x_min":0,"x_max":0,"o":"m 200 683 b 450 728 276 713 360 728 b 665 464 625 728 697 640 l 585 6 b 578 0 583 1 582 0 l 569 0 b 565 6 565 0 564 1 l 646 463 b 447 710 675 628 608 710 b 200 665 357 710 275 694 b 154 608 174 654 158 635 l 49 6 b 42 0 47 1 46 0 l 33 0 b 29 6 29 0 28 1 l 135 608 b 200 683 144 651 156 665 m 250 -293 b 242 -300 247 -297 244 -300 l 236 -300 b 231 -293 229 -300 228 -297 l 336 -60 b 343 -54 338 -56 340 -54 l 351 -54 b 357 -60 356 -54 358 -56 "},"Ň":{"ha":951,"x_min":0,"x_max":0,"o":"m 835 1242 b 836 1235 840 1242 840 1239 l 607 1072 b 590 1065 600 1068 594 1065 l 586 1065 b 574 1072 582 1065 578 1068 l 401 1235 b 400 1240 400 1236 399 1238 l 406 1242 l 418 1242 b 428 1238 419 1242 424 1240 l 589 1085 l 810 1238 b 824 1242 814 1240 818 1242 m 924 986 b 929 981 928 986 929 985 l 757 6 b 750 0 756 1 754 0 l 742 0 b 733 6 738 0 735 1 l 321 788 b 285 860 317 797 304 821 b 238 947 264 897 249 926 l 236 947 b 200 738 221 863 208 792 l 71 6 b 64 0 69 1 68 0 l 54 0 b 50 6 50 0 49 1 l 222 981 b 228 986 222 985 224 986 l 233 986 l 242 982 l 643 224 l 742 40 l 743 40 l 783 278 l 908 982 b 914 986 908 985 910 986 "},"ň":{"ha":753,"x_min":0,"x_max":0,"o":"m 686 979 b 688 972 692 979 692 976 l 458 810 b 443 803 453 806 447 803 l 442 803 b 428 810 438 803 433 806 l 254 974 b 257 979 253 978 253 979 l 269 979 b 279 975 274 979 276 978 l 443 822 l 661 975 b 675 979 665 978 669 979 m 450 728 b 665 464 625 728 697 640 l 585 6 b 578 0 583 1 582 0 l 569 0 b 565 6 565 0 564 1 l 646 463 b 447 710 675 628 608 710 b 200 665 357 710 275 694 b 154 608 174 654 158 635 l 49 6 b 42 0 47 1 46 0 l 33 0 b 29 6 29 0 28 1 l 135 608 b 200 683 144 651 156 665 b 450 728 276 713 360 728 "},"ŉ":{"ha":753,"x_min":0,"x_max":0,"o":"m 78 756 b 68 749 75 751 72 749 l 61 749 b 58 757 57 749 56 751 l 210 1022 b 218 1028 211 1026 214 1028 l 226 1028 b 232 1021 232 1028 233 1025 m 200 683 b 450 728 276 713 360 728 b 665 464 625 728 697 640 l 585 6 b 578 0 583 1 582 0 l 569 0 b 565 6 565 0 564 1 l 646 463 b 447 710 675 628 608 710 b 200 665 357 710 275 694 b 154 608 174 654 158 635 l 49 6 b 42 0 47 1 46 0 l 33 0 b 29 6 29 0 28 1 l 135 608 b 200 683 144 651 156 665 "},"Ŋ":{"ha":953,"x_min":0,"x_max":0,"o":"m 926 986 b 932 981 931 986 932 985 l 754 -21 b 400 -319 722 -208 590 -319 b 396 -314 397 -319 396 -318 l 397 -306 b 404 -300 399 -301 400 -300 b 735 -19 581 -300 703 -196 l 738 3 l 322 788 b 286 860 318 797 306 821 b 239 947 265 897 250 926 l 238 947 b 224 858 235 926 231 897 b 207 769 217 819 211 790 l 71 6 b 64 0 69 1 68 0 l 54 0 b 50 6 50 0 49 1 l 222 981 b 228 986 222 985 224 986 l 236 986 l 244 982 l 644 221 l 743 38 l 744 38 l 786 278 l 911 982 b 917 986 911 985 913 986 "},"ŋ":{"ha":753,"x_min":0,"x_max":0,"o":"m 200 683 b 450 728 276 713 360 728 b 665 464 625 728 697 640 l 579 -21 b 226 -319 547 -208 415 -319 b 222 -314 224 -319 222 -318 l 224 -306 b 231 -300 225 -301 226 -300 b 561 -19 407 -300 529 -196 l 646 463 b 447 710 675 628 608 710 b 200 665 357 710 275 694 b 154 608 174 654 158 635 l 49 6 b 42 0 47 1 46 0 l 33 0 b 29 6 29 0 28 1 l 135 608 b 200 683 144 651 156 665 "},"Ō":{"ha":917,"x_min":0,"x_max":0,"o":"m 788 1163 b 792 1157 792 1163 793 1161 l 790 1150 b 785 1144 790 1146 789 1144 l 451 1144 b 446 1150 447 1144 446 1146 l 447 1157 b 454 1163 449 1161 450 1163 m 167 674 b 590 1006 204 885 353 1006 b 897 665 825 1006 936 876 l 835 313 b 415 -19 797 101 650 -19 b 104 321 178 -19 65 110 m 876 668 b 589 986 911 868 810 986 b 188 668 365 986 222 872 l 125 318 b 415 0 90 118 192 0 b 814 318 636 0 779 118 "},"ō":{"ha":743,"x_min":0,"x_max":0,"o":"m 303 876 b 299 882 299 876 297 878 l 300 889 b 306 894 300 893 301 894 l 639 894 b 644 889 643 894 644 893 l 643 882 b 636 876 642 878 640 876 m 442 728 b 693 497 618 728 717 640 l 643 211 b 315 -19 619 68 489 -19 b 64 211 142 -19 40 71 l 114 497 b 222 665 126 568 163 624 b 442 728 282 707 356 728 m 674 499 b 440 710 697 626 603 710 b 133 499 281 710 157 626 l 83 210 b 315 -1 60 82 156 -1 b 624 210 478 -1 600 82 "},"Ŏ":{"ha":917,"x_min":0,"x_max":0,"o":"m 839 1238 b 608 1078 790 1126 721 1078 b 428 1238 493 1078 438 1126 b 432 1244 428 1242 429 1244 l 442 1246 b 447 1242 446 1246 447 1244 b 610 1097 454 1142 506 1097 b 821 1243 711 1097 776 1142 b 829 1247 824 1247 826 1249 l 838 1244 b 839 1238 840 1243 840 1240 m 167 674 b 590 1006 204 885 353 1006 b 897 665 825 1006 936 876 l 835 313 b 415 -19 797 101 650 -19 b 104 321 178 -19 65 110 m 876 668 b 589 986 911 868 810 986 b 188 668 365 986 222 872 l 125 318 b 415 0 90 118 192 0 b 814 318 636 0 779 118 "},"ŏ":{"ha":743,"x_min":0,"x_max":0,"o":"m 692 969 b 463 810 646 863 569 810 b 281 969 347 810 290 858 b 285 976 279 974 281 976 l 293 978 b 300 974 297 979 299 978 b 461 829 307 874 357 829 b 674 975 560 829 631 878 b 681 979 675 979 676 981 l 690 976 b 692 969 692 975 693 974 m 114 497 b 222 665 126 568 163 624 b 442 728 282 707 356 728 b 693 497 618 728 717 640 l 643 211 b 315 -19 619 68 489 -19 b 64 211 142 -19 40 71 m 674 499 b 440 710 697 626 603 710 b 133 499 281 710 157 626 l 83 210 b 315 -1 60 82 156 -1 b 624 210 478 -1 600 82 "},"Ő":{"ha":917,"x_min":0,"x_max":0,"o":"m 614 1250 b 624 1254 618 1254 621 1256 l 635 1253 b 636 1246 642 1251 642 1250 l 444 1076 b 435 1074 440 1072 436 1072 l 426 1076 b 426 1083 422 1078 422 1081 m 860 1250 b 869 1254 864 1254 867 1256 l 881 1253 b 882 1246 888 1251 888 1250 l 690 1076 b 681 1074 686 1072 682 1072 l 672 1076 b 672 1083 668 1078 668 1081 m 167 674 b 590 1006 204 885 353 1006 b 897 665 825 1006 936 876 l 835 313 b 415 -19 797 101 650 -19 b 104 321 178 -19 65 110 m 876 668 b 589 986 911 868 810 986 b 188 668 365 986 222 872 l 125 318 b 415 0 90 118 192 0 b 814 318 636 0 779 118 "},"ő":{"ha":743,"x_min":0,"x_max":0,"o":"m 278 804 b 278 811 274 806 274 808 l 465 978 b 475 982 469 982 472 983 l 486 981 b 488 974 493 979 493 978 l 296 804 b 286 801 292 800 288 800 m 735 978 b 736 971 739 976 740 975 l 539 807 b 529 804 536 803 533 803 l 521 807 b 521 814 517 808 517 810 l 714 975 b 724 979 718 979 721 981 m 442 728 b 693 497 618 728 717 640 l 643 211 b 315 -19 619 68 489 -19 b 64 211 142 -19 40 71 l 114 497 b 222 665 126 568 163 624 b 442 728 282 707 356 728 m 674 499 b 440 710 697 626 603 710 b 133 499 281 710 157 626 l 83 210 b 315 -1 60 82 156 -1 b 624 210 478 -1 600 82 "},"Œ":{"ha":1150,"x_min":0,"x_max":0,"o":"m 1049 19 b 1053 14 1051 19 1053 18 l 1051 6 b 1044 0 1050 1 1049 0 l 568 0 b 411 -21 517 -14 465 -21 b 104 319 174 -21 65 108 l 167 672 b 593 1007 204 883 356 1007 b 742 986 644 1007 693 1000 l 1197 986 b 1203 981 1201 986 1203 985 l 1200 972 b 1194 967 1200 968 1199 967 l 751 967 l 671 508 l 1056 508 b 1060 503 1058 508 1060 507 l 1058 494 b 1051 489 1057 490 1056 489 l 667 489 l 585 19 m 125 318 b 415 -1 90 118 192 -1 b 563 18 471 -1 519 6 l 731 967 b 589 988 686 981 639 988 b 188 668 365 988 222 868 "},"œ":{"ha":1113,"x_min":0,"x_max":0,"o":"m 608 539 b 878 728 661 665 751 728 b 1081 499 1040 728 1115 647 b 808 310 1051 376 954 310 b 581 340 731 310 654 319 l 564 246 b 740 -1 538 94 590 -1 b 996 143 864 -1 935 47 b 1004 146 1000 147 1003 147 l 1013 142 b 1013 135 1014 140 1014 139 b 738 -19 950 35 871 -19 b 540 160 611 -19 544 40 b 274 -19 490 49 392 -19 b 68 210 128 -19 44 69 l 118 499 b 403 728 142 639 257 728 b 608 539 531 728 608 661 m 588 478 b 401 710 611 624 539 710 b 139 500 268 710 161 628 l 86 208 b 276 -1 64 81 143 -1 b 546 242 414 -1 519 96 m 1061 499 b 875 710 1096 636 1026 710 b 599 442 726 710 628 610 l 585 360 b 813 328 656 339 731 328 b 1061 499 950 328 1033 385 "},"Ŕ":{"ha":879,"x_min":0,"x_max":0,"o":"m 689 1238 b 701 1236 693 1240 697 1240 l 704 1232 b 701 1222 708 1228 707 1225 l 425 1064 b 415 1065 421 1063 418 1063 l 411 1071 b 414 1079 410 1074 410 1076 m 632 986 b 854 715 803 986 883 886 b 540 456 826 550 707 460 b 658 321 596 435 635 389 l 761 7 b 756 0 763 3 761 0 l 749 0 b 739 6 743 0 740 1 l 638 310 b 429 456 604 411 550 456 l 150 456 l 71 6 b 64 0 69 1 68 0 l 54 0 b 50 6 50 0 49 1 l 222 981 b 228 986 222 985 224 986 m 835 719 b 628 967 863 876 788 967 l 240 967 l 153 475 l 540 475 b 835 719 697 475 807 564 "},"ŕ":{"ha":458,"x_min":0,"x_max":0,"o":"m 492 986 b 504 985 496 989 500 989 l 507 981 b 504 971 511 976 510 974 l 228 813 b 218 814 224 811 221 811 l 214 819 b 217 828 211 822 213 825 m 450 728 l 492 728 b 497 722 496 728 497 726 l 496 715 b 489 710 494 711 493 710 l 447 710 b 200 665 357 710 275 694 b 154 608 174 654 158 635 l 49 6 b 42 0 47 1 46 0 l 33 0 b 29 6 29 0 28 1 l 135 608 b 200 683 144 651 156 665 b 450 728 276 713 360 728 "},"Ŗ":{"ha":879,"x_min":0,"x_max":0,"o":"m 632 986 b 854 715 803 986 883 886 b 540 456 826 550 707 460 b 658 321 596 435 635 389 l 761 7 b 756 0 763 3 761 0 l 749 0 b 739 6 743 0 740 1 l 638 310 b 429 456 604 411 550 456 l 150 456 l 71 6 b 64 0 69 1 68 0 l 54 0 b 50 6 50 0 49 1 l 222 981 b 228 986 222 985 224 986 m 835 719 b 628 967 863 876 788 967 l 240 967 l 153 475 l 540 475 b 835 719 697 475 807 564 m 292 -328 b 283 -335 289 -332 286 -335 l 278 -335 b 272 -328 271 -335 269 -332 l 374 -124 b 383 -118 375 -119 379 -118 l 390 -118 b 394 -125 396 -118 397 -121 "},"ŗ":{"ha":458,"x_min":0,"x_max":0,"o":"m 451 728 l 493 728 b 499 722 497 728 499 726 l 497 715 b 490 710 496 711 494 710 l 449 710 b 201 665 358 710 276 694 b 156 608 175 654 160 635 l 50 6 b 43 0 49 1 47 0 l 35 0 b 31 6 31 0 29 1 l 136 608 b 201 683 146 651 157 665 b 451 728 278 713 361 728 m -37 -299 b -47 -306 -40 -303 -43 -306 l -54 -306 b -58 -299 -58 -306 -60 -303 l 39 -67 b 46 -61 40 -62 42 -61 l 56 -61 b 61 -67 60 -61 63 -62 "},"Ř":{"ha":879,"x_min":0,"x_max":0,"o":"m 788 1242 b 789 1235 793 1242 793 1239 l 560 1072 b 543 1065 553 1068 547 1065 l 539 1065 b 526 1072 535 1065 531 1068 l 354 1235 b 353 1240 353 1236 351 1238 b 358 1242 354 1242 356 1242 l 371 1242 b 381 1238 372 1242 376 1240 l 542 1085 l 763 1238 b 776 1242 767 1240 771 1242 m 632 986 b 854 715 803 986 883 886 b 540 456 826 550 707 460 b 658 321 596 435 635 389 l 761 7 b 756 0 763 3 761 0 l 749 0 b 739 6 743 0 740 1 l 638 310 b 429 456 604 411 550 456 l 150 456 l 71 6 b 64 0 69 1 68 0 l 54 0 b 50 6 50 0 49 1 l 222 981 b 228 986 222 985 224 986 m 835 719 b 628 967 863 876 788 967 l 240 967 l 153 475 l 540 475 b 835 719 697 475 807 564 "},"ř":{"ha":460,"x_min":0,"x_max":0,"o":"m 588 978 b 589 971 593 978 593 975 l 360 808 b 344 801 354 804 349 801 l 343 801 b 329 808 339 801 335 804 l 156 972 b 158 978 154 976 154 978 l 171 978 b 181 974 175 978 178 976 l 344 821 l 563 974 b 576 978 567 976 571 978 m 492 728 b 497 722 496 728 497 726 l 496 715 b 489 710 494 711 493 710 l 447 710 b 200 665 357 710 275 694 b 154 608 174 654 158 635 l 49 6 b 42 0 47 1 46 0 l 33 0 b 29 6 29 0 28 1 l 135 608 b 200 683 144 651 156 665 b 450 728 276 713 360 728 "},"Ś":{"ha":846,"x_min":0,"x_max":0,"o":"m 696 1250 b 708 1249 700 1253 704 1253 l 711 1244 b 708 1235 715 1240 714 1238 l 432 1076 b 422 1078 428 1075 425 1075 l 418 1083 b 421 1092 417 1086 417 1089 m 143 757 b 521 1006 172 919 310 1006 b 832 793 694 1006 788 932 b 828 785 833 789 832 786 l 824 782 b 815 783 819 781 817 782 b 518 985 772 917 685 985 b 163 753 319 985 189 903 b 238 564 146 663 172 599 b 457 504 303 529 361 515 b 643 464 536 494 582 489 b 714 419 674 451 697 436 b 753 243 747 385 768 322 b 356 -19 721 65 593 -19 b 25 229 171 -19 65 58 b 29 239 24 233 25 238 l 38 242 b 44 239 42 243 43 242 b 356 1 88 72 182 1 b 733 247 579 1 704 83 b 628 447 746 363 713 417 b 450 483 567 469 529 474 b 221 550 351 496 288 511 b 143 757 154 589 126 658 "},"ś":{"ha":674,"x_min":0,"x_max":0,"o":"m 556 988 b 568 986 560 990 564 990 l 571 982 b 568 972 575 978 574 975 l 292 814 b 282 815 288 813 285 813 l 278 821 b 281 829 275 824 276 826 m 97 538 b 388 728 121 664 217 728 b 631 575 531 728 611 676 b 628 567 632 571 631 568 l 622 564 b 614 567 618 563 615 563 b 386 710 593 661 532 710 b 117 535 231 710 138 647 b 165 396 101 458 126 418 b 221 375 175 388 208 379 b 257 369 228 374 239 371 b 332 361 290 364 293 365 b 347 360 339 360 343 360 b 518 317 425 353 471 343 b 569 169 565 290 582 242 b 269 -19 547 43 447 -19 b 10 158 121 -19 36 31 b 14 167 10 163 11 165 l 22 169 b 28 167 26 171 28 169 b 271 -1 50 46 131 -1 b 550 172 436 -1 529 57 b 501 304 561 238 546 281 b 342 342 457 326 418 335 b 160 378 250 351 189 363 b 97 538 104 404 83 458 "},"Ŝ":{"ha":846,"x_min":0,"x_max":0,"o":"m 581 1253 b 596 1246 585 1253 590 1250 l 768 1082 b 763 1076 769 1078 768 1076 l 754 1076 b 743 1081 750 1076 746 1078 l 579 1233 l 361 1081 b 349 1076 357 1078 353 1076 l 333 1076 b 331 1082 326 1076 325 1078 l 563 1246 b 576 1253 568 1250 572 1253 m 143 757 b 521 1006 172 919 310 1006 b 832 793 694 1006 788 932 b 828 785 833 789 832 786 l 824 782 b 815 783 819 781 817 782 b 518 985 772 917 685 985 b 163 753 319 985 189 903 b 238 564 146 663 172 599 b 457 504 303 529 361 515 b 643 464 536 494 582 489 b 714 419 674 451 697 436 b 753 243 747 385 768 322 b 356 -19 721 65 593 -19 b 25 229 171 -19 65 58 b 29 239 24 233 25 238 l 38 242 b 44 239 42 243 43 242 b 356 1 88 72 182 1 b 733 247 579 1 704 83 b 628 447 746 363 713 417 b 450 483 567 469 529 474 b 221 550 351 496 288 511 b 143 757 154 589 126 658 "},"ŝ":{"ha":674,"x_min":0,"x_max":0,"o":"m 192 803 b 188 808 185 803 183 804 l 419 972 b 435 979 426 976 431 979 l 439 979 b 453 972 443 979 449 976 l 625 808 b 621 803 629 804 628 803 l 613 803 b 600 807 608 803 604 804 l 436 963 l 218 807 b 207 803 214 804 210 803 m 631 575 b 628 567 632 571 631 568 l 622 564 b 614 567 618 563 615 563 b 386 710 593 661 532 710 b 117 535 231 710 138 647 b 165 396 101 458 126 418 b 221 375 175 388 208 379 b 257 369 228 374 239 371 b 332 361 290 364 293 365 b 347 360 339 360 343 360 b 518 317 425 353 471 343 b 569 169 565 290 582 242 b 269 -19 547 43 447 -19 b 10 158 121 -19 36 31 b 14 167 10 163 11 165 l 22 169 b 28 167 26 171 28 169 b 271 -1 50 46 131 -1 b 550 172 436 -1 529 57 b 501 304 561 238 546 281 b 342 342 457 326 418 335 b 160 378 250 351 189 363 b 97 538 104 404 83 458 b 388 728 121 664 217 728 b 631 575 531 728 611 676 "},"Ş":{"ha":846,"x_min":0,"x_max":0,"o":"m 143 757 b 521 1006 172 919 310 1006 b 832 793 694 1006 788 932 b 828 785 833 789 832 786 l 824 782 b 815 783 819 781 817 782 b 518 985 772 917 685 985 b 163 753 319 985 189 903 b 238 564 146 663 172 599 b 457 504 303 529 361 515 b 643 464 536 494 582 489 b 714 419 674 451 697 436 b 753 243 747 385 768 322 b 375 -19 724 72 597 -15 l 318 -133 b 374 -126 335 -129 353 -126 b 478 -222 450 -126 488 -161 b 313 -349 465 -301 401 -349 b 196 -314 264 -349 225 -337 b 190 -299 192 -310 189 -306 l 192 -290 b 197 -287 193 -285 196 -283 b 315 -331 226 -317 265 -331 b 460 -222 393 -331 447 -290 b 365 -143 467 -171 433 -143 b 304 -153 340 -143 319 -146 b 296 -140 293 -157 290 -151 l 357 -19 b 25 229 172 -19 65 58 b 29 239 24 233 25 238 l 38 242 b 44 239 42 243 43 242 b 356 1 88 72 182 1 b 733 247 579 1 704 83 b 628 447 746 363 713 417 b 450 483 567 469 529 474 b 221 550 351 496 288 511 b 143 757 154 589 126 658 "},"ş":{"ha":674,"x_min":0,"x_max":0,"o":"m 97 538 b 388 728 121 664 217 728 b 631 575 531 728 611 676 b 628 567 632 571 631 568 l 622 564 b 614 567 618 563 615 563 b 386 710 593 661 532 710 b 117 535 231 710 138 647 b 165 396 101 458 126 418 b 221 375 175 388 208 379 b 257 369 228 374 239 371 b 332 361 290 364 293 365 b 347 360 339 360 343 360 b 518 317 425 353 471 343 b 569 169 565 290 582 242 b 286 -19 547 47 453 -15 l 228 -131 b 283 -124 244 -126 263 -124 b 388 -219 360 -124 397 -158 b 222 -346 375 -299 311 -346 b 106 -311 174 -346 135 -335 b 100 -296 101 -307 99 -303 l 101 -287 b 107 -285 103 -282 106 -281 b 225 -328 136 -314 175 -328 b 369 -219 303 -328 357 -287 b 275 -140 376 -168 343 -140 b 214 -150 250 -140 229 -143 b 206 -137 203 -154 200 -149 l 268 -19 b 10 158 122 -19 36 31 b 14 167 10 163 11 165 l 22 169 b 28 167 26 171 28 169 b 271 -1 50 46 131 -1 b 550 172 436 -1 529 57 b 501 304 561 238 546 281 b 342 342 457 326 418 335 b 160 378 250 351 189 363 b 97 538 104 404 83 458 "},"Š":{"ha":846,"x_min":0,"x_max":0,"o":"m 794 1254 b 796 1247 800 1254 800 1251 l 567 1085 b 550 1078 560 1081 554 1078 l 546 1078 b 533 1085 542 1078 538 1081 l 361 1247 b 360 1253 360 1249 358 1250 l 365 1254 l 378 1254 b 388 1250 381 1254 383 1253 l 549 1097 l 769 1250 b 783 1254 774 1253 779 1254 m 143 757 b 521 1006 172 919 310 1006 b 832 793 694 1006 788 932 b 828 785 833 789 832 786 l 824 782 b 815 783 819 781 817 782 b 518 985 772 917 685 985 b 163 753 319 985 189 903 b 238 564 146 663 172 599 b 457 504 303 529 361 515 b 643 464 536 494 582 489 b 714 419 674 451 697 436 b 753 243 747 385 768 322 b 356 -19 721 65 593 -19 b 25 229 171 -19 65 58 b 29 239 24 233 25 238 l 38 242 b 44 239 42 243 43 242 b 356 1 88 72 182 1 b 733 247 579 1 704 83 b 628 447 746 363 713 417 b 450 483 567 469 529 474 b 221 550 351 496 288 511 b 143 757 154 589 126 658 "},"š":{"ha":674,"x_min":0,"x_max":0,"o":"m 651 979 b 653 972 657 979 657 976 l 424 810 b 408 803 418 806 413 803 l 407 803 b 393 810 403 803 399 806 l 219 974 b 222 979 218 978 218 979 l 235 979 b 244 975 239 979 242 978 l 408 822 l 626 975 b 640 979 631 978 635 979 m 388 728 b 631 575 531 728 611 676 b 628 567 632 571 631 568 l 622 564 b 614 567 618 563 615 563 b 386 710 593 661 532 710 b 117 535 231 710 138 647 b 165 396 101 458 126 418 b 221 375 175 388 208 379 b 257 369 228 374 239 371 b 332 361 290 364 293 365 b 347 360 339 360 343 360 b 518 317 425 353 471 343 b 569 169 565 290 582 242 b 269 -19 547 43 447 -19 b 10 158 121 -19 36 31 b 14 167 10 163 11 165 l 22 169 b 28 167 26 171 28 169 b 271 -1 50 46 131 -1 b 550 172 436 -1 529 57 b 501 304 561 238 546 281 b 342 342 457 326 418 335 b 160 378 250 351 189 363 b 97 538 104 404 83 458 b 388 728 121 664 217 728 "},"Ť":{"ha":717,"x_min":0,"x_max":0,"o":"m 717 1242 b 718 1235 722 1242 722 1239 l 489 1072 b 472 1065 482 1068 476 1065 l 468 1065 b 456 1072 464 1065 460 1068 l 283 1235 b 282 1240 282 1236 281 1238 b 288 1242 283 1242 285 1242 l 300 1242 b 310 1238 301 1242 306 1240 l 471 1085 l 692 1238 b 706 1242 696 1240 700 1242 m 793 986 b 799 981 797 986 799 985 l 796 972 b 790 967 796 968 794 967 l 464 967 l 294 6 b 288 0 293 1 292 0 l 278 0 b 274 6 274 0 272 1 l 443 967 l 117 967 b 111 972 113 967 111 968 l 114 981 b 119 986 114 985 115 986 "},"ť":{"ha":442,"x_min":0,"x_max":0,"o":"m 457 794 b 447 788 454 790 451 788 l 442 788 b 438 794 436 788 435 790 l 533 1022 b 542 1028 535 1026 538 1028 l 550 1028 b 554 1022 554 1028 556 1026 m 268 875 b 272 869 272 875 274 874 l 244 708 l 490 708 b 494 703 494 708 496 707 l 493 696 b 488 690 493 692 492 690 l 242 690 l 163 240 b 179 47 146 143 151 79 b 363 0 206 15 267 0 b 367 -6 367 0 368 -1 l 365 -14 b 360 -19 365 -18 364 -19 b 163 35 260 -19 194 -1 b 143 240 131 69 125 139 l 222 690 l 51 690 b 46 696 47 690 46 692 l 47 703 b 54 708 49 707 50 708 l 225 708 l 253 869 b 260 875 254 874 256 875 "},"Ŧ":{"ha":756,"x_min":0,"x_max":0,"o":"m 813 986 b 818 981 817 986 818 985 l 815 972 b 810 967 815 968 814 967 l 483 967 l 396 471 l 624 471 b 629 464 628 471 631 468 l 628 460 b 619 451 628 454 625 451 l 392 451 l 314 6 b 307 0 313 1 311 0 l 297 0 b 293 6 293 0 292 1 l 371 451 l 143 451 b 138 460 139 451 138 454 l 139 464 b 147 471 140 468 143 471 l 375 471 l 463 967 l 136 967 b 131 972 132 967 131 968 l 133 981 b 139 986 133 985 135 986 "},"ŧ":{"ha":450,"x_min":0,"x_max":0,"o":"m 276 875 b 281 869 281 875 282 874 l 253 708 l 499 708 b 503 703 503 708 504 707 l 501 696 b 496 690 501 692 500 690 l 250 690 l 193 372 l 396 372 b 401 365 400 372 403 369 l 401 361 b 393 354 400 357 397 354 l 190 354 l 171 240 b 188 47 154 143 160 79 b 371 0 214 15 275 0 b 375 -6 375 0 376 -1 l 374 -14 b 368 -19 374 -18 372 -19 b 171 35 268 -19 203 -1 b 151 240 139 69 133 139 l 171 354 l 29 354 b 24 361 25 354 22 357 l 24 365 b 32 372 25 369 28 372 l 174 372 l 231 690 l 60 690 b 54 696 56 690 54 692 l 56 703 b 63 708 57 707 58 708 l 233 708 l 261 869 b 268 875 263 874 264 875 "},"Ũ":{"ha":942,"x_min":0,"x_max":0,"o":"m 847 1204 b 851 1199 851 1204 853 1203 b 732 1078 839 1125 797 1078 b 521 1186 644 1074 597 1190 b 422 1083 471 1186 432 1144 b 415 1078 421 1079 419 1078 l 407 1078 b 403 1083 403 1078 401 1079 b 524 1204 415 1156 461 1204 b 735 1096 611 1208 660 1092 b 832 1199 786 1096 821 1138 b 839 1204 833 1203 835 1204 m 149 332 b 426 -1 114 125 204 -1 b 821 332 649 -1 786 125 l 936 981 b 942 986 936 985 938 986 l 951 986 b 957 981 956 986 958 985 l 842 328 b 425 -21 803 107 660 -21 b 128 335 190 -21 89 114 l 243 981 b 249 986 244 985 246 986 l 258 986 b 264 981 263 986 264 985 "},"ũ":{"ha":754,"x_min":0,"x_max":0,"o":"m 726 953 b 731 947 731 953 732 951 b 614 826 715 867 676 826 b 399 935 513 826 490 935 b 300 832 349 935 311 893 b 294 826 300 828 299 826 l 286 826 b 281 832 282 826 281 828 b 400 953 293 906 338 953 b 511 899 435 953 471 935 b 614 844 550 863 585 844 b 711 947 665 844 700 886 b 718 953 713 951 714 953 m 747 708 b 751 703 751 708 753 707 l 646 100 b 581 25 636 57 625 43 b 331 -19 504 -4 421 -19 b 115 244 156 -19 83 68 l 196 703 b 203 708 197 707 199 708 l 211 708 b 215 703 215 708 217 707 l 135 246 b 332 -1 106 81 172 -1 b 581 43 422 -1 506 14 b 626 100 607 54 622 74 l 732 703 b 739 708 733 707 735 708 "},"Ū":{"ha":942,"x_min":0,"x_max":0,"o":"m 796 1149 b 800 1143 800 1149 801 1147 l 799 1136 b 793 1131 799 1132 797 1131 l 460 1131 b 454 1136 456 1131 454 1132 l 456 1143 b 463 1149 457 1147 458 1149 m 149 332 b 426 -1 114 125 204 -1 b 821 332 649 -1 786 125 l 936 981 b 942 986 936 985 938 986 l 951 986 b 957 981 956 986 958 985 l 842 328 b 425 -21 803 107 660 -21 b 128 335 190 -21 89 114 l 243 981 b 249 986 244 985 246 986 l 258 986 b 264 981 263 986 264 985 "},"ū":{"ha":754,"x_min":0,"x_max":0,"o":"m 674 894 b 679 889 678 894 679 893 l 678 882 b 671 876 676 878 675 876 l 338 876 b 333 882 333 876 332 878 l 335 889 b 340 894 335 893 336 894 m 747 708 b 751 703 751 708 753 707 l 646 100 b 581 25 636 57 625 43 b 331 -19 504 -4 421 -19 b 115 244 156 -19 83 68 l 196 703 b 203 708 197 707 199 708 l 211 708 b 215 703 215 708 217 707 l 135 246 b 332 -1 106 81 172 -1 b 581 43 422 -1 506 14 b 626 100 607 54 622 74 l 732 703 b 739 708 733 707 735 708 "},"Ŭ":{"ha":942,"x_min":0,"x_max":0,"o":"m 847 1224 b 617 1064 799 1113 729 1064 b 436 1224 501 1064 446 1113 b 440 1231 436 1228 438 1231 l 450 1232 b 456 1228 454 1232 456 1231 b 618 1083 463 1128 514 1083 b 829 1229 719 1083 785 1128 b 838 1233 832 1233 835 1235 l 846 1231 b 847 1224 849 1229 849 1226 m 149 332 b 426 -1 114 125 204 -1 b 821 332 649 -1 786 125 l 936 981 b 942 986 936 985 938 986 l 951 986 b 957 981 956 986 958 985 l 842 328 b 425 -21 803 107 660 -21 b 128 335 190 -21 89 114 l 243 981 b 249 986 244 985 246 986 l 258 986 b 264 981 263 986 264 985 "},"ŭ":{"ha":754,"x_min":0,"x_max":0,"o":"m 726 969 b 497 810 681 863 604 810 b 315 969 382 810 325 858 b 319 976 314 974 315 976 l 328 978 b 335 974 332 979 333 978 b 496 829 342 874 392 829 b 708 975 594 829 665 878 b 715 979 710 979 711 981 l 725 976 b 726 969 726 975 728 974 m 747 708 b 751 703 751 708 753 707 l 646 100 b 581 25 636 57 625 43 b 331 -19 504 -4 421 -19 b 115 244 156 -19 83 68 l 196 703 b 203 708 197 707 199 708 l 211 708 b 215 703 215 708 217 707 l 135 246 b 332 -1 106 81 172 -1 b 581 43 422 -1 506 14 b 626 100 607 54 622 74 l 732 703 b 739 708 733 707 735 708 "},"Ů":{"ha":942,"x_min":0,"x_max":0,"o":"m 522 1065 b 503 1157 503 1088 496 1118 b 554 1249 510 1196 526 1226 b 656 1282 581 1271 615 1282 b 760 1157 735 1282 775 1235 b 611 1032 744 1079 690 1032 b 522 1065 571 1032 540 1043 m 700 1078 b 743 1157 724 1097 738 1124 b 728 1236 749 1190 743 1217 b 653 1265 713 1256 688 1265 b 519 1157 582 1265 531 1224 b 614 1049 508 1090 543 1049 b 700 1078 649 1049 676 1058 m 149 332 b 426 -1 114 125 204 -1 b 821 332 649 -1 786 125 l 936 981 b 942 986 936 985 938 986 l 951 986 b 957 981 956 986 958 985 l 842 328 b 425 -21 803 107 660 -21 b 128 335 190 -21 89 114 l 243 981 b 249 986 244 985 246 986 l 258 986 b 264 981 263 986 264 985 "},"ů":{"ha":754,"x_min":0,"x_max":0,"o":"m 385 899 b 538 1021 397 976 456 1021 b 642 893 617 1021 657 971 b 493 771 629 815 572 771 b 385 899 414 771 369 821 m 625 896 b 535 1004 638 963 603 1004 b 401 896 458 1004 414 968 b 496 788 390 829 425 788 b 625 896 564 788 614 829 m 747 708 b 751 703 751 708 753 707 l 646 100 b 581 25 636 57 625 43 b 331 -19 504 -4 421 -19 b 115 244 156 -19 83 68 l 196 703 b 203 708 197 707 199 708 l 211 708 b 215 703 215 708 217 707 l 135 246 b 332 -1 106 81 172 -1 b 581 43 422 -1 506 14 b 626 100 607 54 622 74 l 732 703 b 739 708 733 707 735 708 "},"Ű":{"ha":942,"x_min":0,"x_max":0,"o":"m 622 1236 b 632 1240 626 1240 629 1242 l 643 1239 b 644 1232 650 1238 650 1236 l 453 1063 b 443 1060 449 1058 444 1058 l 435 1063 b 435 1069 431 1064 431 1067 m 868 1236 b 878 1240 872 1240 875 1242 l 889 1239 b 890 1232 896 1238 896 1236 l 699 1063 b 689 1060 694 1058 690 1058 l 681 1063 b 681 1069 676 1064 676 1067 m 149 332 b 426 -1 114 125 204 -1 b 821 332 649 -1 786 125 l 936 981 b 942 986 936 985 938 986 l 951 986 b 957 981 956 986 958 985 l 842 328 b 425 -21 803 107 660 -21 b 128 335 190 -21 89 114 l 243 981 b 249 986 244 985 246 986 l 258 986 b 264 981 263 986 264 985 "},"ű":{"ha":754,"x_min":0,"x_max":0,"o":"m 500 978 b 510 982 504 982 507 983 l 521 981 b 522 974 528 979 528 978 l 331 804 b 321 801 326 800 322 800 l 313 804 b 313 811 308 806 308 808 m 749 975 b 758 979 753 979 756 981 l 769 978 b 771 971 774 976 775 975 l 574 807 b 564 804 571 803 568 803 l 556 807 b 556 814 551 808 551 810 m 747 708 b 751 703 751 708 753 707 l 646 100 b 581 25 636 57 625 43 b 331 -19 504 -4 421 -19 b 115 244 156 -19 83 68 l 196 703 b 203 708 197 707 199 708 l 211 708 b 215 703 215 708 217 707 l 135 246 b 332 -1 106 81 172 -1 b 581 43 422 -1 506 14 b 626 100 607 54 622 74 l 732 703 b 739 708 733 707 735 708 "},"Ų":{"ha":942,"x_min":0,"x_max":0,"o":"m 951 986 b 957 981 956 986 958 985 l 842 328 b 676 47 818 199 764 106 b 500 -125 606 0 547 -57 b 439 -279 451 -192 432 -243 b 501 -325 446 -314 461 -325 b 618 -274 542 -325 581 -308 b 624 -275 621 -271 622 -271 l 626 -286 b 622 -294 628 -287 626 -290 b 497 -344 582 -328 540 -344 b 419 -287 454 -344 429 -325 b 458 -151 413 -254 425 -208 b 593 6 492 -94 536 -42 b 425 -21 542 -12 486 -21 b 128 335 190 -21 89 114 l 243 981 b 249 986 244 985 246 986 l 258 986 b 264 981 263 986 264 985 l 149 332 b 426 -1 114 125 204 -1 b 821 332 649 -1 786 125 l 936 981 b 942 986 936 985 938 986 "},"ų":{"ha":754,"x_min":0,"x_max":0,"o":"m 747 708 b 751 703 751 708 753 707 l 646 100 b 607 38 640 71 628 50 b 444 -125 542 -6 488 -60 b 389 -278 401 -190 382 -242 b 454 -324 394 -308 417 -324 b 569 -275 496 -324 535 -307 b 575 -276 572 -272 574 -272 l 576 -286 b 572 -294 576 -289 575 -292 b 446 -344 532 -328 489 -344 b 368 -286 400 -344 375 -325 b 408 -144 360 -250 374 -203 b 551 15 443 -86 490 -33 b 331 -19 483 -8 410 -19 b 115 244 156 -19 83 68 l 196 703 b 203 708 197 707 199 708 l 211 708 b 215 703 215 708 217 707 l 135 246 b 333 -1 106 81 172 -1 b 581 43 424 -1 506 14 b 626 100 607 54 622 74 l 732 703 b 739 708 733 707 735 708 "},"Ŵ":{"ha":1190,"x_min":0,"x_max":0,"o":"m 743 1240 b 758 1233 747 1240 753 1238 l 931 1069 b 925 1064 932 1065 931 1064 l 917 1064 b 906 1068 913 1064 908 1065 l 742 1221 l 524 1068 b 511 1064 519 1065 515 1064 l 496 1064 b 493 1069 489 1064 488 1065 l 725 1233 b 739 1240 731 1238 735 1240 m 1253 986 b 1257 981 1257 986 1258 985 l 815 7 b 804 0 814 3 810 0 l 796 0 b 788 7 790 0 788 3 l 700 810 b 696 857 700 811 699 828 b 688 924 692 886 689 908 l 686 924 l 633 810 l 260 7 b 249 0 258 3 254 0 l 240 0 b 232 7 235 0 232 3 l 135 981 b 139 986 133 985 135 986 l 149 986 b 157 981 153 986 156 985 l 239 143 b 249 33 242 121 244 85 l 250 33 l 300 142 l 678 953 b 688 958 681 957 683 958 l 697 958 b 704 953 701 958 704 957 l 793 139 b 804 33 794 117 803 57 l 806 33 b 850 138 826 79 840 114 l 1235 981 b 1243 986 1236 985 1239 986 "},"ŵ":{"ha":1006,"x_min":0,"x_max":0,"o":"m 357 801 b 353 807 350 801 349 803 l 585 971 b 600 978 592 975 596 978 l 604 978 b 618 971 608 978 614 975 l 790 807 b 786 801 794 803 793 801 l 778 801 b 765 806 774 801 769 803 l 601 961 l 383 806 b 372 801 379 803 376 801 m 1019 708 b 1022 701 1024 708 1025 706 l 672 -1 b 664 -8 669 -6 667 -8 l 654 -8 b 647 -1 650 -8 647 -6 l 560 558 b 546 650 554 599 550 629 l 544 650 b 497 558 536 631 503 568 l 210 -1 b 201 -8 207 -6 204 -8 l 192 -8 b 186 -1 189 -8 188 -6 l 85 701 b 90 708 85 706 86 708 l 99 708 b 104 701 103 708 104 706 l 185 140 l 201 25 l 203 25 l 263 143 l 538 675 b 546 681 539 679 542 681 l 553 681 b 560 675 557 681 558 679 l 643 150 b 663 25 653 94 658 53 l 664 25 l 725 147 l 1001 703 b 1011 708 1003 707 1007 708 "},"Ŷ":{"ha":842,"x_min":0,"x_max":0,"o":"m 569 1240 b 585 1233 574 1240 579 1238 l 757 1069 b 751 1064 758 1065 757 1064 l 743 1064 b 732 1068 739 1064 735 1065 l 568 1221 l 350 1068 b 338 1064 346 1065 342 1064 l 322 1064 b 319 1069 315 1064 314 1065 l 551 1233 b 565 1240 557 1238 561 1240 m 919 986 b 924 981 924 986 925 985 l 432 411 l 361 6 b 354 0 360 1 358 0 l 344 0 b 340 6 340 0 339 1 l 411 413 l 124 981 b 128 986 122 985 124 986 l 139 986 b 149 981 143 986 146 985 l 425 433 l 896 981 b 906 986 899 985 901 986 "},"ŷ":{"ha":758,"x_min":0,"x_max":0,"o":"m 231 801 b 226 807 224 801 222 803 l 458 971 b 474 978 465 975 469 978 l 478 978 b 492 971 482 978 488 975 l 664 807 b 660 801 668 803 667 801 l 651 801 b 639 806 647 801 643 803 l 475 961 l 257 806 b 246 801 253 803 249 801 m 701 708 b 706 703 706 708 707 707 l 571 -62 b 235 -361 536 -261 424 -361 b 0 -194 111 -361 32 -306 b 4 -186 -1 -190 0 -187 l 11 -183 b 18 -186 15 -182 18 -182 b 239 -342 50 -286 110 -342 b 551 -62 414 -342 518 -249 l 569 38 b 285 -19 465 0 371 -19 b 69 244 110 -19 38 68 l 150 703 b 157 708 151 707 153 708 l 165 708 b 169 703 169 708 171 707 l 89 246 b 288 -1 61 81 117 -1 b 572 57 376 -1 471 18 l 686 703 b 693 708 688 707 689 708 "},"Ÿ":{"ha":842,"x_min":0,"x_max":0,"o":"m 429 1165 b 442 1150 442 1165 443 1163 l 440 1142 b 422 1126 439 1132 432 1126 l 414 1126 b 401 1142 404 1126 400 1132 l 403 1150 b 421 1165 404 1160 410 1165 m 689 1165 b 703 1150 699 1165 704 1160 l 701 1142 b 682 1126 700 1132 693 1126 l 675 1126 b 661 1142 660 1126 660 1129 l 663 1150 b 682 1165 664 1160 669 1165 m 919 986 b 924 981 924 986 925 985 l 432 411 l 361 6 b 354 0 360 1 358 0 l 344 0 b 340 6 340 0 339 1 l 411 413 l 124 981 b 128 986 122 985 124 986 l 139 986 b 149 981 143 986 146 985 l 425 433 l 896 981 b 906 986 899 985 901 986 "},"Ź":{"ha":740,"x_min":0,"x_max":0,"o":"m 636 1238 b 649 1236 640 1240 644 1240 l 651 1232 b 649 1222 656 1228 654 1225 l 372 1064 b 363 1065 368 1063 365 1063 l 358 1071 b 361 1079 357 1074 357 1076 m 786 986 b 792 981 790 986 792 985 l 790 975 b 785 964 789 971 788 967 l -7 21 l 636 21 b 640 15 640 21 642 19 l 639 6 b 632 0 638 1 636 0 l -31 0 b -35 6 -35 0 -36 1 l -33 13 b -28 26 -33 17 -32 22 l 763 967 l 146 967 b 140 972 142 967 140 968 l 143 981 b 149 986 143 985 144 986 "},"ź":{"ha":596,"x_min":0,"x_max":0,"o":"m 517 986 b 529 985 521 989 525 989 l 532 981 b 529 971 536 976 535 974 l 253 813 b 243 814 249 811 246 811 l 239 819 b 242 828 236 822 238 825 m 486 18 b 490 13 489 18 490 17 l 489 6 b 483 0 488 1 486 0 l -29 0 b -33 6 -33 0 -35 1 l -32 13 b -26 22 -32 15 -31 18 l 581 690 l 97 690 b 93 696 94 690 93 692 l 94 703 b 100 708 96 707 97 708 l 601 708 b 606 703 606 708 607 707 l 604 696 b 599 685 604 694 603 690 l -7 18 "},"Ż":{"ha":740,"x_min":0,"x_max":0,"o":"m 508 1158 b 522 1142 521 1158 525 1153 l 521 1136 b 501 1119 519 1125 514 1119 l 496 1119 b 482 1136 483 1119 481 1124 l 483 1142 b 503 1158 486 1153 493 1158 m 786 986 b 792 981 790 986 792 985 l 790 975 b 785 964 789 971 788 967 l -7 21 l 636 21 b 640 15 640 21 642 19 l 639 6 b 632 0 638 1 636 0 l -31 0 b -35 6 -35 0 -36 1 l -33 13 b -28 26 -33 17 -32 22 l 763 967 l 146 967 b 140 972 142 967 140 968 l 143 981 b 149 986 143 985 144 986 "},"ż":{"ha":596,"x_min":0,"x_max":0,"o":"m 389 907 b 403 890 399 907 404 901 l 401 885 b 382 868 400 874 394 868 l 376 868 b 363 885 364 868 361 872 l 364 890 b 383 907 365 901 371 907 m 486 18 b 490 13 489 18 490 17 l 489 6 b 483 0 488 1 486 0 l -29 0 b -33 6 -33 0 -35 1 l -32 13 b -26 22 -32 15 -31 18 l 581 690 l 97 690 b 93 696 94 690 93 692 l 94 703 b 100 708 96 707 97 708 l 601 708 b 606 703 606 708 607 707 l 604 696 b 599 685 604 694 603 690 l -7 18 "},"Ž":{"ha":740,"x_min":0,"x_max":0,"o":"m 735 1242 b 736 1235 740 1242 740 1239 l 507 1072 b 490 1065 500 1068 494 1065 l 486 1065 b 474 1072 482 1065 478 1068 l 301 1235 b 300 1240 300 1236 299 1238 b 306 1242 301 1242 303 1242 l 318 1242 b 328 1238 319 1242 324 1240 l 489 1085 l 710 1238 b 724 1242 714 1240 718 1242 m 786 986 b 792 981 790 986 792 985 l 790 975 b 785 964 789 971 788 967 l -7 21 l 636 21 b 640 15 640 21 642 19 l 639 6 b 632 0 638 1 636 0 l -31 0 b -35 6 -35 0 -36 1 l -33 13 b -28 26 -33 17 -32 22 l 763 967 l 146 967 b 140 972 142 967 140 968 l 143 981 b 149 986 143 985 144 986 "},"ž":{"ha":596,"x_min":0,"x_max":0,"o":"m 613 978 b 614 971 618 978 618 975 l 385 808 b 369 801 379 804 374 801 l 368 801 b 354 808 364 801 360 804 l 181 972 b 183 978 179 976 179 978 l 196 978 b 206 974 200 978 203 976 l 369 821 l 588 974 b 601 978 592 976 596 978 m 601 708 b 606 703 606 708 607 707 l 604 696 b 599 685 604 694 603 690 l -7 18 l 486 18 b 490 13 489 18 490 17 l 489 6 b 483 0 488 1 486 0 l -29 0 b -33 6 -33 0 -35 1 l -32 13 b -26 22 -32 15 -31 18 l 581 690 l 97 690 b 93 696 94 690 93 692 l 94 703 b 100 708 96 707 97 708 "},"ſ":{"ha":306,"x_min":0,"x_max":0,"o":"m 215 767 b 310 974 233 868 265 938 b 525 1028 353 1010 425 1028 b 529 1022 528 1028 529 1026 l 528 1014 b 521 1008 526 1010 525 1008 b 319 961 425 1008 358 993 b 235 767 279 929 251 864 l 101 6 b 94 0 100 1 99 0 l 86 0 b 82 6 82 0 81 1 l 203 690 l 61 690 b 56 696 57 690 56 692 l 57 703 b 64 708 58 707 60 708 l 206 708 "},"ƒ":{"ha":574,"x_min":0,"x_max":0,"o":"m 335 764 b 633 1028 369 940 468 1028 b 639 1022 638 1028 639 1026 l 639 1014 b 632 1008 638 1010 636 1008 b 356 761 465 1008 388 922 l 306 507 l 546 507 b 550 501 550 507 551 506 l 550 493 b 543 488 549 489 547 488 l 301 488 l 197 -39 b -104 -306 163 -217 63 -306 b -108 -300 -107 -306 -108 -304 l -108 -292 b -101 -286 -107 -287 -106 -286 b 176 -36 64 -286 144 -197 l 281 488 l 53 488 b 49 493 49 488 47 489 l 49 501 b 56 507 50 506 51 507 l 283 507 "},"Ǻ":{"ha":861,"x_min":0,"x_max":0,"o":"m 710 1321 b 721 1319 715 1324 719 1324 l 724 1313 b 721 1306 725 1310 724 1307 l 464 1197 b 456 1199 461 1196 458 1196 l 453 1206 b 460 1214 451 1207 454 1210 m 426 1071 b 571 1188 439 1139 497 1188 b 674 1071 643 1188 686 1139 b 553 965 664 1014 615 972 l 778 6 b 771 0 778 1 775 0 l 765 0 b 757 6 760 0 757 1 l 671 376 l 190 376 l -26 6 b -37 0 -29 1 -33 0 l -46 0 b -50 6 -53 0 -54 1 l 513 965 b 426 1071 451 972 417 1014 m 656 1071 b 569 1169 665 1131 631 1169 b 444 1071 507 1169 454 1128 b 532 982 435 1019 471 982 b 656 1071 593 982 646 1019 m 575 790 b 535 963 560 857 547 914 l 533 963 l 435 792 l 201 396 l 665 396 "},"ǻ":{"ha":731,"x_min":0,"x_max":0,"o":"m 603 1221 b 614 1219 607 1224 611 1224 l 617 1217 b 614 1210 619 1215 618 1213 l 356 1092 b 347 1093 353 1090 350 1092 l 343 1097 b 346 1104 340 1099 342 1101 m 353 932 b 506 1054 365 1010 424 1054 b 610 926 585 1054 625 1004 b 461 804 597 849 540 804 b 353 932 382 804 338 854 m 593 929 b 503 1038 606 996 571 1038 b 369 929 426 1038 382 1001 b 464 821 358 863 393 821 b 593 929 532 821 582 863 m 114 472 b 440 728 143 650 244 728 b 650 689 522 728 593 715 b 693 613 693 671 700 657 l 593 43 b 579 31 592 39 588 35 b 285 -19 492 -3 393 -19 b 76 264 111 -19 44 92 m 640 671 b 438 710 583 697 515 710 b 133 472 256 710 163 640 l 96 264 b 288 -1 67 101 126 -1 b 574 49 397 -1 493 15 l 674 613 b 640 671 679 650 675 654 "},"Ǽ":{"ha":1111,"x_min":0,"x_max":0,"o":"m 1078 1238 b 1090 1236 1082 1240 1086 1240 l 1093 1232 b 1090 1222 1097 1228 1096 1225 l 814 1064 b 804 1065 810 1063 807 1063 l 800 1071 b 803 1079 799 1074 799 1076 m 988 19 b 992 14 990 19 992 18 l 990 6 b 983 0 989 1 988 0 l 532 0 b 528 6 528 0 526 1 l 576 281 l 169 281 l -44 6 b -56 0 -49 1 -51 0 l -64 0 b -68 6 -71 0 -72 1 l 689 979 b 700 986 693 983 696 986 l 1136 986 b 1142 981 1140 986 1142 985 l 1139 972 b 1133 967 1139 968 1138 967 l 718 967 l 638 508 l 994 508 b 999 503 997 508 999 507 l 997 494 b 990 489 996 490 994 489 l 633 489 l 551 19 m 697 957 l 185 300 l 579 300 "},"ǽ":{"ha":1083,"x_min":0,"x_max":0,"o":"m 769 986 b 782 985 774 989 778 989 l 785 981 b 782 971 789 976 788 974 l 506 813 b 496 814 501 811 499 811 l 492 819 b 494 828 489 822 490 825 m 571 547 b 844 728 622 663 722 728 b 1051 496 1007 728 1086 644 b 775 310 1022 374 921 310 b 539 342 696 310 617 321 l 522 246 b 707 -1 493 81 556 -1 b 968 149 829 -1 906 50 b 975 151 971 153 974 153 l 985 147 b 985 140 986 146 986 144 b 704 -19 917 33 822 -19 b 507 101 596 -19 531 21 b 257 -19 467 35 379 -19 b 36 189 83 -19 13 50 b 333 389 60 328 154 389 b 526 369 401 389 465 382 l 542 456 b 528 660 557 539 563 607 b 383 710 504 689 456 710 b 149 583 286 710 208 668 b 142 581 147 581 144 579 l 133 583 b 132 592 129 585 129 588 b 388 728 199 686 275 728 b 571 547 528 728 575 660 m 1033 499 b 842 710 1067 636 993 710 b 557 442 693 710 586 610 l 543 360 b 779 328 614 339 692 328 b 1033 499 921 328 1006 385 m 524 353 b 329 371 461 365 396 371 b 56 186 163 371 79 314 b 260 -1 33 58 99 -1 b 433 50 332 -1 394 19 b 501 126 471 81 489 103 b 504 246 494 164 496 204 "},"Ǿ":{"ha":917,"x_min":0,"x_max":0,"o":"m 728 1251 b 740 1250 732 1254 736 1254 l 743 1246 b 740 1236 747 1242 746 1239 l 464 1078 b 454 1079 460 1076 457 1076 l 450 1085 b 453 1093 449 1088 449 1090 m 939 1039 b 940 1035 943 1039 943 1038 l 832 901 b 872 665 878 842 890 764 l 810 313 b 390 -19 772 101 625 -19 b 144 58 281 -19 199 7 l 50 -58 b 39 -62 47 -61 43 -62 l 29 -62 b 28 -58 25 -62 25 -61 l 132 71 b 79 321 78 131 60 214 l 142 674 b 565 1006 179 885 328 1006 b 821 914 682 1006 767 975 l 918 1035 b 928 1039 921 1038 924 1039 m 807 899 b 564 986 757 957 676 986 b 293 904 451 986 361 958 b 163 668 224 849 181 769 l 100 318 b 146 86 83 219 99 142 m 851 668 b 818 883 867 758 856 831 l 158 74 b 390 0 210 25 286 0 b 789 318 611 0 754 118 "},"ǿ":{"ha":743,"x_min":0,"x_max":0,"o":"m 586 986 b 599 985 590 989 594 989 l 601 981 b 599 971 606 976 604 974 l 322 813 b 313 814 318 811 315 811 l 308 819 b 311 828 306 822 307 825 m 700 767 b 701 763 701 767 703 765 l 622 665 b 674 497 668 622 686 567 l 624 211 b 294 -19 600 68 468 -19 b 110 31 218 -19 156 -3 l 49 -44 b 40 -49 46 -47 43 -49 l 26 -49 b 25 -44 25 -49 24 -46 l 94 42 b 44 211 49 83 32 140 l 94 497 b 421 728 118 640 249 728 b 608 678 500 728 563 711 l 679 764 b 686 767 681 765 683 767 m 597 661 b 421 710 553 693 494 710 b 114 499 261 710 138 626 l 64 210 b 106 57 51 143 65 92 m 121 46 b 296 -1 161 14 219 -1 b 604 210 458 -1 581 82 l 654 499 b 610 649 665 561 650 611 "},"Ș":{"ha":846,"x_min":0,"x_max":0,"o":"m 143 757 b 521 1006 172 919 310 1006 b 832 793 694 1006 788 932 b 828 785 833 789 832 786 l 824 782 b 815 783 819 781 817 782 b 518 985 772 917 685 985 b 163 753 319 985 189 903 b 238 564 146 663 172 599 b 457 504 303 529 361 515 b 643 464 536 494 582 489 b 714 419 674 451 697 436 b 753 243 747 385 768 322 b 356 -19 721 65 593 -19 b 25 229 171 -19 65 58 b 29 239 24 233 25 238 l 38 242 b 44 239 42 243 43 242 b 356 1 88 72 182 1 b 733 247 579 1 704 83 b 628 447 746 363 713 417 b 450 483 567 469 529 474 b 221 550 351 496 288 511 b 143 757 154 589 126 658 m 274 -340 b 265 -347 272 -344 269 -347 l 260 -347 b 254 -340 254 -347 253 -344 l 356 -136 b 365 -131 357 -132 361 -131 l 372 -131 b 376 -137 376 -131 378 -133 "},"ș":{"ha":674,"x_min":0,"x_max":0,"o":"m 97 538 b 388 728 121 664 217 728 b 631 575 531 728 611 676 b 628 567 632 571 631 568 l 622 564 b 614 567 618 563 615 563 b 386 710 593 661 532 710 b 117 535 231 710 138 647 b 165 396 101 458 126 418 b 221 375 175 388 208 379 b 257 369 228 374 239 371 b 332 361 290 364 293 365 b 347 360 339 360 343 360 b 518 317 425 353 471 343 b 569 169 565 290 582 242 b 269 -19 547 43 447 -19 b 10 158 121 -19 36 31 b 14 167 10 163 11 165 l 22 169 b 28 167 26 171 28 169 b 271 -1 50 46 131 -1 b 550 172 436 -1 529 57 b 501 304 561 238 546 281 b 342 342 457 326 418 335 b 160 378 250 351 189 363 b 97 538 104 404 83 458 m 201 -312 b 192 -319 199 -317 196 -319 l 186 -319 b 182 -312 181 -319 179 -317 l 278 -97 b 286 -92 279 -93 282 -92 l 294 -92 b 299 -97 300 -92 301 -93 "},"Ț":{"ha":717,"x_min":0,"x_max":0,"o":"m 793 986 b 799 981 797 986 799 985 l 796 972 b 790 967 796 968 794 967 l 464 967 l 294 6 b 288 0 293 1 292 0 l 278 0 b 274 6 274 0 272 1 l 443 967 l 117 967 b 111 972 113 967 111 968 l 114 981 b 119 986 114 985 115 986 m 196 -328 b 188 -335 193 -332 190 -335 l 182 -335 b 176 -328 175 -335 174 -332 l 278 -124 b 288 -118 279 -119 283 -118 l 294 -118 b 299 -125 300 -118 301 -121 "},"ț":{"ha":442,"x_min":0,"x_max":0,"o":"m 268 875 b 272 869 272 875 274 874 l 244 708 l 490 708 b 494 703 494 708 496 707 l 493 696 b 488 690 493 692 492 690 l 242 690 l 163 240 b 179 47 146 143 151 79 b 363 0 206 15 267 0 b 367 -6 367 0 368 -1 l 365 -14 b 360 -19 365 -18 364 -19 b 163 35 260 -19 194 -1 b 143 240 131 69 125 139 l 222 690 l 51 690 b 46 696 47 690 46 692 l 47 703 b 54 708 49 707 50 708 l 225 708 l 253 869 b 260 875 254 874 256 875 m 129 -328 b 121 -335 126 -332 124 -335 l 115 -335 b 110 -328 108 -335 107 -332 l 211 -124 b 221 -118 213 -119 217 -118 l 228 -118 b 232 -125 233 -118 235 -121 "},"ȷ":{"ha":228,"x_min":0,"x_max":0,"o":"m 169 708 b 174 703 174 708 175 707 l 47 -14 b -264 -319 10 -221 -71 -319 b -268 -314 -267 -319 -268 -318 l -267 -306 b -260 -300 -265 -301 -264 -300 b 28 -15 -81 -300 -6 -210 l 154 703 b 161 708 156 707 157 708 "},"ˆ":{"ha":500,"x_min":0,"x_max":0,"o":"m 369 992 b 383 985 374 992 379 989 l 556 821 b 551 815 560 817 558 815 l 543 815 b 531 819 539 815 535 817 l 367 975 l 149 819 b 138 815 144 817 140 815 l 122 815 b 118 821 115 815 114 817 l 350 985 b 365 992 357 989 361 992 "},"ˇ":{"ha":461,"x_min":0,"x_max":0,"o":"m 561 992 b 563 985 567 992 567 989 l 333 822 b 318 815 328 818 322 815 l 317 815 b 303 822 313 815 308 818 l 129 986 b 132 992 128 990 128 992 l 144 992 b 154 988 149 992 151 990 l 318 835 l 536 988 b 550 992 540 990 544 992 "},"˘":{"ha":399,"x_min":0,"x_max":0,"o":"m 511 983 b 282 824 465 876 389 824 b 100 983 167 824 110 872 b 104 990 99 988 100 990 l 113 992 b 119 988 117 993 118 992 b 281 843 126 888 176 843 b 493 989 379 843 450 892 b 500 993 494 993 496 994 l 510 990 b 511 983 511 989 513 988 "},"˙":{"ha":300,"x_min":0,"x_max":0,"o":"m 254 921 b 268 904 264 921 269 915 l 267 899 b 247 882 265 888 260 882 l 242 882 b 228 899 229 882 226 886 l 229 904 b 249 921 231 915 236 921 "},"˚":{"ha":333,"x_min":0,"x_max":0,"o":"m 142 878 b 294 1000 154 956 213 1000 b 399 872 374 1000 414 950 b 250 750 386 794 329 750 b 142 878 171 750 126 800 m 382 875 b 292 983 394 942 360 983 b 158 875 215 983 171 947 b 253 767 147 808 182 767 b 382 875 321 767 371 808 "},"˛":{"ha":350,"x_min":0,"x_max":0,"o":"m 206 0 b 0 -279 63 -93 -15 -206 b 63 -325 7 -314 22 -325 b 179 -274 103 -325 142 -308 b 185 -275 182 -271 183 -271 l 188 -286 b 183 -294 189 -287 188 -290 b 58 -344 143 -328 101 -344 b -19 -287 15 -344 -10 -325 b 181 0 -36 -210 40 -93 "},"˜":{"ha":424,"x_min":0,"x_max":0,"o":"m 529 967 b 533 961 533 967 535 965 b 417 840 518 881 479 840 b 201 949 315 840 293 949 b 103 846 151 949 114 907 b 97 840 103 842 101 840 l 89 840 b 83 846 85 840 83 842 b 203 967 96 919 140 967 b 314 913 238 967 274 949 b 417 858 353 876 388 858 b 514 961 468 858 503 900 b 521 967 515 965 517 967 "},"˝":{"ha":549,"x_min":0,"x_max":0,"o":"m 361 992 b 371 996 365 996 368 997 l 382 994 b 383 988 389 993 389 992 l 192 818 b 182 815 188 814 183 814 l 174 818 b 174 825 169 819 169 822 m 610 989 b 619 993 614 993 617 994 l 631 992 b 632 985 635 990 636 989 l 435 821 b 425 818 432 817 429 817 l 417 821 b 417 828 413 822 413 824 "},"̦":{"ha":0,"x_min":0,"x_max":0,"o":"m 3 -328 b -6 -335 0 -332 -3 -335 l -11 -335 b -17 -328 -18 -335 -19 -332 l 85 -124 b 94 -118 86 -119 90 -118 l 101 -118 b 106 -125 107 -118 108 -121 "},"π":{"ha":811,"x_min":0,"x_max":0,"o":"m 839 708 b 843 703 843 708 844 707 l 842 696 b 836 690 842 692 840 690 l 718 690 l 631 197 b 644 13 618 121 622 58 b 640 3 646 8 644 4 l 633 -1 b 625 1 631 -3 628 -3 b 611 197 601 51 596 117 l 699 690 l 274 690 l 153 6 b 146 0 151 1 150 0 l 138 0 b 133 6 133 0 132 1 l 254 690 b 63 638 189 689 125 672 b 53 638 57 633 54 633 l 50 644 b 54 653 49 647 50 650 b 274 708 119 690 192 708 "},"Ё":{"ha":785,"x_min":0,"x_max":0,"o":"m 433 1150 b 446 1135 446 1150 447 1147 l 444 1126 b 426 1111 443 1117 436 1111 l 418 1111 b 406 1126 408 1111 404 1117 l 407 1135 b 425 1150 408 1144 414 1150 m 693 1150 b 707 1135 703 1150 708 1144 l 706 1126 b 686 1111 704 1117 697 1111 l 679 1111 b 665 1126 664 1111 664 1114 l 667 1135 b 686 1150 668 1144 674 1150 m 801 986 b 807 981 806 986 807 985 l 804 972 b 799 967 804 968 803 967 l 240 967 l 160 510 l 660 510 b 664 504 664 510 665 508 l 663 496 b 656 490 661 492 660 490 l 156 490 l 74 19 l 653 19 b 657 14 656 19 657 18 l 656 6 b 649 0 654 1 653 0 l 54 0 b 50 6 50 0 49 1 l 222 981 b 228 986 222 985 224 986 "},"А":{"ha":861,"x_min":0,"x_max":0,"o":"m 778 6 b 771 0 778 1 775 0 l 765 0 b 757 6 760 0 757 1 l 674 363 l 182 363 l -26 6 b -37 0 -29 1 -33 0 l -46 0 b -50 6 -53 0 -54 1 l 522 988 b 533 994 525 992 529 994 l 542 994 b 550 988 547 994 550 992 m 538 953 b 535 969 538 954 535 964 l 533 969 b 526 953 531 961 528 956 l 193 382 l 671 382 "},"Б":{"ha":864,"x_min":0,"x_max":0,"o":"m 833 986 b 839 981 838 986 839 985 l 836 972 b 831 967 836 968 835 967 l 240 967 l 164 533 l 558 533 b 785 263 729 533 814 433 b 468 0 756 94 639 0 l 54 0 b 50 6 50 0 49 1 l 222 981 b 228 986 222 985 224 986 m 667 83 b 764 267 718 126 750 188 b 731 450 778 346 767 407 b 556 514 694 493 636 514 l 160 514 l 74 19 l 469 19 b 667 83 549 19 615 40 "},"В":{"ha":883,"x_min":0,"x_max":0,"o":"m 624 986 b 835 742 785 986 863 899 b 635 507 813 614 746 536 l 635 506 b 783 254 753 482 810 386 b 475 0 751 89 642 0 l 54 0 b 50 6 50 0 49 1 l 222 981 b 228 986 222 985 224 986 m 725 572 b 814 742 771 611 801 668 b 785 910 826 815 817 872 b 622 967 751 947 697 967 l 240 967 l 160 514 l 542 514 b 725 572 617 514 678 533 m 763 258 b 561 494 789 408 715 494 l 157 494 l 74 19 l 478 19 b 763 258 633 19 735 103 "},"Г":{"ha":710,"x_min":0,"x_max":0,"o":"m 771 986 b 776 981 775 986 776 985 l 774 972 b 768 967 774 968 772 967 l 240 967 l 71 6 b 64 0 69 1 68 0 l 54 0 b 50 6 50 0 49 1 l 222 981 b 228 986 222 985 224 986 "},"Д":{"ha":954,"x_min":0,"x_max":0,"o":"m 906 986 b 911 981 910 986 911 985 l 742 19 l 846 19 b 850 14 849 19 850 18 l 811 -207 b 804 -212 810 -211 808 -212 l 794 -212 b 790 -207 790 -212 789 -211 l 826 0 l -33 0 l -69 -207 b -76 -212 -71 -211 -72 -212 l -86 -212 b -90 -207 -90 -212 -92 -211 l -51 14 b -44 19 -51 18 -49 19 l 24 19 b 128 121 63 43 83 56 b 188 236 150 153 169 192 b 306 703 222 325 268 492 l 356 981 b 361 986 356 985 357 986 m 372 967 l 325 703 b 182 182 282 454 232 276 b 56 19 132 86 100 51 l 721 19 l 888 967 "},"Е":{"ha":785,"x_min":0,"x_max":0,"o":"m 801 986 b 807 981 806 986 807 985 l 804 972 b 799 967 804 968 803 967 l 240 967 l 160 510 l 660 510 b 664 504 664 510 665 508 l 663 496 b 656 490 661 492 660 490 l 156 490 l 74 19 l 653 19 b 657 14 656 19 657 18 l 656 6 b 649 0 654 1 653 0 l 54 0 b 50 6 50 0 49 1 l 222 981 b 228 986 222 985 224 986 "},"Ж":{"ha":1238,"x_min":0,"x_max":0,"o":"m 1293 986 b 1296 979 1300 986 1300 983 l 888 500 b 1025 356 953 482 999 435 l 1139 7 b 1133 0 1140 3 1139 0 l 1126 0 b 1117 6 1121 0 1118 1 l 1006 344 b 796 490 971 450 922 490 l 647 490 l 563 6 b 556 0 561 1 560 0 l 546 0 b 542 6 542 0 540 1 l 626 490 l 478 490 b 218 344 357 490 286 446 l -12 6 b -25 0 -17 1 -21 0 l -32 0 b -35 7 -39 0 -39 3 l 201 356 b 390 500 256 435 318 482 l 150 979 b 156 986 149 983 150 986 l 160 986 b 172 981 165 986 169 985 l 410 506 b 482 510 431 508 456 510 l 631 510 l 714 981 b 719 986 714 985 715 986 l 729 986 b 735 981 733 986 735 985 l 651 510 l 800 510 b 865 506 825 510 847 508 l 1272 981 b 1285 986 1275 985 1279 986 "},"З":{"ha":836,"x_min":0,"x_max":0,"o":"m 792 732 b 607 507 771 626 708 536 b 738 260 717 469 761 388 b 350 -19 706 82 576 -19 b 28 233 129 -19 44 63 b 33 242 26 238 29 240 l 39 242 b 47 238 43 243 46 242 b 351 0 64 72 144 0 b 718 263 564 0 690 96 b 529 497 744 406 675 497 l 242 497 b 238 503 238 497 236 499 l 239 511 b 246 517 239 515 242 517 l 533 517 b 774 735 671 517 751 613 b 528 986 803 896 717 986 b 147 754 328 986 224 917 b 138 751 146 750 142 750 l 132 753 b 129 761 128 754 128 757 b 531 1006 203 928 318 1006 b 792 732 732 1006 824 904 "},"И":{"ha":957,"x_min":0,"x_max":0,"o":"m 929 986 b 935 981 933 986 935 985 l 763 6 b 756 0 761 1 760 0 l 746 0 b 742 6 742 0 740 1 l 865 703 b 910 949 886 813 900 894 l 908 949 l 710 725 l 74 6 b 63 0 69 1 67 0 l 54 0 b 50 6 50 0 49 1 l 222 981 b 228 986 222 985 224 986 l 238 986 b 243 981 242 986 244 985 l 122 308 l 75 38 l 76 38 l 293 283 l 913 982 b 921 986 914 985 917 986 "},"Й":{"ha":957,"x_min":0,"x_max":0,"o":"m 590 1064 b 410 1224 475 1064 419 1113 b 414 1231 410 1228 411 1231 l 424 1232 b 429 1228 428 1232 429 1231 b 592 1083 436 1128 488 1083 b 803 1229 693 1083 758 1128 b 811 1233 806 1233 808 1235 l 819 1231 b 821 1224 822 1229 822 1226 b 590 1064 772 1113 703 1064 m 929 986 b 935 981 933 986 935 985 l 763 6 b 756 0 761 1 760 0 l 746 0 b 742 6 742 0 740 1 l 865 703 b 910 949 886 813 900 894 l 908 949 l 710 725 l 74 6 b 63 0 69 1 67 0 l 54 0 b 50 6 50 0 49 1 l 222 981 b 228 986 222 985 224 986 l 238 986 b 243 981 242 986 244 985 l 122 308 l 75 38 l 76 38 l 293 283 l 913 982 b 921 986 914 985 917 986 "},"К":{"ha":817,"x_min":0,"x_max":0,"o":"m 715 7 b 710 0 717 3 715 0 l 704 0 b 694 6 699 0 696 1 l 583 344 b 381 490 549 449 501 490 l 156 490 l 71 6 b 64 0 69 1 68 0 l 54 0 b 50 6 50 0 49 1 l 222 981 b 228 986 222 985 224 986 l 238 986 b 243 981 242 986 243 985 l 160 510 l 378 510 b 419 508 396 510 410 510 l 849 981 b 861 986 851 985 856 986 l 871 986 b 874 979 878 986 878 983 l 442 504 b 601 356 529 489 574 440 "},"Л":{"ha":883,"x_min":0,"x_max":0,"o":"m 856 986 b 861 981 860 986 861 985 l 689 6 b 682 0 688 1 686 0 l 672 0 b 668 6 668 0 667 1 l 838 967 l 324 967 l 267 647 b 151 189 228 429 185 274 b 89 83 135 146 114 111 b 26 25 64 54 43 35 b -46 -12 10 15 -14 3 b -58 -18 -51 -15 -56 -17 b -67 -17 -62 -19 -65 -19 l -69 -8 b -65 0 -71 -4 -69 -1 b 38 60 -11 26 -7 25 b 125 182 78 90 92 119 b 246 647 171 269 204 411 l 306 981 b 311 986 306 985 307 986 "},"М":{"ha":1099,"x_min":0,"x_max":0,"o":"m 1071 986 b 1076 981 1075 986 1076 985 l 904 6 b 897 0 903 1 901 0 l 888 0 b 883 6 883 0 882 1 l 1011 728 l 1050 942 l 1049 942 l 918 767 l 536 249 b 525 242 532 244 529 242 l 517 242 b 507 249 511 242 508 244 l 303 774 l 238 943 l 236 943 l 197 728 l 71 6 b 64 0 69 1 68 0 l 54 0 b 50 6 50 0 49 1 l 222 981 b 228 986 222 985 224 986 l 235 986 b 243 979 239 986 242 983 l 524 267 l 1049 978 b 1061 986 1053 983 1057 986 "},"Н":{"ha":942,"x_min":0,"x_max":0,"o":"m 914 986 b 919 981 918 986 919 985 l 747 6 b 740 0 746 1 744 0 l 731 0 b 726 6 726 0 725 1 l 811 490 l 156 490 l 71 6 b 64 0 69 1 68 0 l 54 0 b 50 6 50 0 49 1 l 222 981 b 228 986 222 985 224 986 l 238 986 b 243 981 242 986 243 985 l 160 510 l 815 510 l 899 981 b 904 986 899 985 900 986 "},"О":{"ha":917,"x_min":0,"x_max":0,"o":"m 167 674 b 590 1006 204 885 353 1006 b 897 665 825 1006 936 876 l 835 313 b 415 -19 797 101 650 -19 b 104 321 178 -19 65 110 m 876 668 b 589 986 911 868 810 986 b 188 668 365 986 222 872 l 125 318 b 415 0 90 118 192 0 b 814 318 636 0 779 118 "},"П":{"ha":932,"x_min":0,"x_max":0,"o":"m 904 986 b 910 981 908 986 910 985 l 738 6 b 731 0 736 1 735 0 l 721 0 b 717 6 717 0 715 1 l 886 967 l 240 967 l 71 6 b 64 0 69 1 68 0 l 54 0 b 50 6 50 0 49 1 l 222 981 b 228 986 222 985 224 986 "},"Р":{"ha":850,"x_min":0,"x_max":0,"o":"m 604 986 b 850 685 788 986 885 868 b 501 400 815 503 686 400 l 140 400 l 71 6 b 64 0 69 1 68 0 l 54 0 b 50 6 50 0 49 1 l 222 981 b 228 986 222 985 224 986 m 503 419 b 831 692 676 419 801 521 b 600 967 860 864 774 967 l 240 967 l 143 419 "},"С":{"ha":876,"x_min":0,"x_max":0,"o":"m 163 671 b 583 1006 200 882 346 1006 b 901 760 796 1006 885 926 b 896 751 903 756 900 753 l 890 750 b 883 753 886 749 883 749 b 583 986 865 915 783 986 b 183 672 357 986 217 868 l 122 319 b 410 3 88 119 188 3 b 797 242 615 3 721 76 b 806 246 799 246 801 247 l 813 243 b 815 235 817 242 817 239 b 667 43 775 147 726 83 b 411 -19 607 1 521 -19 b 100 317 176 -19 63 107 "},"Т":{"ha":717,"x_min":0,"x_max":0,"o":"m 793 986 b 799 981 797 986 799 985 l 796 972 b 790 967 796 968 794 967 l 464 967 l 294 6 b 288 0 293 1 292 0 l 278 0 b 274 6 274 0 272 1 l 443 967 l 117 967 b 111 972 113 967 111 968 l 114 981 b 119 986 114 985 115 986 "},"У":{"ha":789,"x_min":0,"x_max":0,"o":"m 865 986 b 869 981 869 986 871 985 l 190 6 b 178 0 186 1 182 0 l 169 0 b 167 6 164 0 163 1 l 354 276 l 101 981 b 106 986 100 985 101 986 l 114 986 b 124 981 118 986 121 985 l 368 294 l 846 981 b 856 986 849 985 851 986 "},"Ф":{"ha":1135,"x_min":0,"x_max":0,"o":"m 710 1021 b 714 1015 713 1021 714 1019 l 694 903 l 799 903 b 1110 544 1039 903 1150 767 l 1090 438 b 654 90 1051 217 897 90 l 550 90 l 531 -22 b 525 -28 531 -26 529 -28 l 515 -28 b 510 -22 511 -28 510 -26 l 529 90 l 425 90 b 114 447 185 90 74 225 l 133 554 b 569 903 172 776 326 903 l 674 903 l 693 1015 b 700 1021 693 1019 696 1021 m 565 883 b 153 550 336 883 190 760 l 133 443 b 429 110 96 233 200 110 l 533 110 l 669 883 m 1090 550 b 794 883 1128 761 1028 883 l 690 883 l 554 110 l 658 110 b 1071 443 888 110 1033 233 "},"Х":{"ha":825,"x_min":0,"x_max":0,"o":"m 897 986 b 901 981 901 986 903 985 l 449 499 l 738 10 b 735 0 742 3 742 0 l 724 0 b 715 6 719 0 717 1 l 433 482 l -14 6 b -25 0 -18 1 -21 0 l -40 0 b -40 10 -44 0 -44 3 l 422 501 l 140 981 b 144 986 139 985 140 986 l 156 986 b 165 981 160 986 163 985 l 438 518 l 872 981 b 882 986 875 985 878 986 "},"Ц":{"ha":949,"x_min":0,"x_max":0,"o":"m 840 19 b 844 14 843 19 844 18 l 806 -207 b 799 -212 804 -211 803 -212 l 789 -212 b 785 -207 785 -212 783 -211 l 821 0 l 54 0 b 50 6 50 0 49 1 l 222 981 b 228 986 222 985 224 986 l 238 986 b 243 981 242 986 243 985 l 74 19 l 715 19 l 885 981 b 890 986 885 985 886 986 l 900 986 b 906 981 904 986 906 985 l 736 19 "},"Ч":{"ha":854,"x_min":0,"x_max":0,"o":"m 856 986 b 861 981 860 986 861 985 l 689 6 b 682 0 688 1 686 0 l 672 0 b 668 6 668 0 667 1 l 740 421 b 424 383 647 396 542 383 b 143 728 179 383 103 500 l 189 981 b 194 986 190 985 192 986 l 204 986 b 210 981 208 986 210 985 l 164 725 b 426 404 125 507 192 404 b 744 440 542 404 649 417 l 840 981 b 846 986 840 985 842 986 "},"Ш":{"ha":1246,"x_min":0,"x_max":0,"o":"m 1218 986 b 1224 981 1222 986 1224 985 l 1051 6 b 1044 0 1050 1 1049 0 l 54 0 b 50 6 50 0 49 1 l 222 981 b 228 986 222 985 224 986 l 238 986 b 243 981 242 986 243 985 l 74 19 l 543 19 l 713 981 b 718 986 713 985 714 986 l 728 986 b 733 981 732 986 733 985 l 564 19 l 1033 19 l 1203 981 b 1208 986 1203 985 1204 986 "},"Щ":{"ha":1267,"x_min":0,"x_max":0,"o":"m 1161 19 b 1165 14 1164 19 1165 18 l 1126 -207 b 1119 -212 1125 -211 1124 -212 l 1110 -212 b 1106 -207 1106 -212 1104 -211 l 1142 0 l 54 0 b 50 6 50 0 49 1 l 222 981 b 228 986 222 985 224 986 l 238 986 b 243 981 242 986 243 985 l 74 19 l 543 19 l 713 981 b 718 986 713 985 714 986 l 728 986 b 733 981 732 986 733 985 l 564 19 l 1033 19 l 1203 981 b 1208 986 1203 985 1204 986 l 1218 986 b 1224 981 1222 986 1224 985 l 1054 19 "},"Ъ":{"ha":974,"x_min":0,"x_max":0,"o":"m 654 586 b 904 290 839 586 938 472 b 557 0 872 107 742 0 l 178 0 b 174 6 174 0 172 1 l 343 967 l 104 967 b 99 972 100 967 99 968 l 101 981 b 107 986 101 985 103 986 l 361 986 b 367 981 365 986 367 985 l 296 586 m 557 19 b 883 294 729 19 854 122 b 653 567 913 465 826 567 l 293 567 l 197 19 "},"Ы":{"ha":1136,"x_min":0,"x_max":0,"o":"m 781 292 b 431 0 749 108 615 0 l 54 0 b 50 6 50 0 49 1 l 222 981 b 228 986 222 985 224 986 l 238 986 b 243 981 242 986 243 985 l 172 586 l 532 586 b 781 292 717 586 814 474 m 1093 981 b 1099 986 1093 985 1094 986 l 1108 986 b 1114 981 1113 986 1114 985 l 942 6 b 935 0 940 1 939 0 l 925 0 b 921 6 921 0 919 1 m 760 294 b 529 567 789 465 703 567 l 169 567 l 74 19 l 432 19 b 760 294 606 19 731 122 "},"Ь":{"ha":847,"x_min":0,"x_max":0,"o":"m 781 292 b 431 0 749 108 615 0 l 54 0 b 50 6 50 0 49 1 l 222 981 b 228 986 222 985 224 986 l 238 986 b 243 981 242 986 243 985 l 172 586 l 532 586 b 781 292 717 586 814 474 m 760 294 b 529 567 789 465 703 567 l 169 567 l 74 19 l 432 19 b 760 294 606 19 731 122 "},"Э":{"ha":879,"x_min":0,"x_max":0,"o":"m 126 761 b 526 1006 203 928 314 1006 b 833 669 764 1006 871 881 l 771 313 b 351 -19 733 101 585 -19 b 29 233 133 -19 46 63 b 35 242 28 238 31 240 l 40 244 b 49 240 44 246 47 244 b 351 0 65 75 146 0 b 750 314 574 0 717 119 l 781 489 l 279 489 b 275 494 275 489 274 490 l 276 503 b 283 508 276 507 279 508 l 785 508 l 814 674 b 525 986 847 869 749 986 b 144 754 325 986 221 917 b 135 751 143 750 139 750 l 129 753 b 126 761 125 754 125 757 "},"Ю":{"ha":1257,"x_min":0,"x_max":0,"o":"m 483 672 b 904 1006 522 883 669 1006 b 1208 667 1138 1006 1246 878 l 1146 308 b 729 -19 1108 99 963 -19 b 421 314 492 -19 383 104 l 451 490 l 156 490 l 71 6 b 64 0 69 1 68 0 l 54 0 b 50 6 50 0 49 1 l 222 981 b 228 986 222 985 224 986 l 238 986 b 243 981 242 986 243 985 l 160 510 l 456 510 m 1188 671 b 903 986 1222 869 1124 986 b 504 671 681 986 539 869 l 442 315 b 729 0 407 117 507 0 b 1125 315 951 0 1088 111 "},"Я":{"ha":888,"x_min":0,"x_max":0,"o":"m 142 725 b 460 986 171 893 288 986 l 864 986 b 869 981 868 986 869 985 l 697 6 b 690 0 696 1 694 0 l 681 0 b 676 6 676 0 675 1 l 756 456 l 472 456 b 213 310 350 456 279 414 l 14 6 b 1 0 10 1 6 0 l -6 0 b -8 7 -12 0 -12 3 l 197 321 b 354 456 240 389 293 435 b 142 725 194 463 114 563 m 458 967 b 163 722 297 967 190 879 b 371 475 135 567 214 475 l 758 475 l 846 967 "},"а":{"ha":731,"x_min":0,"x_max":0,"o":"m 114 472 b 440 728 143 650 244 728 b 650 689 522 728 593 715 b 693 613 693 671 700 657 l 593 43 b 579 31 592 39 588 35 b 285 -19 492 -3 393 -19 b 76 264 111 -19 44 92 m 640 671 b 438 710 583 697 515 710 b 133 472 256 710 163 640 l 96 264 b 288 -1 67 101 126 -1 b 574 49 397 -1 493 15 l 674 613 b 640 671 679 650 675 654 "},"б":{"ha":763,"x_min":0,"x_max":0,"o":"m 651 1019 b 774 1040 706 1019 747 1026 b 782 1038 778 1043 781 1042 l 785 1029 b 779 1022 785 1028 783 1025 b 649 1000 751 1007 708 1000 l 594 1000 b 301 913 460 1000 361 971 b 171 600 242 854 197 750 l 164 561 b 460 700 240 654 339 700 b 711 438 653 700 739 603 l 676 238 b 338 -19 647 75 531 -19 b 89 240 147 -19 60 78 l 151 600 b 289 928 179 757 225 867 b 597 1019 353 989 456 1019 m 692 440 b 460 682 718 592 639 682 b 246 615 375 682 296 654 b 158 528 196 575 175 551 l 108 240 b 339 -1 81 89 161 -1 b 657 240 518 -1 629 89 "},"в":{"ha":719,"x_min":0,"x_max":0,"o":"m 208 693 b 424 728 268 717 340 728 b 656 522 603 728 678 654 b 515 369 642 443 594 393 b 621 186 603 339 638 278 b 297 -19 597 51 479 -19 b 86 19 214 -19 143 -7 b 44 103 46 36 38 58 l 133 604 b 208 693 142 647 167 676 m 638 525 b 424 710 658 646 589 710 b 213 675 336 710 265 699 b 153 603 179 660 160 636 l 113 378 l 449 378 b 638 525 542 378 621 432 m 601 189 b 451 360 619 293 558 360 l 110 360 l 64 106 b 96 38 54 71 61 54 b 299 -1 153 11 221 -1 b 601 189 467 -1 579 63 "},"г":{"ha":678,"x_min":0,"x_max":0,"o":"m 117 561 b 419 728 185 672 285 728 b 642 532 597 728 664 653 b 593 426 632 488 611 450 b 507 374 575 403 529 383 b 393 353 488 365 413 354 b 329 346 381 351 360 349 b 183 321 264 340 233 336 b 124 292 158 313 139 303 b 54 172 93 268 64 228 b 271 -1 33 61 103 -1 b 576 165 414 -1 517 54 b 583 168 578 169 581 169 l 592 164 b 593 156 594 163 594 160 b 269 -19 522 29 419 -19 b 35 174 88 -19 13 51 b 176 338 57 268 99 314 b 331 364 231 354 264 358 b 464 382 392 369 414 371 b 522 400 488 386 507 393 b 622 535 571 425 611 460 b 418 710 640 646 583 710 b 133 551 275 710 201 656 b 125 549 132 549 129 547 l 117 553 b 117 561 115 554 115 557 "},"д":{"ha":758,"x_min":0,"x_max":0,"o":"m 289 1022 b 296 1028 289 1026 292 1028 b 644 933 474 1028 572 1001 b 708 558 718 863 739 738 l 651 236 b 317 -19 624 75 506 -19 b 68 239 126 -19 40 76 l 104 447 b 440 701 133 610 250 701 b 688 542 581 701 671 642 b 629 919 719 725 700 851 b 292 1010 567 979 454 1010 b 288 1015 288 1010 286 1011 m 669 446 b 439 683 696 596 615 683 b 122 444 260 683 150 599 l 86 236 b 318 -1 60 86 140 -1 b 632 236 494 -1 606 86 "},"е":{"ha":714,"x_min":0,"x_max":0,"o":"m 104 444 b 444 728 136 624 261 728 b 688 494 633 728 726 643 b 376 310 658 372 544 310 b 104 339 278 310 186 319 l 88 246 b 306 -1 60 90 133 -1 b 603 149 446 -1 532 50 b 611 151 604 153 607 153 l 618 147 b 618 140 619 146 619 144 b 303 -19 543 33 438 -19 b 68 246 118 -19 39 79 m 668 499 b 442 710 706 636 618 710 b 122 442 271 710 151 610 l 107 358 b 381 328 186 338 276 328 b 668 499 543 328 639 385 "},"ж":{"ha":1019,"x_min":0,"x_max":0,"o":"m 572 708 b 576 703 576 708 578 707 l 519 375 l 675 375 b 710 374 692 375 703 375 l 1007 703 b 1021 708 1011 707 1015 708 l 1029 708 b 1032 701 1036 708 1036 706 l 732 368 b 835 264 782 356 817 321 l 918 6 b 914 0 918 1 917 0 l 906 0 b 899 4 901 0 899 1 l 815 256 b 671 357 793 328 754 357 l 515 357 l 454 6 b 447 0 453 1 451 0 l 439 0 b 435 6 435 0 433 1 l 496 357 l 340 357 b 160 256 257 357 208 328 l -8 4 b -18 0 -11 1 -14 0 l -29 0 b -31 6 -33 0 -35 1 l 144 264 b 286 371 185 324 232 360 l 101 701 b 107 708 100 706 101 708 l 113 708 b 124 703 118 708 122 707 l 306 374 b 344 375 314 375 326 375 l 500 375 l 557 703 b 564 708 558 707 560 708 "},"з":{"ha":690,"x_min":0,"x_max":0,"o":"m 86 563 b 121 621 88 572 92 582 b 174 671 136 639 153 656 b 392 728 214 699 296 728 b 631 529 551 728 651 647 b 485 367 615 447 567 393 l 485 365 b 583 181 569 338 600 281 b 275 -19 563 60 457 -19 b 71 50 179 -19 104 11 b 15 158 38 89 17 132 l 13 179 b 18 186 11 183 14 185 l 26 189 b 32 185 31 190 32 189 b 49 121 32 175 31 164 b 85 65 57 100 69 81 b 275 0 115 32 185 0 b 563 185 443 0 544 74 b 396 356 583 301 533 356 l 226 356 b 222 363 222 356 221 358 l 224 368 b 231 375 224 372 226 375 l 400 375 b 611 532 521 375 592 428 b 389 708 629 636 538 708 b 185 656 300 708 224 685 b 110 572 146 626 119 593 l 104 557 b 96 551 103 551 100 550 l 89 554 b 86 563 85 556 85 558 "},"и":{"ha":754,"x_min":0,"x_max":0,"o":"m 747 708 b 751 703 751 708 753 707 l 646 100 b 581 25 636 57 625 43 b 331 -19 504 -4 421 -19 b 115 244 156 -19 83 68 l 196 703 b 203 708 197 707 199 708 l 211 708 b 215 703 215 708 217 707 l 135 246 b 332 -1 106 81 172 -1 b 581 43 422 -1 506 14 b 626 100 607 54 622 74 l 732 703 b 739 708 733 707 735 708 "},"й":{"ha":754,"x_min":0,"x_max":0,"o":"m 729 969 b 500 810 683 863 607 810 b 318 969 385 810 328 858 b 322 976 317 974 318 976 l 331 978 b 338 974 335 979 336 978 b 499 829 344 874 394 829 b 711 975 597 829 668 878 b 718 979 713 979 714 981 l 728 976 b 729 969 729 975 731 974 m 747 708 b 751 703 751 708 753 707 l 646 100 b 581 25 636 57 625 43 b 331 -19 504 -4 421 -19 b 115 244 156 -19 83 68 l 196 703 b 203 708 197 707 199 708 l 211 708 b 215 703 215 708 217 707 l 135 246 b 332 -1 106 81 172 -1 b 581 43 422 -1 506 14 b 626 100 607 54 622 74 l 732 703 b 739 708 733 707 735 708 "},"к":{"ha":704,"x_min":0,"x_max":0,"o":"m 601 6 b 597 0 603 1 601 0 l 588 0 b 581 4 583 0 581 1 l 497 256 b 353 357 475 328 436 357 l 114 357 l 53 6 b 46 0 51 1 50 0 l 38 0 b 33 6 33 0 32 1 l 156 703 b 163 708 157 707 158 708 l 171 708 b 175 703 175 708 176 707 l 118 375 l 357 375 l 372 375 l 690 703 b 704 708 694 707 699 708 l 711 708 b 714 701 718 708 718 706 l 394 371 b 515 263 454 363 494 326 "},"л":{"ha":736,"x_min":0,"x_max":0,"o":"m 679 708 b 683 703 683 708 685 707 l 561 6 b 554 0 560 1 558 0 l 546 0 b 542 6 542 0 540 1 l 661 689 l 268 689 l 201 400 b 79 75 163 233 128 131 b 21 18 56 46 36 28 b -51 -15 6 8 -19 -3 b -61 -19 -56 -17 -60 -18 b -67 -18 -65 -21 -67 -19 l -69 -8 b -67 -3 -71 -7 -69 -4 b -6 26 -56 3 -17 19 b 57 76 7 32 40 54 b 182 403 96 125 138 218 l 253 703 b 260 708 254 707 256 708 "},"м":{"ha":878,"x_min":0,"x_max":0,"o":"m 821 708 b 826 701 825 708 828 706 l 703 7 b 694 0 701 3 699 0 l 690 0 b 683 7 685 0 682 3 l 775 525 b 801 667 779 551 797 640 l 800 667 l 713 547 l 407 133 b 394 126 403 129 399 126 l 390 126 b 381 133 385 126 382 129 l 221 538 l 171 668 l 169 668 l 142 511 l 53 7 b 47 0 51 3 50 0 l 39 0 b 33 7 35 0 32 3 l 156 701 b 164 708 157 706 160 708 l 169 708 b 178 701 174 708 176 706 l 396 147 l 803 701 b 811 708 807 706 810 708 "},"н":{"ha":771,"x_min":0,"x_max":0,"o":"m 714 708 b 718 703 718 708 719 707 l 596 6 b 589 0 594 1 593 0 l 581 0 b 576 6 576 0 575 1 l 638 357 l 114 357 l 53 6 b 46 0 51 1 50 0 l 38 0 b 33 6 33 0 32 1 l 156 703 b 163 708 157 707 158 708 l 171 708 b 175 703 175 708 176 707 l 118 375 l 642 375 l 699 703 b 706 708 700 707 701 708 "},"о":{"ha":743,"x_min":0,"x_max":0,"o":"m 114 497 b 222 665 126 568 163 624 b 442 728 282 707 356 728 b 693 497 618 728 717 640 l 643 211 b 315 -19 619 68 489 -19 b 64 211 142 -19 40 71 m 674 499 b 440 710 697 626 603 710 b 133 499 281 710 157 626 l 83 210 b 315 -1 60 82 156 -1 b 624 210 478 -1 600 82 "},"п":{"ha":753,"x_min":0,"x_max":0,"o":"m 200 683 b 450 728 276 713 360 728 b 665 464 625 728 697 640 l 585 6 b 578 0 583 1 582 0 l 569 0 b 565 6 565 0 564 1 l 646 463 b 447 710 675 628 608 710 b 200 665 357 710 275 694 b 154 608 174 654 158 635 l 49 6 b 42 0 47 1 46 0 l 33 0 b 29 6 29 0 28 1 l 135 608 b 200 683 144 651 156 665 "},"р":{"ha":736,"x_min":0,"x_max":0,"o":"m 204 689 b 428 728 272 715 346 728 b 664 453 617 728 696 636 l 626 243 b 322 -19 594 68 493 -19 b 57 54 222 -19 133 6 l -6 -300 b -12 -306 -7 -304 -8 -306 l -21 -306 b -25 -300 -25 -306 -26 -304 l 136 613 b 204 689 143 657 156 671 m 644 453 b 425 710 674 624 601 710 b 208 671 346 710 274 697 b 156 613 165 654 161 647 l 61 76 b 325 -1 138 25 225 -1 b 607 243 485 -1 578 81 "},"с":{"ha":708,"x_min":0,"x_max":0,"o":"m 110 468 b 442 728 139 633 254 728 b 690 533 607 728 674 660 b 686 525 692 528 690 525 l 679 524 b 672 526 675 522 672 524 b 439 708 656 650 593 708 b 129 465 265 708 157 617 l 90 244 b 314 0 64 93 143 0 b 618 193 465 0 557 60 b 625 197 619 197 621 199 l 635 194 b 636 188 636 193 638 192 b 313 -19 574 47 472 -19 b 71 247 129 -19 42 81 "},"т":{"ha":1118,"x_min":0,"x_max":0,"o":"m 571 654 b 842 728 650 703 740 728 b 1032 478 999 728 1061 644 l 949 6 b 942 0 947 1 946 0 l 933 0 b 929 6 929 0 928 1 l 1013 476 b 839 710 1040 638 988 710 b 579 639 743 710 656 686 b 592 478 599 601 603 547 l 508 6 b 501 0 507 1 506 0 l 493 0 b 489 6 489 0 488 1 l 572 476 b 392 710 600 636 542 710 b 201 669 321 710 258 696 b 154 608 175 657 158 638 l 49 6 b 42 0 47 1 46 0 l 33 0 b 29 6 29 0 28 1 l 135 608 b 200 688 142 649 157 667 b 394 728 261 714 326 728 b 571 654 482 728 540 703 "},"у":{"ha":758,"x_min":0,"x_max":0,"o":"m 701 708 b 706 703 706 708 707 707 l 571 -62 b 235 -361 536 -261 424 -361 b 0 -194 111 -361 32 -306 b 4 -186 -1 -190 0 -187 l 11 -183 b 18 -186 15 -182 18 -182 b 239 -342 50 -286 110 -342 b 551 -62 414 -342 518 -249 l 569 38 b 285 -19 465 0 371 -19 b 69 244 110 -19 38 68 l 150 703 b 157 708 151 707 153 708 l 165 708 b 169 703 169 708 171 707 l 89 246 b 288 -1 61 81 117 -1 b 572 57 376 -1 471 18 l 686 703 b 693 708 688 707 689 708 "},"ф":{"ha":1019,"x_min":0,"x_max":0,"o":"m 619 718 b 753 728 661 724 706 726 b 994 456 946 728 1026 638 l 958 247 b 781 6 932 106 861 36 b 622 -19 722 -17 678 -19 b 492 -10 575 -18 532 -14 l 440 -300 b 433 -306 439 -304 438 -306 l 425 -306 b 421 -300 421 -306 419 -304 l 472 -10 b 336 -19 431 -14 385 -18 b 94 254 143 -19 63 72 l 128 449 b 271 679 149 561 203 643 b 467 728 339 715 399 728 b 600 718 506 728 550 725 l 654 1022 b 661 1028 654 1026 657 1028 l 669 1028 b 674 1022 672 1028 674 1026 m 114 251 b 338 0 72 17 238 1 b 475 8 382 0 428 3 l 597 700 b 463 708 551 706 506 708 b 282 663 401 708 347 696 b 147 446 217 628 165 551 m 975 458 b 751 708 1017 690 851 708 b 617 700 708 708 664 706 l 494 8 b 626 0 539 3 583 0 b 939 250 806 0 910 83 "},"х":{"ha":639,"x_min":0,"x_max":0,"o":"m 656 708 b 657 704 660 708 661 707 l 325 363 l 549 4 b 544 0 549 1 547 0 l 532 0 b 526 4 531 0 528 1 l 313 350 l -21 4 b -31 0 -25 1 -28 0 l -44 0 b -46 4 -49 0 -49 1 l 303 365 l 90 704 b 96 708 90 707 92 708 l 106 708 b 113 704 110 708 111 707 l 317 378 l 632 704 b 642 708 636 707 639 708 "},"ц":{"ha":776,"x_min":0,"x_max":0,"o":"m 210 708 b 214 703 214 708 215 707 l 133 244 b 332 -1 104 81 171 -1 b 543 29 415 -1 476 11 b 615 47 576 39 600 44 l 731 703 b 738 708 732 707 733 708 l 746 708 b 750 703 750 708 751 707 l 635 50 b 729 -42 696 60 740 29 l 704 -187 b 700 -193 703 -192 701 -193 l 692 -193 b 686 -187 688 -193 685 -192 l 711 -42 b 642 33 718 7 701 39 b 517 6 626 32 585 22 b 331 -19 449 -11 388 -19 b 114 243 156 -19 83 68 l 194 703 b 201 708 196 707 197 708 "},"ч":{"ha":689,"x_min":0,"x_max":0,"o":"m 124 703 b 131 708 125 707 126 708 l 139 708 b 143 703 143 708 144 707 l 108 510 b 326 297 81 358 144 297 b 574 339 394 297 476 311 l 638 703 b 644 708 639 707 640 708 l 653 708 b 657 703 657 708 658 707 l 535 6 b 528 0 533 1 532 0 l 519 0 b 515 6 515 0 514 1 l 571 319 b 322 279 478 293 394 279 b 90 514 132 279 61 351 "},"ш":{"ha":1110,"x_min":0,"x_max":0,"o":"m 1100 708 b 1104 703 1104 708 1106 707 l 999 100 b 936 19 989 57 976 38 b 739 -19 878 -7 813 -19 b 564 51 654 -19 596 4 b 300 -19 488 4 400 -19 b 111 235 144 -19 82 65 l 193 703 b 200 708 194 707 196 708 l 208 708 b 213 703 213 708 214 707 l 129 232 b 303 -1 101 71 154 -1 b 554 65 392 -1 475 21 b 542 231 533 106 529 161 l 625 703 b 632 708 626 707 628 708 l 640 708 b 644 703 644 708 646 707 l 560 228 b 742 -1 532 71 592 -1 b 932 39 813 -1 875 13 b 979 104 958 51 974 72 l 1085 703 b 1092 708 1086 707 1088 708 "},"щ":{"ha":1131,"x_min":0,"x_max":0,"o":"m 193 703 b 200 708 194 707 196 708 l 208 708 b 213 703 213 708 214 707 l 129 232 b 303 -1 101 71 154 -1 b 554 65 392 -1 475 21 b 542 231 533 106 529 161 l 625 703 b 632 708 626 707 628 708 l 640 708 b 644 703 644 708 646 707 l 560 228 b 742 -1 532 71 592 -1 b 968 47 828 -6 901 32 l 1085 703 b 1092 708 1086 707 1088 708 l 1100 708 b 1104 703 1104 708 1106 707 l 989 51 b 1085 -42 1051 61 1096 31 l 1060 -187 b 1056 -193 1058 -192 1057 -193 l 1047 -193 b 1042 -187 1043 -193 1040 -192 l 1067 -42 b 997 33 1074 7 1057 39 b 885 6 978 32 940 22 b 739 -19 828 -11 779 -19 b 564 51 654 -19 596 4 b 300 -19 488 4 400 -19 b 111 235 144 -19 82 65 "},"ъ":{"ha":828,"x_min":0,"x_max":0,"o":"m 247 419 b 532 476 349 457 443 476 b 750 231 697 476 778 385 b 424 -19 721 57 618 -19 b 214 19 342 -19 271 -7 b 171 96 171 38 164 51 l 276 690 l 61 690 b 56 696 57 690 56 692 l 57 703 b 64 708 58 707 60 708 l 293 708 b 297 703 297 708 299 707 m 224 38 b 426 -1 281 11 349 -1 b 731 233 608 -1 701 71 b 531 458 757 376 682 458 b 244 399 439 458 343 439 l 190 96 b 224 38 185 58 189 54 "},"ы":{"ha":933,"x_min":0,"x_max":0,"o":"m 125 419 b 408 476 226 457 321 476 b 628 231 574 476 656 385 b 301 -19 599 57 496 -19 b 92 19 219 -19 149 -7 b 49 96 49 38 42 51 l 156 703 b 163 708 157 707 158 708 l 169 708 b 175 703 174 708 176 707 m 879 708 b 883 703 883 708 885 707 l 761 6 b 754 0 760 1 758 0 l 746 0 b 742 6 742 0 740 1 l 864 703 b 871 708 865 707 867 708 m 101 38 b 304 -1 158 11 226 -1 b 608 233 486 -1 579 71 b 407 458 632 374 558 458 b 122 399 317 458 221 439 l 68 96 b 101 38 63 58 67 54 "},"ь":{"ha":701,"x_min":0,"x_max":0,"o":"m 125 419 b 408 476 226 457 321 476 b 628 231 574 476 656 385 b 301 -19 599 57 496 -19 b 92 19 219 -19 149 -7 b 49 96 49 38 42 51 l 156 703 b 163 708 157 707 158 708 l 169 708 b 175 703 174 708 176 707 m 101 38 b 304 -1 158 11 226 -1 b 608 233 486 -1 579 71 b 407 458 632 374 558 458 b 122 399 317 458 221 439 l 68 96 b 101 38 63 58 67 54 "},"э":{"ha":706,"x_min":0,"x_max":0,"o":"m 81 535 b 396 728 140 664 229 728 b 636 461 583 728 665 628 l 597 240 b 265 -19 568 75 450 -19 b 14 188 104 -19 26 49 b 18 194 13 190 14 193 l 28 197 b 35 193 32 199 33 197 b 269 0 47 60 118 0 b 579 244 440 0 551 93 l 599 354 l 235 354 b 231 360 231 354 229 356 l 232 368 b 238 374 232 372 233 374 l 601 374 l 618 465 b 394 708 646 617 568 708 b 97 526 238 708 157 656 b 90 524 96 522 93 522 l 82 526 b 81 535 79 528 79 531 "},"ю":{"ha":1017,"x_min":0,"x_max":0,"o":"m 383 501 b 706 728 407 642 535 728 b 950 496 878 728 974 636 l 897 201 b 575 -19 874 63 749 -19 b 331 207 404 -19 307 68 l 356 350 l 113 350 l 53 6 b 46 0 51 1 50 0 l 38 0 b 33 6 33 0 32 1 l 156 703 b 163 708 157 707 158 708 l 171 708 b 175 703 175 708 176 707 l 117 368 l 360 368 m 932 503 b 703 710 954 629 863 710 b 401 500 546 710 424 626 l 349 203 b 578 -1 326 76 421 -1 b 879 206 738 -1 857 79 "},"я":{"ha":703,"x_min":0,"x_max":0,"o":"m 650 708 b 656 701 656 708 657 706 l 533 6 b 526 0 532 1 531 0 l 518 0 b 514 6 514 0 513 1 l 563 283 l 263 283 l 17 6 b 4 0 13 1 8 0 l -4 0 b -7 7 -11 0 -11 3 l 239 285 b 89 499 129 294 67 376 b 343 708 113 632 208 708 m 340 690 b 108 494 218 690 131 617 b 265 301 86 374 147 301 l 565 301 l 635 690 "},"ё":{"ha":714,"x_min":0,"x_max":0,"o":"m 354 922 b 367 907 367 922 368 919 l 365 899 b 347 883 364 889 357 883 l 339 883 b 326 899 329 883 325 889 l 328 907 b 346 922 329 917 335 922 m 614 922 b 628 907 624 922 629 917 l 626 899 b 607 883 625 889 618 883 l 600 883 b 586 899 585 883 585 886 l 588 907 b 607 922 589 917 594 922 m 104 444 b 444 728 136 624 261 728 b 688 494 633 728 726 643 b 376 310 658 372 544 310 b 104 339 278 310 186 319 l 88 246 b 306 -1 60 90 133 -1 b 603 149 446 -1 532 50 b 611 151 604 153 607 153 l 618 147 b 618 140 619 146 619 144 b 303 -19 543 33 438 -19 b 68 246 118 -19 39 79 m 668 499 b 442 710 706 636 618 710 b 122 442 271 710 151 610 l 107 358 b 381 328 186 338 276 328 b 668 499 543 328 639 385 "},"Ẁ":{"ha":1190,"x_min":0,"x_max":0,"o":"m 604 1222 b 618 1224 608 1226 614 1228 l 842 1072 b 842 1064 844 1069 844 1067 l 839 1061 b 829 1060 836 1058 833 1058 l 601 1210 b 601 1219 597 1211 597 1215 m 1253 986 b 1257 981 1257 986 1258 985 l 815 7 b 804 0 814 3 810 0 l 796 0 b 788 7 790 0 788 3 l 700 810 b 696 857 700 811 699 828 b 688 924 692 886 689 908 l 686 924 l 633 810 l 260 7 b 249 0 258 3 254 0 l 240 0 b 232 7 235 0 232 3 l 135 981 b 139 986 133 985 135 986 l 149 986 b 157 981 153 986 156 985 l 239 143 b 249 33 242 121 244 85 l 250 33 l 300 142 l 678 953 b 688 958 681 957 683 958 l 697 958 b 704 953 701 958 704 957 l 793 139 b 804 33 794 117 803 57 l 806 33 b 850 138 826 79 840 114 l 1235 981 b 1243 986 1236 985 1239 986 "},"ẁ":{"ha":1006,"x_min":0,"x_max":0,"o":"m 474 985 b 486 986 478 989 482 989 l 703 826 b 703 818 706 824 706 821 l 701 817 b 692 815 697 813 694 813 l 472 974 b 472 983 468 976 468 979 m 1019 708 b 1022 701 1024 708 1025 706 l 672 -1 b 664 -8 669 -6 667 -8 l 654 -8 b 647 -1 650 -8 647 -6 l 560 558 b 546 650 554 599 550 629 l 544 650 b 497 558 536 631 503 568 l 210 -1 b 201 -8 207 -6 204 -8 l 192 -8 b 186 -1 189 -8 188 -6 l 85 701 b 90 708 85 706 86 708 l 99 708 b 104 701 103 708 104 706 l 185 140 l 201 25 l 203 25 l 263 143 l 538 675 b 546 681 539 679 542 681 l 553 681 b 560 675 557 681 558 679 l 643 150 b 663 25 653 94 658 53 l 664 25 l 725 147 l 1001 703 b 1011 708 1003 707 1007 708 "},"Ẃ":{"ha":1190,"x_min":0,"x_max":0,"o":"m 858 1238 b 871 1236 863 1240 867 1240 l 874 1232 b 871 1222 878 1228 876 1225 l 594 1064 b 585 1065 590 1063 588 1063 l 581 1071 b 583 1079 579 1074 579 1076 m 1253 986 b 1257 981 1257 986 1258 985 l 815 7 b 804 0 814 3 810 0 l 796 0 b 788 7 790 0 788 3 l 700 810 b 696 857 700 811 699 828 b 688 924 692 886 689 908 l 686 924 l 633 810 l 260 7 b 249 0 258 3 254 0 l 240 0 b 232 7 235 0 232 3 l 135 981 b 139 986 133 985 135 986 l 149 986 b 157 981 153 986 156 985 l 239 143 b 249 33 242 121 244 85 l 250 33 l 300 142 l 678 953 b 688 958 681 957 683 958 l 697 958 b 704 953 701 958 704 957 l 793 139 b 804 33 794 117 803 57 l 806 33 b 850 138 826 79 840 114 l 1235 981 b 1243 986 1236 985 1239 986 "}}}
